<?xml version="1.0" encoding="utf-8"?>
<!-- Generator: Adobe Illustrator 25.2.0, SVG Export Plug-In . SVG Version: 6.00 Build 0)  -->
<svg version="1.1" id="Layer_1" xmlns="http://www.w3.org/2000/svg" xmlns:xlink="http://www.w3.org/1999/xlink" x="0px" y="0px"
	 viewBox="0 0 776 509.15" style="enable-background:new 0 0 776 509.15;" xml:space="preserve">
<style type="text/css">
	.st0{fill:#FFD41F;}
	.st1{font-family:'CircularStd-Bold';}
	.st2{font-size:385.3814px;}
	.st3{fill:#001645;}
	.st4{fill:#6666DF;}
	.st5{fill:#29ABE2;}
	.st6{fill:#1B1464;}
	.st7{fill:#1A1A1A;}
	.st8{fill:#FC153B;}
	.st9{fill:#FCDA3B;}
	.st10{fill:#FFFFFF;stroke:#FC153B;stroke-width:1.545;stroke-miterlimit:10;}
	.st11{opacity:0.41;fill:#29ABE2;enable-background:new    ;}
	.st12{fill:#FFDE14;}
	.st13{fill:#FFFFFF;}
	.st14{fill:#FDBC2C;}
	.st15{fill:none;stroke:#1B1464;stroke-width:2.654;stroke-miterlimit:10;}
	.st16{fill:#F5C327;}
	.st17{fill:url(#Path_101_1_);}
	.st18{fill:url(#Path_102_1_);}
	.st19{fill:#F2F2F2;}
	.st20{fill:none;stroke:#001645;stroke-width:0.688;stroke-linecap:round;stroke-linejoin:round;}
	.st21{fill:none;stroke:#FF0000;stroke-width:0.688;stroke-linecap:round;stroke-linejoin:round;}
	.st22{fill:none;stroke:#00FF00;stroke-width:0.688;stroke-linecap:round;stroke-linejoin:round;}
	.st23{fill:#0068FF;}
	.st24{fill:#E5C12C;}
	.st25{enable-background:new    ;}
	.st26{font-size:9.5358px;}
</style>
<g>
	<text transform="matrix(1 0 0 1 -9.765625e-04 390.3969)" class="st0 st1 st2">05</text>
	<g id="Group_63" transform="translate(-2324.093 -10090.74)">
		<g id="Group_62">
			<g id="Group_46">
				<path id="Path_64" class="st3" d="M2915.99,10237.21c0,0,1.68,85.04-12.72,121.66l13.33,8.89c0,0,28.17-112.61,18.68-130.55
					H2915.99z"/>
				<path id="Rectangle_9" class="st3" d="M2855.88,10351.01h1.01c4.06,0,7.35,3.29,7.35,7.35v114.39c0,4.06-3.29,7.35-7.35,7.35
					h-1.01c-4.06,0-7.35-3.29-7.35-7.35v-114.39C2848.53,10354.3,2851.82,10351.01,2855.88,10351.01z"/>
				<path id="Path_65" class="st4" d="M2912.06,10420.31c-40.14,25.94-103.18-28.35-126.77-42.47
					c-28.62-17.12,47.41-47.59,64.63-54.65c17.23-7.06,89.11,26.63,98.79,38.09C2967.69,10383.76,2921.74,10414.05,2912.06,10420.31
					z"/>
				<path id="Path_66" class="st4" d="M2895.8,10187.99c2.77,0.71,47.45,13.91,67.82,17.58c35.38,6.38,28.94,46.65,11.79,57.06
					c-17.15,10.41-97.38-10.73-105.06-24.96c-6.11-11.33-7.94-26.73-3.29-39.66C2871.74,10184.97,2883.76,10184.91,2895.8,10187.99z
					"/>
				<path id="Path_67" class="st5" d="M2889.84,10195.27c2.77,0.71,47.45,13.91,67.82,17.58c35.38,6.37,28.94,46.65,11.79,57.07
					s-97.38-10.73-105.06-24.96c-6.11-11.33-7.94-26.73-3.29-39.66C2865.78,10192.25,2877.8,10192.18,2889.84,10195.27z"/>
				<path id="Path_68" class="st5" d="M2912.06,10411.1c-40.14,25.94-103.18-28.35-126.77-42.46
					c-28.62-17.12,47.41-47.59,64.63-54.65c17.23-7.06,89.11,26.64,98.79,38.09C2967.69,10374.55,2921.74,10404.85,2912.06,10411.1z
					"/>
				<path id="Path_69" class="st3" d="M2845.68,10473.64l-33.64,36.78c-2.42,2.65-2.24,6.76,0.41,9.18
					c0.51,0.47,1.09,0.85,1.72,1.13l0.06,0.03c2.56,1.15,5.57,0.52,7.46-1.55l33.58-36.81c2.42-2.65,2.23-6.77-0.43-9.18
					c-0.55-0.5-1.18-0.9-1.86-1.19l0,0C2850.46,10470.98,2847.54,10471.62,2845.68,10473.64z"/>
				<path id="Path_70" class="st3" d="M2860.44,10470.36l35.16,35.34c2.53,2.55,2.52,6.66-0.03,9.2c-0.49,0.49-1.05,0.89-1.67,1.2
					l-0.06,0.03c-2.51,1.25-5.54,0.76-7.52-1.23l-35.1-35.37c-2.53-2.55-2.51-6.67,0.04-9.19c0.53-0.52,1.14-0.95,1.81-1.26l0,0
					C2855.55,10467.9,2858.5,10468.42,2860.44,10470.36z"/>
				<path id="Path_71" class="st3" d="M2854.94,10472.32c-0.08-1.87,0.12-3.74,0.6-5.55l-35.34,3.53c-2.73,0.27-5,2.23-5.66,4.9l0,0
					c-0.87,3.49,1.26,7.01,4.74,7.88c0.72,0.18,1.46,0.23,2.2,0.16l34.99-3.45C2855.57,10477.39,2855.05,10474.87,2854.94,10472.32z
					"/>
				
					<ellipse id="Ellipse_21" transform="matrix(0.866 -0.5 0.5 0.866 -4872.231 2853.3892)" class="st3" cx="2888.38" cy="10518.4" rx="6" ry="10.39"/>
				
					<ellipse id="Ellipse_22" transform="matrix(0.866 -0.5 0.5 0.866 -4869.3892 2855.6821)" class="st3" cx="2894.08" cy="10514.24" rx="6" ry="10.39"/>
				
					<ellipse id="Ellipse_23" transform="matrix(0.866 -0.5 0.5 0.866 -4864.8281 2813.5835)" class="st3" cx="2817.8" cy="10484.68" rx="6" ry="10.39"/>
				
					<ellipse id="Ellipse_24" transform="matrix(0.866 -0.5 0.5 0.866 -4861.9858 2815.876)" class="st3" cx="2823.5" cy="10480.53" rx="6" ry="10.39"/>
				
					<ellipse id="Ellipse_25" transform="matrix(0.5 -0.866 0.866 0.5 -7701.1255 7702.7285)" class="st3" cx="2820.2" cy="10520.73" rx="10.39" ry="6"/>
				
					<ellipse id="Ellipse_26" transform="matrix(0.5 -0.866 0.866 0.5 -7700.3755 7695.7139)" class="st3" cx="2814.5" cy="10516.58" rx="10.39" ry="6"/>
			</g>
			<g id="Group_55">
				<path id="Path_72" class="st6" d="M2871.57,10149.93c0,0,33.59,4.54,6.26,70.71c0,0-17.96,12.35-24.98,12.35
					c0,0,5.85-39.78,2.34-56.16C2851.68,10160.46,2871.57,10149.93,2871.57,10149.93z"/>
				<path id="Path_73" class="st7" d="M2762,10510.85l-19.89,28.55c0,0,2.35,17.71,7,21.98c4.65,4.26,58.32-42.26,58.32-42.26
					s-8.25-19.37-16.23-23.75C2783.23,10490.98,2762,10510.85,2762,10510.85z"/>
				<path id="Path_74" class="st7" d="M2844.14,10344.64c0,0-93.24,55.62-93.91,69.64c-0.67,14.02,13.05,81.21,14,95.52
					c0.95,14.43,36.13,10.4,36.13,10.4l-5.48-75.08c-0.73-6.42-0.84-12.69,4.62-16.13l84.57-53.37L2844.14,10344.64z"/>
				<path id="Path_75" class="st7" d="M2894.79,10358.26c0,0-108.49,87-106.86,100.93c1.63,13.92,0.84,68.29-4.54,81.69
					c-5.38,13.39,40.72,13.02,40.72,13.02l1.9-82.8l80.69-55.06c13.4-9.14,21.42-24.32,21.42-40.54v-12.17L2894.79,10358.26z"/>
				<path id="Path_76" class="st8" d="M2865.18,10217.93c1.18-12.14-7.53-9.63-14.66-8.46c-0.93,0.88-1.81,1.8-2.65,2.76
					c-10.32,14.28-16.04,51.15-20.01,68.61c-2.95,12.97-10.14,19.49-30.44,20.17c-6.51,0.22-11.67-1.45-11.67,5.07v5.66
					c0,6.61-2.42,9.06,4.2,9.15c23.13,0.33,51.63-0.91,54.31-13.88C2847.57,10291,2862.08,10249.8,2865.18,10217.93z"/>
				<path id="Path_77" class="st7" d="M2786.89,10545.25c0,0-28.49,25.16-27.34,32.06c1.15,6.9,0.08,26.44,27.34,14.95
					c27.26-11.49,37.03-29.31,37.03-29.31v-12.71L2786.89,10545.25z"/>
				<path id="Path_78" class="st4" d="M2935.17,10298.62"/>
				<path id="Path_79" class="st8" d="M2845.12,10215.12l-9.83,25.49c-4.85,10.21-1.51,19.68,3.05,30.03l4.86,27.4
					c1.44,4.7,1.22,9.75-0.6,14.31l-11.22,33.92c-0.31,3.76,0,8.19,6.39,12.95c10.52,7.84,29.4,25.29,76.34,23.68
					c10.65-0.36,14.6-8.76,15.1-19.41l-11.24-36.54c-0.82-4.86-0.74-9.83,0.22-14.66l21.69-76.91c0.13-2.85-0.53-6.38-3.16-7.5
					c-19.73-8.45-42.99-28.63-86.35-20.5C2847.11,10208,2845.39,10211.79,2845.12,10215.12z"/>
				<path id="Path_80" class="st9" d="M2891.98,10227.16c-0.74,0.09-1.49,0.14-2.23,0.14c-14.35-0.5-27.01-6.42-30.17-21.82
					c-0.62-3.16-0.3-6.44,0.91-9.42c2.11-5.3,2.79-11.06,1.99-16.72l-1.42-10.06c0-19.04,22.52-27.1,37.99-23.95
					c8.53,1.73,19.27,4.91,19.27,23.95v1.37c0.07,10.23-1.04,20.43-3.29,30.41c-1.26,5.5-3.72,10.66-7.19,15.11
					C2904.63,10220.25,2897.34,10225.95,2891.98,10227.16z"/>
				<path id="Path_81" class="st10" d="M2871.73,10205.34c0.91,3.68,4.87,15.26,17.01,3.83c0.27-0.25,0.29-0.68,0.03-0.96
					c-0.09-0.1-0.21-0.17-0.35-0.2l-15.9-3.49c-0.36-0.08-0.72,0.15-0.8,0.51C2871.71,10205.14,2871.71,10205.24,2871.73,10205.34z"
					/>
				<circle id="Ellipse_27" class="st9" cx="2781.05" cy="10307.33" r="15.16"/>
				<path id="Path_82" class="st9" d="M2765.74,10295.3L2765.74,10295.3c-1.64-1.22-3.96-0.87-5.18,0.77l-2.46,3.06
					c-1.22,1.64-0.87,3.96,0.77,5.18c0,0,0,0,0,0l0,0c1.64,1.22,3.96,0.87,5.18-0.77c0,0,0,0,0,0l2.46-3.06
					C2767.73,10298.83,2767.38,10296.52,2765.74,10295.3z"/>
				<path id="Path_83" class="st9" d="M2768.98,10300.25L2768.98,10300.25c-1.64-1.22-3.96-0.87-5.18,0.77l-2.46,3.06
					c-1.22,1.64-0.87,3.96,0.77,5.17c0,0,0,0,0,0l0,0c1.64,1.22,3.96,0.87,5.18-0.77c0,0,0,0,0,0l2.46-3.06
					C2770.97,10303.78,2770.63,10301.46,2768.98,10300.25z"/>
				<path id="Path_84" class="st9" d="M2772.23,10305.19L2772.23,10305.19c-1.64-1.22-3.96-0.87-5.18,0.77l-2.46,3.06
					c-1.22,1.64-0.87,3.96,0.77,5.18c0,0,0,0,0,0l0,0c1.64,1.22,3.96,0.87,5.18-0.77l2.46-3.06
					C2774.21,10308.72,2773.87,10306.41,2772.23,10305.19C2772.23,10305.19,2772.23,10305.19,2772.23,10305.19z"/>
				<g id="Group_47">
					<circle id="Ellipse_28" class="st9" cx="2850.87" cy="10365.59" r="13.54"/>
					<path id="Rectangle_10" class="st9" d="M2843.06,10366.69l0.21,0.43c0.84,1.72,0.13,3.79-1.59,4.63l-10.47,5.11
						c-1.72,0.84-3.79,0.13-4.63-1.59l-0.21-0.43c-0.84-1.72-0.13-3.79,1.59-4.63l10.47-5.11
						C2840.14,10364.26,2842.22,10364.97,2843.06,10366.69z"/>
					<path id="Rectangle_11" class="st9" d="M2848.75,10370.29l0.21,0.43c0.84,1.72,0.13,3.79-1.59,4.63l-10.46,5.1
						c-1.72,0.84-3.79,0.12-4.63-1.59l-0.21-0.43c-0.84-1.72-0.13-3.79,1.59-4.63l10.46-5.11
						C2845.83,10367.86,2847.91,10368.57,2848.75,10370.29z"/>
					<path id="Rectangle_12" class="st9" d="M2854.44,10373.89l0.21,0.43c0.84,1.72,0.13,3.79-1.59,4.63l-10.46,5.1
						c-1.72,0.84-3.79,0.13-4.63-1.59l-0.21-0.43c-0.84-1.72-0.13-3.79,1.59-4.63l10.46-5.11
						C2851.52,10371.46,2853.6,10372.17,2854.44,10373.89z"/>
					<path id="Path_85" class="st9" d="M2831.44,10361.51L2831.44,10361.51c0.18-2.04,1.98-3.54,4.02-3.36l3.92,0.2
						c2.04,0.18,3.54,1.98,3.36,4.02l0,0c-0.18,2.04-1.98,3.54-4.02,3.36l-3.92-0.2
						C2832.76,10365.35,2831.26,10363.55,2831.44,10361.51z"/>
					<path id="Path_86" class="st9" d="M2827.84,10366.82L2827.84,10366.82c-1.18-1.67-0.77-3.98,0.9-5.16l3.12-2.38
						c1.67-1.18,3.98-0.77,5.16,0.9c0,0,0,0,0,0l0,0c1.18,1.67,0.77,3.98-0.9,5.16l-3.12,2.38
						C2831.32,10368.89,2829.01,10368.49,2827.84,10366.82z"/>
					<path id="Path_87" class="st9" d="M2833.81,10355.73L2833.81,10355.73c0.3-2.02,2.19-3.41,4.21-3.11h0l3.9,0.43
						c2.02,0.3,3.41,2.19,3.11,4.21c0,0,0,0,0,0l0,0c-0.3,2.02-2.19,3.41-4.21,3.11c0,0,0,0,0,0l-3.9-0.43
						C2834.9,10359.63,2833.51,10357.75,2833.81,10355.73z"/>
				</g>
				<path id="Path_88" class="st9" d="M2775.47,10310.13L2775.47,10310.13c-1.64-1.22-3.96-0.87-5.18,0.77l-2.46,3.06
					c-1.22,1.64-0.87,3.96,0.77,5.17c0,0,0,0,0,0l0,0c1.64,1.22,3.96,0.87,5.18-0.77l2.46-3.06
					C2777.46,10313.67,2777.11,10311.35,2775.47,10310.13z"/>
				<path id="Path_89" class="st6" d="M2877.36,10177.21c0,0,19.84,31.96,46.29,29.9c0,0-1.62-19.87-3.7-37.25
					c-1-8.31-3.63-16.73-10.32-21.26c-18.67-12.66-37.12-3.11-43.57,5.68c-6.44,8.79-8.14,12.2-5.01,19.69
					C2864.18,10181.45,2877.36,10177.21,2877.36,10177.21z"/>
				<path id="Path_90" class="st6" d="M2902.2,10144.67c0,0,47.41,9.8,20.09,75.98c0,0-17.96,12.35-24.98,12.35
					c0,0,5.85-39.78,2.34-56.16C2896.14,10160.46,2902.2,10144.67,2902.2,10144.67z"/>
				<path id="Path_91" class="st9" d="M2948.44,10255.25c1.18-12.14-7.53-9.63-14.66-8.46c-0.93,0.88-1.81,1.8-2.65,2.76
					c-10.32,14.28-26.15,51.15-30.12,68.61c-2.95,12.98-15.58,35.04-35.88,35.72c-6.51,0.22-11.67-1.45-11.67,5.07v5.65
					c0,6.62-2.42,9.06,4.2,9.15c23.13,0.33,54.93-17.1,59.76-29.43C2927.34,10318.98,2945.35,10287.12,2948.44,10255.25z"/>
				<path id="Path_92" class="st8" d="M2941.73,10228.42c4.11,0.51,7.31,3.8,7.7,7.92c0.49,5.36,0.36,14.81-1.91,31.32
					c0,0-1.09,3.95,2.42,8.63s-22.34-0.5-31.64,5.6c-9.3,6.1-13.98-43.04-1.11-50.06
					C2925.39,10227.36,2935.48,10227.64,2941.73,10228.42z"/>
				<g id="Group_53">
					<path id="Path_93" class="st9" d="M2790.64,10269.98l0.23-3.95c0.03-0.52-0.36-0.97-0.88-1c-0.24-0.02-0.48,0.06-0.67,0.22
						l-3.02,2.56c-0.4,0.34-0.45,0.93-0.11,1.33c0.08,0.1,0.18,0.18,0.3,0.23l2.79,1.39c0.47,0.23,1.04,0.04,1.27-0.42
						C2790.6,10270.23,2790.64,10270.11,2790.64,10269.98z"/>
					<path id="Rectangle_13" class="st5" d="M2773.05,10301.68l-1.54-0.77c-1.05-0.53-1.48-1.81-0.95-2.86l15.04-30.07
						c0.53-1.05,1.81-1.48,2.86-0.95l1.54,0.77c1.05,0.53,1.48,1.8,0.95,2.86l-15.04,30.07
						C2775.38,10301.78,2774.1,10302.21,2773.05,10301.68z"/>
					<path id="Path_94" class="st11" d="M2788.21,10266.89l2.02,1.01c0.92,0.46,1.29,1.58,0.83,2.5
						c-6.07,9.87-12.97,19.2-20.63,27.89l15.28-30.57C2786.17,10266.81,2787.29,10266.44,2788.21,10266.89z"/>
					<g id="Group_52">
						<g id="Group_50">
							<g id="Group_48">
								<path id="Path_95" class="st12" d="M2774.84,10300.36c0.02,0,0.03-0.01,0.04-0.03l0.45-0.9c0.01-0.02,0-0.04-0.01-0.06
									c-0.39-0.36-0.78-0.71-1.17-1.08c-0.34-0.29-0.68-0.59-1.01-0.88c0.43,0.1,0.87,0.19,1.31,0.28
									c0.53,0.09,1.06,0.17,1.59,0.26c0.02,0,0.04-0.01,0.05-0.03c-0.48-0.43-0.96-0.85-1.43-1.28c-0.69-0.1-1.39-0.21-2.08-0.32
									c-0.02,0-0.04,0.01-0.05,0.03l-0.56,1.14c-0.01,0.02-0.01,0.04,0.01,0.06c0.94,0.95,1.88,1.89,2.83,2.8
									C2774.82,10300.35,2774.83,10300.36,2774.84,10300.36z"/>
							</g>
							<g id="Group_49">
								<path id="Path_96" class="st13" d="M2776.1,10297.92l0.03-0.06l0,0c0.15-0.29,0.29-0.58,0.44-0.88v-0.01
									c0.01-0.02,0-0.04-0.01-0.06l-1.21-1.01l-0.81-0.66l1.04,0.21c0.52,0.1,1.05,0.2,1.57,0.29c0.02,0,0.04-0.01,0.05-0.03
									c0.14-0.29,0.29-0.58,0.43-0.87c0.01-0.02,0.01-0.04-0.01-0.06c-0.39-0.36-0.78-0.72-1.17-1.08
									c-0.26-0.23-0.53-0.46-0.79-0.69c0.34,0.08,0.68,0.17,1.01,0.25c0.51,0.12,1.02,0.24,1.53,0.37c0.02,0,0.04-0.01,0.05-0.03
									c0.15-0.31,0.31-0.62,0.46-0.92c0.01-0.03,0-0.06-0.02-0.07c0,0-0.01,0-0.01,0c-1.27-0.27-2.56-0.51-3.86-0.74
									c-0.02,0-0.04,0.01-0.05,0.03c-0.16,0.33-0.33,0.65-0.49,0.98c-0.01,0.02-0.01,0.04,0.01,0.06
									c0.41,0.37,0.82,0.75,1.23,1.13c0.22,0.19,0.43,0.38,0.65,0.58c-0.29-0.06-0.57-0.11-0.85-0.17l-1.65-0.3
									c-0.02,0-0.04,0.01-0.05,0.03l-0.5,1c-0.01,0.02,0,0.04,0.01,0.06l1.55,1.4h-0.01
									C2775.14,10297.08,2775.62,10297.51,2776.1,10297.92L2776.1,10297.92z"/>
							</g>
						</g>
						<g id="Group_51">
							<path id="Path_97" class="st14" d="M2775.71,10297.89l-1.37-1.31l0.32,0.05l1.43,1.29c-0.01,0.02-0.03,0.03-0.06,0.02
								L2775.71,10297.89z"/>
						</g>
					</g>
				</g>
				<path id="Rectangle_14" class="st9" d="M2787.54,10299.58l-0.37,0.3c-1.47,1.22-3.66,1.01-4.88-0.46l-7.42-8.97
					c-1.22-1.47-1.01-3.66,0.46-4.88l0.37-0.3c1.47-1.22,3.66-1.01,4.88,0.46l7.42,8.97
					C2789.22,10296.17,2789.01,10298.36,2787.54,10299.58z"/>
				<g id="Group_54">
					
						<ellipse id="Ellipse_29" transform="matrix(0.1457 -0.9893 0.9893 0.1457 -7634.9585 11542.3711)" class="st15" cx="2866.03" cy="10192.14" rx="8.31" ry="8.73"/>
					
						<ellipse id="Ellipse_30" transform="matrix(0.1457 -0.9893 0.9893 0.1457 -7617.2783 11570.1963)" class="st15" cx="2890.98" cy="10195.81" rx="8.31" ry="8.73"/>
					<path id="Path_98" class="st15" d="M2885.22,10194.97l-2.88-0.42c-3.3-4.22-7.68-1.13-7.68-1.13l-2.88-0.42"/>
				</g>
			</g>
			<path id="Path_99" class="st16" d="M2717.29,10332.97c-7.57,1.7-15.48-3.32-23.02-1.52c-4.29,1.03-7.75,4.1-11.01,7.07
				l-5.75,5.23c-0.77,0.62-1.41,1.38-1.89,2.25c-1.32,2.86,1.66,6.17,4.79,6.54s6.13-1.12,9.04-2.33
				c2.91-1.21,11.61-0.69,11.61-0.69c-1.43,1.29-3.22,2.12-5.13,2.39c-0.88,0.05-1.75,0.19-2.59,0.44c-0.86,0.27-1.46,1.05-1.5,1.96
				c0.09,1.44,1.96,1.9,3.4,1.97c2.51,0.12,5.03,0.25,7.54,0.35c1.28,0.13,2.58,0.01,3.81-0.36c0.99-0.44,1.91-1.01,2.74-1.7
				c3.27-2.22,6.74-4.12,10.37-5.68c1.14-0.68,2.47-1,3.79-0.91"/>
			<path id="Path_100" class="st3" d="M2714.06,10330.1c0,0,3.62,13.51,10.75,18.37c0,0-1.62,2.29-6.22,2.39
				c0,0-13.02-4.12-11.6-17.99L2714.06,10330.1z"/>
			<g id="Group_57">
				
					<ellipse id="Ellipse_31" transform="matrix(0.866 -0.5 0.5 0.866 -4808.4702 2751.218)" class="st13" cx="2729.61" cy="10348.34" rx="12.17" ry="21.08"/>
				<g id="Group_56">
					
						<linearGradient id="Path_101_1_" gradientUnits="userSpaceOnUse" x1="2290.2288" y1="10778.8486" x2="2291.0957" y2="10778.8486" gradientTransform="matrix(1.3142 0 0 -3.9521 -273.9122 52943.7773)">
						<stop  offset="0" style="stop-color:#F71935"/>
						<stop  offset="1" style="stop-color:#FF5146"/>
					</linearGradient>
					<path id="Path_101" class="st17" d="M2736.68,10345.84l-0.37-0.21c-0.24-0.17-0.38-0.44-0.39-0.74v-2.09
						c0-0.28,0.17-0.42,0.39-0.29l0.37,0.21c0.24,0.17,0.38,0.45,0.39,0.74v2.09
						C2737.07,10345.83,2736.89,10345.96,2736.68,10345.84z"/>
					
						<linearGradient id="Path_102_1_" gradientUnits="userSpaceOnUse" x1="2309.4419" y1="10793.8662" x2="2310.4431" y2="10793.8662" gradientTransform="matrix(20.9521 0 0 -16.8301 -46580.1289 192012.9375)">
						<stop  offset="0" style="stop-color:#F71935"/>
						<stop  offset="1" style="stop-color:#FF5146"/>
					</linearGradient>
					<path id="Path_102" class="st18" d="M2733.97,10344.57c0.09-0.51,0.52-0.68,1.02-0.39l3.11,1.8c1.01,0.68,0.42,5.43,0.39,5.79
						c-0.21,2.71-1.25,4.85-2.93,5.96c-4.3,2.85-10.54-1.39-14.73-8.63c-0.37-0.64-0.42-1.35-0.09-1.65l0.36-0.32
						c0.3-0.27,0.81-0.12,1.25,0.37c0.89,0.98,2.3,2.45,2.44,2.57c1.96,1.68,3.91,2.4,5.41,1.64c1.48-0.75,2.55-2.46,3.17-4.32
						C2733.42,10347.26,2733.78,10345.64,2733.97,10344.57z"/>
				</g>
			</g>
			<g id="Group_58">
				<path id="Path_103" class="st9" d="M2702.57,10358.64l-56.62-32.69l44.58-25.74l56.62,32.69L2702.57,10358.64z"/>
				<path id="Path_104" class="st19" d="M2708.17,10358.08l-56.62-32.69l44.58-25.74l56.62,32.69L2708.17,10358.08z"/>
				<path id="Path_105" class="st9" d="M2714.32,10359.76l-56.62-32.69l44.58-25.74l56.62,32.69L2714.32,10359.76z"/>
				<path id="Path_106" class="st19" d="M2710.41,10353.6l-56.62-32.69l44.58-25.74l56.62,32.69L2710.41,10353.6z"/>
				<path id="Path_107" class="st20" d="M2704.42,10315.35l-7.46-4.31l7.46-4.31l7.46,4.31L2704.42,10315.35z"/>
				<path id="Path_108" class="st20" d="M2711.88,10319.65l-7.46-4.31l7.46-4.31l7.46,4.31L2711.88,10319.65z"/>
				<path id="Path_109" class="st20" d="M2719.34,10323.96l-7.46-4.31l7.46-4.31l7.46,4.31L2719.34,10323.96z"/>
				<path id="Path_110" class="st20" d="M2726.81,10328.27l-7.46-4.31l7.46-4.31l7.46,4.31L2726.81,10328.27z"/>
				<path id="Path_111" class="st20" d="M2734.27,10332.58l-7.46-4.31l7.46-4.31l7.46,4.31L2734.27,10332.58z"/>
				<path id="Path_112" class="st20" d="M2689.49,10315.35l-7.46-4.31l7.46-4.31l7.46,4.31L2689.49,10315.35z"/>
				<path id="Path_113" class="st20" d="M2696.96,10319.65l-7.46-4.31l7.46-4.31l7.46,4.31L2696.96,10319.65z"/>
				<path id="Path_114" class="st20" d="M2704.42,10323.96l-7.46-4.31l7.46-4.31l7.46,4.31L2704.42,10323.96z"/>
				<path id="Path_115" class="st20" d="M2711.88,10328.27l-7.46-4.31l7.46-4.31l7.46,4.31L2711.88,10328.27z"/>
				<path id="Path_116" class="st20" d="M2726.81,10336.89l-7.46-4.31l7.46-4.31l7.46,4.31L2726.81,10336.89z"/>
				<path id="Path_117" class="st20" d="M2682.03,10319.65l-7.46-4.31l7.46-4.31l7.46,4.31L2682.03,10319.65z"/>
				<path id="Path_118" class="st20" d="M2689.49,10323.96l-7.46-4.31l7.46-4.31l7.46,4.31L2689.49,10323.96z"/>
				<path id="Path_119" class="st20" d="M2696.96,10328.27l-7.46-4.31l7.46-4.31l7.46,4.31L2696.96,10328.27z"/>
				<path id="Path_120" class="st20" d="M2711.88,10336.89l-7.46-4.31l7.46-4.31l7.46,4.31L2711.88,10336.89z"/>
				<path id="Path_121" class="st20" d="M2719.34,10341.2l-7.46-4.31l7.46-4.31l7.46,4.31L2719.34,10341.2z"/>
				<path id="Path_122" class="st20" d="M2674.57,10323.96l-7.46-4.31l7.46-4.31l7.46,4.31L2674.57,10323.96z"/>
				<path id="Path_123" class="st20" d="M2682.03,10328.27l-7.46-4.31l7.46-4.31l7.46,4.31L2682.03,10328.27z"/>
				<path id="Path_124" class="st20" d="M2689.49,10332.58l-7.46-4.31l7.46-4.31l7.46,4.31L2689.49,10332.58z"/>
				<path id="Path_125" class="st20" d="M2696.96,10336.89l-7.46-4.31l7.46-4.31l7.46,4.31L2696.96,10336.89z"/>
				<path id="Path_126" class="st20" d="M2704.42,10341.2l-7.46-4.31l7.46-4.31l7.46,4.31L2704.42,10341.2z"/>
				<path id="Path_127" class="st20" d="M2711.88,10345.5l-7.46-4.31l7.46-4.31l7.46,4.31L2711.88,10345.5z"/>
				<path id="Path_128" class="st4" d="M2696.96,10311.04l-7.46-4.31l7.46-4.31l7.46,4.31L2696.96,10311.04z"/>
				<path id="Path_129" class="st21" d="M2704.42,10332.58l-7.46-4.31l7.46-4.31l7.46,4.31L2704.42,10332.58z"/>
				<path id="Path_130" class="st22" d="M2719.34,10332.58l-7.46-4.31l7.46-4.31l7.46,4.31L2719.34,10332.58z"/>
				<path id="Path_131" class="st3" d="M2702.63,10302.34l-0.11-0.06c-0.41-0.24-0.36-0.65,0.11-0.92l5.82-3.36
					c0.49-0.27,1.08-0.3,1.59-0.06l0.11,0.06c0.41,0.24,0.36,0.64-0.11,0.92l-5.82,3.36
					C2703.73,10302.54,2703.14,10302.57,2702.63,10302.34z"/>
				<path id="Path_132" class="st3" d="M2722.17,10313.62l-0.11-0.06c-0.41-0.24-0.36-0.65,0.11-0.92l5.82-3.36
					c0.49-0.27,1.08-0.3,1.59-0.07l0.11,0.06c0.41,0.24,0.36,0.64-0.11,0.92l-5.82,3.36
					C2723.27,10313.83,2722.68,10313.85,2722.17,10313.62z"/>
				<path id="Path_133" class="st3" d="M2741.71,10324.9l-0.11-0.06c-0.41-0.24-0.36-0.65,0.11-0.92l5.82-3.36
					c0.49-0.27,1.08-0.3,1.59-0.07l0.11,0.06c0.41,0.24,0.36,0.64-0.11,0.92l-5.82,3.36
					C2742.81,10325.11,2742.22,10325.13,2741.71,10324.9z"/>
			</g>
			<g id="Group_59">
				<path id="Path_134" class="st23" d="M2830.49,10419.92l39.52-24.98l-109.55-66.5L2830.49,10419.92z"/>
				<path id="Path_135" class="st6" d="M2830.49,10419.92l-119.84-71.71v-87.38l119.84,69.19L2830.49,10419.92z"/>
				<path id="Path_136" class="st23" d="M2824.75,10423.13l-119.84-69.19v-87.38l119.84,69.19V10423.13z"/>
				<path id="Path_137" class="st6" d="M2710.65,10260.83l-5.73,5.73l10.81,6.24"/>
				<path id="Path_138" class="st6" d="M2824.75,10407.79v15.34l5.73-3.21L2824.75,10407.79z"/>
			</g>
			<path id="Path_139" class="st8" d="M2948.44,10255.25c1.18-12.14-7.53-9.63-14.66-8.46c-0.93,0.88-1.81,1.8-2.65,2.76
				c-10.32,14.28-26.15,51.15-30.12,68.61c-2.95,12.98-17.91,31.93-38.21,32.61c-16.88,0.57-9.34,3.38-9.34,8.18v5.65
				c0,6.62-2.42,9.06,4.2,9.15c23.13,0.33,54.93-17.1,59.76-29.43C2927.34,10318.98,2945.35,10287.12,2948.44,10255.25z"/>
			<g id="Group_60">
				<path id="Path_140" class="st4" d="M2901.99,10260.08v16.79l1.97-1.97l2.67,2.67v-15.39L2901.99,10260.08z"/>
				<path id="Path_141" class="st5" d="M2900.48,10258.56v16.79l1.97-1.96l2.67,2.67v-15.39L2900.48,10258.56z"/>
				
					<ellipse id="Ellipse_32" transform="matrix(0.9725 -0.2331 0.2331 0.9725 -2310.541 959.5505)" class="st24" cx="2904.4" cy="10255.22" rx="7.39" ry="8.77"/>
				
					<ellipse id="Ellipse_33" transform="matrix(0.9725 -0.2331 0.2331 0.9725 -2310.5837 959.1879)" class="st9" cx="2902.84" cy="10255.22" rx="7.39" ry="8.77"/>
				<text transform="matrix(1 0 0 1 2897.0217 10255.2578)" class="st25"><tspan x="0" y="0" class="st8 st1 st26">#</tspan><tspan x="7.07" y="0" class="st8 st1 st26">1</tspan></text>
			</g>
			<g id="Group_61">
				<circle id="Ellipse_34" class="st9" cx="2850.87" cy="10365.59" r="13.54"/>
				<path id="Rectangle_15" class="st9" d="M2843.06,10366.69l0.21,0.43c0.84,1.72,0.13,3.79-1.59,4.63l-10.47,5.11
					c-1.72,0.84-3.79,0.13-4.63-1.59l-0.21-0.43c-0.84-1.72-0.13-3.79,1.59-4.63l10.47-5.11
					C2840.14,10364.26,2842.22,10364.97,2843.06,10366.69z"/>
				<path id="Rectangle_16" class="st9" d="M2848.75,10370.29l0.21,0.43c0.84,1.72,0.13,3.79-1.59,4.63l-10.46,5.1
					c-1.72,0.84-3.79,0.12-4.63-1.59l-0.21-0.43c-0.84-1.72-0.13-3.79,1.59-4.63l10.46-5.11
					C2845.83,10367.86,2847.91,10368.57,2848.75,10370.29z"/>
				<path id="Rectangle_17" class="st9" d="M2854.44,10373.89l0.21,0.43c0.84,1.72,0.13,3.79-1.59,4.63l-10.46,5.1
					c-1.72,0.84-3.79,0.13-4.63-1.59l-0.21-0.43c-0.84-1.72-0.13-3.79,1.59-4.63l10.46-5.11
					C2851.52,10371.46,2853.6,10372.17,2854.44,10373.89z"/>
				<path id="Path_142" class="st9" d="M2830.66,10359.96L2830.66,10359.96c0.18-2.04,1.98-3.54,4.02-3.36l0,0l3.92,0.19
					c2.04,0.18,3.54,1.98,3.36,4.02l0,0c-0.18,2.04-1.98,3.54-4.01,3.36c0,0,0,0,0,0l-3.92-0.2
					C2831.99,10363.79,2830.48,10362,2830.66,10359.96z"/>
				<path id="Path_143" class="st9" d="M2827.06,10365.26L2827.06,10365.26c-1.18-1.67-0.77-3.98,0.9-5.16l3.12-2.38
					c1.67-1.18,3.98-0.77,5.16,0.9c0,0,0,0,0,0l0,0c1.18,1.67,0.77,3.98-0.9,5.16l-3.12,2.38
					C2830.54,10367.33,2828.23,10366.93,2827.06,10365.26z"/>
				<path id="Path_144" class="st9" d="M2834.36,10352.39L2834.36,10352.39c0.94-1.81,3.18-2.52,4.99-1.57l3.55,1.68
					c1.81,0.94,2.52,3.18,1.57,4.99l0,0l0,0c-0.94,1.81-3.18,2.52-4.99,1.57c0,0,0,0,0,0l-3.55-1.68
					C2834.12,10356.44,2833.42,10354.21,2834.36,10352.39C2834.36,10352.4,2834.36,10352.39,2834.36,10352.39z"/>
			</g>
		</g>
		<path id="Path_145" class="st9" d="M2808.65,10152.65l2.2,6.78h7.12l-5.76,4.19l2.2,6.77l-5.76-4.19l-5.76,4.19l2.2-6.77
			l-5.76-4.19h7.12L2808.65,10152.65z"/>
		<path id="Path_146" class="st9" d="M2939.69,10106.49l4.4,13.55h14.25l-11.53,8.37l4.4,13.55l-11.53-8.37l-11.53,8.37l4.4-13.55
			l-11.53-8.37h14.25L2939.69,10106.49z"/>
		<path id="Path_147" class="st9" d="M2953.32,10175.56l1.65,5.08h5.34l-4.32,3.14l1.65,5.08l-4.32-3.14l-4.32,3.14l1.65-5.08
			l-4.32-3.14h5.34L2953.32,10175.56z"/>
		<path id="Path_148" class="st8" d="M2864.7,10183.13l1.65,5.08h5.34l-4.32,3.14l1.65,5.08l-4.32-3.14l-4.32,3.14l1.65-5.08
			l-4.32-3.14h5.34L2864.7,10183.13z"/>
		<path id="Path_149" class="st8" d="M2889.7,10186.92l1.65,5.08h5.34l-4.32,3.14l1.65,5.08l-4.32-3.14l-4.32,3.14l1.65-5.08
			l-4.32-3.14h5.34L2889.7,10186.92z"/>
	</g>
</g>
</svg>
