<?xml version="1.0" encoding="utf-8"?>
<!-- Generator: Adobe Illustrator 25.2.0, SVG Export Plug-In . SVG Version: 6.00 Build 0)  -->
<svg version="1.1" id="Layer_1" xmlns="http://www.w3.org/2000/svg" xmlns:xlink="http://www.w3.org/1999/xlink" x="0px" y="0px"
	 viewBox="0 0 776 443.89" style="enable-background:new 0 0 776 443.89;" xml:space="preserve">
<style type="text/css">
	.st0{fill:#FFD41F;}
	.st1{font-family:'CircularStd-Bold';}
	.st2{font-size:365.8136px;}
	.st3{fill:#6666DF;}
	.st4{fill:#FC153B;}
	.st5{clip-path:url(#SVGID_2_);}
	.st6{fill:#F2F2F2;}
	.st7{fill:#29ABE2;}
	.st8{fill:#F7DD6F;}
	.st9{clip-path:url(#SVGID_4_);}
	.st10{fill:#333333;}
	.st11{fill:#FCDA3B;}
	.st12{fill:#FFFFFF;stroke:#FC153B;stroke-width:1.616;stroke-miterlimit:10;}
	.st13{fill:none;stroke:#F2F2F2;stroke-width:0.894;stroke-linecap:round;stroke-linejoin:round;}
	.st14{fill:#FFFFFF;}
	.st15{fill:#FFDE14;}
	.st16{fill:#FDBC2C;}
	.st17{fill:none;stroke:#1B1464;stroke-width:2.68;stroke-miterlimit:10;}
	.st18{fill:none;stroke:#FCDA3B;stroke-width:1.616;stroke-miterlimit:10;}
	.st19{fill:none;stroke:#FC153B;stroke-width:1.616;stroke-miterlimit:10;}
	.st20{clip-path:url(#SVGID_6_);}
	.st21{clip-path:url(#SVGID_8_);}
</style>
<g>
	<text transform="matrix(1 0 0 1 0 330.2355)" class="st0 st1 st2">06</text>
	<g id="Group_24" transform="translate(-256.093 -10090.74)">
		<path id="Path_3" class="st3" d="M697.95,10111.49c0,0-7.08-16.11-22.58-10.71c-15.5,5.4-24.17,34.92-19.84,55.56
			s0.28,30.65-3.94,28.91c-4.22-1.73,22.41,10.17,37.65-1.73S697.95,10111.49,697.95,10111.49z"/>
		<path id="Path_4" class="st4" d="M755.3,10459.08l29.3,14.33c0,0,6.15,15.58,4.28,21.2c-1.87,5.61-67.04-8.05-67.04-8.05
			s-2.07-19.63,2.47-26.86C728.86,10452.47,755.3,10459.08,755.3,10459.08z"/>
		<g id="Group_4">
			<g>
				<defs>
					<path id="SVGID_1_" d="M755.3,10459.08l29.3,14.33c0,0,6.15,15.58,4.28,21.2c-1.87,5.61-67.04-8.05-67.04-8.05
						s-2.07-19.63,2.47-26.86C728.86,10452.47,755.3,10459.08,755.3,10459.08z"/>
				</defs>
				<clipPath id="SVGID_2_">
					<use xlink:href="#SVGID_1_"  style="overflow:visible;"/>
				</clipPath>
				<g id="Group_3" class="st5">
					<path id="Path_5" class="st6" d="M789.98,10496.79c0,0,0.48-12.02-3.07-13.27c-3.55-1.24-10.82,7.27-20.04,6.74
						s-45.4-8.86-45.4-8.86l-0.74,5.15c0,0,52.87,13.38,66.45,11.59L789.98,10496.79z"/>
					<path id="Path_6" class="st6" d="M780.8,10475.9L780.8,10475.9c1.58-3.48,0.03-7.59-3.46-9.16c0,0,0,0,0,0l-23.22-10.49
						l-14.72,5.56l32.24,17.56C775.13,10480.93,779.23,10479.39,780.8,10475.9z"/>
				</g>
			</g>
		</g>
		<path id="Path_8" class="st7" d="M737.62,10289.92c0,0,53.12,85.85,46.36,97.12s-27.05,58.04-27.61,71.56
			c-0.56,13.52-36.17,5.07-36.17,5.07l26.65-81.14l-40.95-64.8L737.62,10289.92z"/>
		<path id="Path_9" class="st8" d="M720.08,10182.23c-1.1-11.38,7.06-9.03,13.74-7.93c0.16,0.03,2.39,2.46,2.48,2.59
			c9.67,13.39,15.04,47.96,18.76,64.32c2.76,12.17,9.5,18.27,28.54,18.91c6.11,0.21,10.94-1.36,10.94,4.75v5.3
			c0,6.2,2.27,8.49-3.93,8.58c-21.69,0.31-48.41-0.86-50.92-13.02C736.59,10250.74,722.98,10212.11,720.08,10182.23z"/>
		<path id="Path_10" class="st4" d="M719.62,10475.98c0,0,26.71,23.59,25.64,30.06c-1.08,6.47-0.08,24.79-25.64,14.01
			c-25.56-10.78-34.72-27.48-34.72-27.48v-11.92L719.62,10475.98z"/>
		<g id="Group_6">
			<g>
				<defs>
					<path id="SVGID_3_" d="M719.62,10475.98c0,0,26.71,23.59,25.64,30.06c-1.08,6.47-0.08,24.79-25.64,14.01
						c-25.56-10.78-34.72-27.48-34.72-27.48v-11.92L719.62,10475.98z"/>
				</defs>
				<clipPath id="SVGID_4_">
					<use xlink:href="#SVGID_3_"  style="overflow:visible;"/>
				</clipPath>
				<g id="Group_5" class="st9">
					<path id="Path_11" class="st6" d="M723,10516.38c7.45,1.6,11.17-8.87,15.43-9.22c1.67-0.14,2.84,1.08,3.65,2.61l0,0
						c0,0,2.91,0.94,4.33-1.01s-2.68,6.49-2.68,6.49c-1.33,10.95-15.25,7.64-15.25,7.64c-30.88-1.82-43.56-30.33-43.56-30.33v-3.31
						C684.91,10489.25,715.55,10514.78,723,10516.38z"/>
					<path id="Path_12" class="st6" d="M734.65,10499.41L734.65,10499.41c2.7-2.7,2.7-7.09,0-9.79l-18.02-18.02l-14.15,4.38
						l22.38,23.43C727.56,10502.11,731.95,10502.11,734.65,10499.41z"/>
				</g>
			</g>
		</g>
		<path id="Path_14" class="st7" d="M707.42,10313.34c0,0,15.89,160.59,14.3,163.97c-1.59,3.38-25.97,11.83-37.8,6.76l-17.47-165.66
			L707.42,10313.34z"/>
		<path id="Path_15" class="st3" d="M654.45,10257.88"/>
		<path id="Path_16" class="st10" d="M732.93,10179.59l15.16,23.9c4.55,9.57,1.41,18.45-2.86,28.15l-4.56,25.69
			c-1.35,4.41-1.15,9.14,0.56,13.42l4.57,31.8c0.29,3.53,0,7.68-5.99,12.14c-9.86,7.35-21.62,23.71-65.62,22.2
			c-9.99-0.34-13.69-8.22-14.15-18.2l10.54-34.25c0.77-4.56,0.7-9.22-0.21-13.75l-8.44-76.27c-0.13-2.67,0.5-5.98,2.96-7.04
			c18.5-7.92,22.45-22.67,63.11-15.06C731.07,10172.92,732.68,10176.48,732.93,10179.59z"/>
		<path id="Path_17" class="st11" d="M694.95,10190.88c0.69,0.08,1.39,0.13,2.09,0.13c13.45-0.46,25.32-6.01,28.29-20.46
			c0.58-2.96,0.28-6.03-0.85-8.83c-1.97-4.97-2.62-10.37-1.87-15.67l1.33-9.43c0-17.85-21.11-25.41-35.61-22.45
			c-7.99,1.63-18.06,4.6-18.06,22.45v1.28c-0.06,9.59,0.97,19.15,3.08,28.51c1.18,5.16,3.48,9.99,6.74,14.16
			C683.09,10184.4,689.92,10189.75,694.95,10190.88z"/>
		<path id="Path_18" class="st12" d="M713.93,10170.43c-0.85,3.46-4.57,14.31-15.95,3.59c-0.26-0.24-0.27-0.64-0.03-0.9
			c0.09-0.09,0.2-0.16,0.32-0.19l14.91-3.27c0.34-0.08,0.68,0.14,0.75,0.48C713.96,10170.24,713.96,10170.34,713.93,10170.43z"/>
		<circle id="Ellipse_7" class="st8" cx="798.95" cy="10266.04" r="14.21"/>
		<g id="Group_21">
			<path id="Rectangle_2" class="st6" d="M809.05,10267.55l-12.58-3.84c-2.61-0.8-4.09-3.57-3.29-6.18l8.63-28.24
				c0.8-2.61,3.56-4.09,6.18-3.29l12.58,3.84c2.61,0.8,4.09,3.56,3.29,6.18l-8.63,28.24
				C814.43,10266.88,811.66,10268.35,809.05,10267.55z"/>
			<path id="Rectangle_3" class="st4" d="M808.4,10264.92l-9.93-3.03c-2.06-0.63-3.23-2.81-2.6-4.88l7.87-25.77
				c0.63-2.06,2.81-3.23,4.88-2.6l9.93,3.03c2.06,0.63,3.23,2.81,2.6,4.88l-7.87,25.77
				C812.65,10264.38,810.47,10265.55,808.4,10264.92z"/>
			<path id="Rectangle_4" class="st6" d="M817.32,10232.64l-8.2-2.5c-0.62-0.19-0.97-0.84-0.78-1.46l0.37-1.2l0,0l10.44,3.19l0,0
				l-0.37,1.2C818.59,10232.48,817.93,10232.83,817.32,10232.64C817.32,10232.64,817.32,10232.64,817.32,10232.64z"/>
			<path id="Path_19" d="M807.34,10242.62l0,2.72l0.27-0.38l0.07-2.75c-0.03-0.01-0.06,0-0.08,0.03L807.34,10242.62z"/>
			<line id="Line_1" class="st13" x1="808.64" y1="10262.98" x2="799.35" y2="10260.15"/>
			<g id="Group_20">
				<g id="Group_13">
					<g id="Group_7">
						<path id="Path_20" class="st14" d="M814.18,10247.94c-0.02,0-0.02-0.02-0.02-0.04c0,0,0,0,0,0l1.15-3.76
							c0-0.01,0-0.03-0.02-0.03c0,0-0.01,0-0.01,0c0,0-0.32,0.1-0.67,0.25c-0.19,0.08-0.38,0.17-0.56,0.27c0,0-0.05,0.02-0.06,0.05
							l-0.87,2.85c-0.1,0.26-0.09,0.54,0.02,0.8c0.18,0.25,0.44,0.43,0.74,0.5l0.41,0.12c0.02,0.01,0.04,0,0.05-0.02l0.25-0.82
							c0.01-0.02-0.01-0.04-0.02-0.05L814.18,10247.94z"/>
					</g>
					<g id="Group_12">
						<g id="Group_10">
							<g id="Group_8">
								<path id="Path_21" class="st15" d="M813.71,10244.74c-0.01-0.02-0.02-0.03-0.03-0.03l-0.96-0.3c-0.02,0-0.04,0-0.05,0.02
									c-0.29,0.45-0.57,0.89-0.87,1.33c-0.23,0.38-0.47,0.77-0.7,1.14c0.02-0.45,0.04-0.89,0.06-1.34c0-0.54,0-1.07-0.01-1.61
									c0-0.02-0.01-0.04-0.03-0.05c-0.34,0.54-0.68,1.08-1.03,1.62c0.01,0.7,0.03,1.4,0.04,2.1c0,0.02,0.01,0.04,0.03,0.05
									l1.21,0.37c0.02,0.01,0.04,0,0.06-0.02c0.78-1.08,1.55-2.16,2.29-3.25C813.72,10244.77,813.72,10244.75,813.71,10244.74z"/>
							</g>
							<g id="Group_9">
								<path id="Path_22" class="st14" d="M811.11,10243.91l-0.07-0.02l0,0l-0.94-0.29h-0.01c-0.02-0.01-0.05,0-0.06,0.02
									c-0.26,0.45-0.53,0.91-0.8,1.36c-0.17,0.3-0.35,0.6-0.52,0.91c0.01-0.35,0.02-0.7,0.04-1.06c0.01-0.53,0.02-1.06,0.03-1.59
									c0-0.02-0.01-0.04-0.03-0.05l-0.93-0.28c-0.02-0.01-0.04,0-0.06,0.02c-0.29,0.45-0.58,0.89-0.87,1.33
									c-0.19,0.3-0.37,0.6-0.55,0.9c0.02-0.35,0.05-0.69,0.08-1.04c0.03-0.52,0.07-1.04,0.11-1.56c0-0.02-0.01-0.04-0.03-0.05
									l-0.99-0.3c-0.01,0-0.03,0-0.04,0.01c-0.01,0.01-0.02,0.02-0.02,0.04c-0.06,1.3-0.08,2.61-0.09,3.92
									c0,0.02,0.01,0.04,0.04,0.05l1.04,0.32c0.02,0.01,0.04,0,0.05-0.02c0.3-0.47,0.6-0.93,0.91-1.4
									c0.15-0.25,0.31-0.49,0.46-0.74c-0.01,0.29-0.02,0.58-0.03,0.87c-0.01,0.56-0.02,1.11-0.02,1.67c0,0.02,0.01,0.04,0.03,0.05
									l1.07,0.33c0.02,0.01,0.04,0,0.06-0.02c0.37-0.59,0.75-1.17,1.12-1.76v0.01C810.43,10245,810.77,10244.46,811.11,10243.91
									L811.11,10243.91z"/>
							</g>
						</g>
						<g id="Group_11">
							<path id="Path_23" class="st16" d="M811.15,10244.3l-1.06,1.56l-0.01-0.33l1.03-1.62c0.02,0.01,0.03,0.03,0.03,0.05V10244.3z
								"/>
						</g>
					</g>
					<path id="Path_24" class="st14" d="M804.66,10244.67c0.1-0.38,0.08-0.84-0.72-1.41l-0.13-0.09c-0.29-0.2-0.58-0.38-0.52-0.57
						c0.05-0.18,0.27-0.22,0.54-0.15c0.27,0.09,0.5,0.26,0.67,0.48c0.02,0.02,0.06,0.03,0.08,0.01l0.62-0.49
						c0.01-0.01,0.02-0.02,0.02-0.04c0-0.01,0-0.03-0.01-0.04c-0.3-0.38-0.72-0.66-1.19-0.78c-0.88-0.24-1.64,0.04-1.82,0.75
						c-0.13,0.5,0.18,0.95,0.78,1.38l0.11,0.08c0.3,0.21,0.56,0.41,0.51,0.61c-0.05,0.2-0.25,0.26-0.55,0.18l-0.04-0.01
						c-0.32-0.11-0.59-0.32-0.79-0.59c-0.01-0.01-0.02-0.02-0.04-0.02c-0.02,0-0.03,0-0.04,0.01l-0.64,0.52
						c-0.03,0.02-0.03,0.06-0.01,0.08c0.32,0.39,0.75,0.69,1.23,0.84l0.06,0.02C803.75,10245.71,804.47,10245.42,804.66,10244.67z"
						/>
				</g>
				<g id="Group_19">
					<g id="Group_16">
						<g id="Group_15">
							<g id="Group_14">
								<path id="Path_25" class="st14" d="M815.14,10248.52l-0.01-0.08l-0.04-0.01l-0.02,0.07l-0.03-0.01l0.06-0.18l0.08,0.02
									c0.03,0.01,0.05,0.04,0.05,0.07c0,0,0,0,0,0.01c-0.01,0.02-0.03,0.04-0.05,0.04l0.01,0.08L815.14,10248.52z
									 M815.16,10248.36l-0.04-0.01l-0.02,0.05l0.04,0.01c0.01,0.01,0.03,0,0.04-0.01c0,0,0,0,0-0.01
									C815.18,10248.38,815.17,10248.37,815.16,10248.36L815.16,10248.36z"/>
							</g>
						</g>
					</g>
					<g id="Group_18">
						<g id="Group_17">
							<path id="Path_26" class="st14" d="M815.07,10248.61c-0.1-0.03-0.16-0.14-0.13-0.24c0.03-0.1,0.14-0.16,0.24-0.13
								c0.1,0.03,0.16,0.14,0.13,0.24C815.28,10248.58,815.17,10248.64,815.07,10248.61z M815.17,10248.27
								c-0.08-0.03-0.17,0.02-0.2,0.11c-0.03,0.08,0.02,0.17,0.11,0.2c0.08,0.03,0.17-0.02,0.2-0.11c0,0,0,0,0,0
								C815.3,10248.38,815.26,10248.29,815.17,10248.27C815.17,10248.27,815.17,10248.27,815.17,10248.27z"/>
						</g>
					</g>
				</g>
			</g>
		</g>
		<path id="Rectangle_5" class="st11" d="M803.93,10250.77L803.93,10250.77c0.96,1.66,0.39,3.78-1.27,4.74l-9.07,5.24
			c-1.66,0.96-3.78,0.39-4.74-1.27l0,0c-0.96-1.66-0.39-3.78,1.27-4.74l9.07-5.23C800.85,10248.54,802.98,10249.11,803.93,10250.77z
			"/>
		<path id="Path_27" class="st11" d="M813.3,10254.77L813.3,10254.77c1.54-1.14,3.71-0.82,4.85,0.72c0,0,0,0,0,0l2.3,2.87
			c1.14,1.54,0.82,3.71-0.72,4.85c0,0,0,0-0.01,0l0,0c-1.54,1.14-3.71,0.82-4.85-0.72c0,0,0,0,0-0.01l-2.3-2.87
			C811.44,10258.08,811.76,10255.91,813.3,10254.77C813.3,10254.77,813.3,10254.77,813.3,10254.77z"/>
		<path id="Path_28" class="st11" d="M810.26,10259.4L810.26,10259.4c1.54-1.14,3.71-0.82,4.85,0.72l2.3,2.87
			c1.14,1.54,0.82,3.71-0.72,4.85c0,0,0,0,0,0l0,0c-1.54,1.14-3.71,0.82-4.85-0.72c0,0,0,0,0,0l-2.3-2.87
			C808.4,10262.72,808.72,10260.54,810.26,10259.4C810.26,10259.4,810.26,10259.4,810.26,10259.4z"/>
		<path id="Path_29" class="st11" d="M807.22,10264.04L807.22,10264.04c1.54-1.14,3.71-0.82,4.85,0.72c0,0,0,0,0,0l2.3,2.87
			c1.14,1.54,0.82,3.71-0.72,4.85c0,0,0,0,0,0l0,0c-1.54,1.14-3.71,0.82-4.85-0.72c0,0,0,0,0,0l-2.3-2.87
			C805.36,10267.35,805.68,10265.18,807.22,10264.04C807.22,10264.04,807.22,10264.04,807.22,10264.04z"/>
		<path id="Path_30" class="st8" d="M804.18,10268.67L804.18,10268.67c1.54-1.14,3.71-0.82,4.85,0.72c0,0,0,0,0,0l2.3,2.87
			c1.14,1.54,0.82,3.71-0.72,4.85c0,0,0,0,0,0l0,0c-1.54,1.14-3.71,0.82-4.85-0.72c0,0,0,0,0,0l-2.3-2.87
			C802.32,10271.99,802.64,10269.82,804.18,10268.67C804.18,10268.68,804.18,10268.68,804.18,10268.67z"/>
		<g id="Group_22">
			<circle id="Ellipse_8" class="st8" cx="659.37" cy="10340.33" r="12.7"/>
			<path id="Rectangle_6" class="st8" d="M652.24,10342.07L652.24,10342.07c0.96,1.66,0.39,3.78-1.27,4.74l-9.07,5.24
				c-1.66,0.96-3.78,0.39-4.74-1.27l0,0c-0.96-1.66-0.39-3.78,1.27-4.74l9.07-5.23C649.16,10339.84,651.29,10340.41,652.24,10342.07
				z"/>
			<path id="Rectangle_7" class="st8" d="M657.8,10345.06L657.8,10345.06c0.96,1.66,0.39,3.78-1.27,4.74l-9.07,5.24
				c-1.66,0.96-3.78,0.39-4.74-1.27l0,0c-0.96-1.66-0.39-3.78,1.27-4.74l9.07-5.23C654.72,10342.84,656.84,10343.41,657.8,10345.06z
				"/>
			<path id="Rectangle_8" class="st8" d="M663.36,10348.06L663.36,10348.06c0.96,1.66,0.39,3.78-1.27,4.74l-9.07,5.24
				c-1.66,0.96-3.78,0.39-4.74-1.27l0,0c-0.96-1.66-0.39-3.78,1.27-4.74l9.07-5.23C660.28,10345.83,662.4,10346.4,663.36,10348.06z"
				/>
			<path id="Path_31" class="st8" d="M664.89,10345.99L664.89,10345.99c1.54-1.14,3.71-0.82,4.85,0.72c0,0,0,0,0,0l2.3,2.87
				c1.14,1.54,0.82,3.71-0.72,4.85c0,0,0,0,0,0l0,0c-1.54,1.14-3.71,0.82-4.85-0.72c0,0,0,0,0,0l-2.3-2.87
				C663.03,10349.31,663.35,10347.14,664.89,10345.99C664.89,10346,664.89,10345.99,664.89,10345.99z"/>
			<path id="Path_32" class="st8" d="M674.21,10191.05c2.83,2.22,5.26,7.97,6.89,13.18c1.59,5.12,2.09,10.53,1.46,15.86l-6.98,61.62
				c-0.23,2.16-0.29,4.33-0.19,6.49c0.28,7.23-1.35,14.51-1.89,21.75l-3.39,27.56c0,9.84-17.89,5.26-18.09,0.4l2.32-33.22
				c0.42-12.62-2.08-38.03-2.07-39.79l3.81-62.83C655.65,10190.79,665.34,10184.08,674.21,10191.05z"/>
		</g>
		<path id="Path_33" class="st3" d="M708.66,10144.05c0,0-18.6,29.97-43.4,28.03c0,0,1.52-18.63,3.47-34.93
			c0.94-7.8,3.4-15.69,9.67-19.94c17.5-11.87,34.81-2.91,40.85,5.33c6.04,8.24,7.63,11.44,4.69,18.46
			S708.66,10144.05,708.66,10144.05z"/>
		<g id="Group_23">
			
				<ellipse id="Ellipse_9" transform="matrix(0.9893 -0.1457 0.1457 0.9893 -1472.4895 213.0748)" class="st17" cx="718.17" cy="10157.5" rx="8.39" ry="7.98"/>
			
				<ellipse id="Ellipse_10" transform="matrix(0.9893 -0.1457 0.1457 0.9893 -1473.26 209.6184)" class="st17" cx="694.19" cy="10161.03" rx="8.39" ry="7.98"/>
			<path id="Path_34" class="st17" d="M699.72,10160.22l2.77-0.41c3.17-4.05,7.38-1.09,7.38-1.09l2.77-0.41"/>
		</g>
		<line id="Line_2" class="st18" x1="682.89" y1="10132.49" x2="675.37" y2="10140.16"/>
		<line id="Line_3" class="st19" x1="679.53" y1="10131.49" x2="677.82" y2="10141.83"/>
	</g>
	<g id="Group_43" transform="translate(-256.093 -10090.74)">
		<circle id="Ellipse_11" class="st3" cx="893.94" cy="10322.06" r="12.7"/>
		<path id="Path_35" class="st3" d="M901.8,10321.16L901.8,10321.16c1.54-1.14,3.71-0.82,4.85,0.72c0,0,0,0,0,0l2.3,2.87
			c1.14,1.54,0.82,3.71-0.72,4.85c0,0,0,0,0,0l0,0c-1.54,1.14-3.71,0.82-4.85-0.72c0,0,0,0,0,0l-2.3-2.87
			C899.94,10324.48,900.26,10322.3,901.8,10321.16C901.8,10321.16,901.8,10321.16,901.8,10321.16z"/>
		<path id="Path_36" class="st3" d="M876.66,10187.82c4.19-6.27,7.23-11.41,12.44-15.49c8.88-6.97,21.85-0.26,21.4,11.02
			c0,0-34.43,75.31-34.52,75.52l19.42,51.98c0.84,1.78,10.3,3.22,8.99,4.69l-13.79,13.55c-1.8,2.01-4.89,2.18-6.9,0.37
			c-0.4-0.35-0.73-0.77-0.99-1.23l-31.68-64.9C845.97,10256.17,875.24,10189.95,876.66,10187.82z"/>
		<path id="Path_37" class="st4" d="M871.2,10457.02l-29.3,14.33c0,0-6.15,15.59-4.28,21.2c1.87,5.61,67.04-8.05,67.04-8.05
			s2.07-19.63-2.47-26.86C897.64,10450.41,871.2,10457.02,871.2,10457.02z"/>
		<g id="Group_26">
			<g>
				<defs>
					<path id="SVGID_5_" d="M871.2,10457.02l-29.3,14.33c0,0-6.15,15.59-4.28,21.2c1.87,5.61,67.04-8.05,67.04-8.05
						s2.07-19.63-2.47-26.86C897.64,10450.41,871.2,10457.02,871.2,10457.02z"/>
				</defs>
				<clipPath id="SVGID_6_">
					<use xlink:href="#SVGID_5_"  style="overflow:visible;"/>
				</clipPath>
				<g id="Group_25" class="st20">
					<path id="Path_38" class="st6" d="M836.52,10494.73c0,0-0.48-12.02,3.07-13.27c3.55-1.24,10.82,7.27,20.04,6.74
						s45.4-8.86,45.4-8.86l0.74,5.15c0,0-52.87,13.38-66.45,11.59L836.52,10494.73z"/>
					<circle id="Ellipse_12" class="st6" cx="895.34" cy="10468.83" r="5.25"/>
				</g>
			</g>
		</g>
		<path id="Path_40" class="st4" d="M910.16,10478.3c0,0-26.71,23.59-25.64,30.06c1.08,6.47,0.08,24.79,25.64,14.01
			c25.56-10.78,34.72-27.48,34.72-27.48v-11.92L910.16,10478.3z"/>
		<g id="Group_28">
			<g>
				<defs>
					<path id="SVGID_7_" d="M910.16,10478.3c0,0-26.71,23.59-25.64,30.06c1.08,6.47,0.08,24.79,25.64,14.01
						c25.56-10.78,34.72-27.48,34.72-27.48v-11.92L910.16,10478.3z"/>
				</defs>
				<clipPath id="SVGID_8_">
					<use xlink:href="#SVGID_7_"  style="overflow:visible;"/>
				</clipPath>
				<g id="Group_27" class="st21">
					<path id="Path_41" class="st6" d="M906.79,10518.71c-7.45,1.6-11.17-8.87-15.43-9.22c-1.67-0.14-2.84,1.08-3.65,2.61l0,0
						c0,0-2.91,0.94-4.33-1.01s2.68,6.49,2.68,6.49c1.33,10.94,15.25,7.64,15.25,7.64c30.88-1.82,43.56-30.33,43.56-30.33v-3.31
						C944.88,10491.58,914.24,10517.11,906.79,10518.71z"/>
					<ellipse id="Ellipse_13" class="st6" cx="940.15" cy="10485.24" rx="2.08" ry="5.21"/>
				</g>
			</g>
		</g>
		<path id="Path_43" class="st10" d="M887.35,10283.47c0,0-53.12,85.85-46.36,97.12s27.05,58.04,27.61,71.56
			c0.56,13.52,36.17,5.07,36.17,5.07l-18.97-81.14l33.27-64.8L887.35,10283.47z"/>
		<path id="Path_44" class="st10" d="M919.08,10311.28c0,0-15.89,160.59-14.3,163.97c1.59,3.38,31.45,11.83,43.28,6.76l17.47-165.66
			L919.08,10311.28z"/>
		<path id="Path_45" class="st3" d="M972.05,10255.82"/>
		<path id="Path_46" class="st4" d="M894.96,10224.53c2.25-13.71,4.03-37.62,5.1-48.75c0.28-2.92,0.16-6.73-2.83-8.24
			c-2.93-1.48-6.76-1.47-9.94-1.12c-0.26,0.03-0.52,0.08-0.76,0.17c-6.74,2.27-20.62,34.39-24.75,50.28L894.96,10224.53z"/>
		<path id="Path_47" class="st4" d="M887.48,10179.19l-9.34,114.5c-0.39,4.58,0.94,9.15,3.72,12.81
			c7.8,10.19,27.36,28.64,66.78,28.42c12-0.11,21.82-9.59,22.36-21.58l5.46-116.64c0.14-2.91-0.75-5.77-2.52-8.09
			c-8.63-11.3-37.38-42.18-80.07-19.28C890.21,10171.32,887.8,10175.03,887.48,10179.19z"/>
		<path id="Path_48" class="st3" d="M930.36,10190.75c-3.71,1.1-7.64,1.17-11.38,0.2c-3.65-0.86-7.15-2.27-10.38-4.18
			c-5.95-3.59-10.41-9.21-11.83-16.09c-0.58-2.96-0.28-6.03,0.85-8.83c1.98-4.97,2.62-10.38,1.87-15.67l-1.33-9.43
			c0-17.85,14.47-32.32,32.32-32.32c0,0,0,0,0,0c17.85,0,21.35,14.47,21.35,32.32v1.28c0,9.22,1.22,18.54-0.7,27.66
			c-2.14,10.16-8.79,17.71-17.34,23.43C932.75,10189.84,931.59,10190.39,930.36,10190.75z"/>
		<path id="Path_49" class="st14" d="M908.18,10168.37c0.85,3.46,4.57,14.31,15.95,3.59c0.26-0.24,0.27-0.64,0.03-0.9
			c-0.09-0.09-0.2-0.16-0.32-0.19l-14.91-3.27c-0.34-0.08-0.68,0.14-0.75,0.48C908.15,10168.18,908.15,10168.28,908.18,10168.37z"/>
		<path id="Path_50" class="st10" d="M952.15,10134.63c-0.26-9.38,0.72-30.57-22.03-30.46c-2.86,0.01-5.46-0.26-8.32,0
			c-24.57,2.22-24.18,13.66-25.62,33.79C896.19,10137.96,952.22,10136.94,952.15,10134.63z"/>
		<path id="Path_51" class="st10" d="M899.06,10134.87c0,0-15.93,11.87-16.61,13.26c-0.85,1.77,15.86-7.13,44.98,0.07
			c0.76,0.19,1.57,0.04,2.21-0.4l16.45-11.78C946.09,10136.02,910.59,10129.03,899.06,10134.87z"/>
		<circle id="Ellipse_14" class="st3" cx="973.51" cy="10343.48" r="12.7"/>
		<path id="Path_52" class="st3" d="M965.65,10342.58L965.65,10342.58c-1.54-1.14-3.71-0.82-4.85,0.72c0,0,0,0,0,0l-2.3,2.87
			c-1.14,1.54-0.82,3.71,0.72,4.85c0,0,0,0,0,0l0,0c1.54,1.14,3.71,0.82,4.85-0.72c0,0,0,0,0,0l2.3-2.87
			C967.51,10345.89,967.19,10343.72,965.65,10342.58C965.65,10342.58,965.65,10342.58,965.65,10342.58z"/>
		<path id="Path_53" class="st3" d="M990.79,10209.24c-4.19-6.27-7.23-11.4-12.44-15.49c-8.88-6.97-21.85-0.26-21.4,11.02
			c0,0,34.43,75.31,34.52,75.52l-19.42,51.98c-0.84,1.78-10.3,3.22-8.99,4.69l13.79,13.55c1.8,2.01,4.89,2.18,6.9,0.37
			c0.4-0.35,0.73-0.77,0.99-1.24l31.68-64.9C1021.48,10277.59,992.21,10211.37,990.79,10209.24z"/>
		<path id="Path_54" class="st4" d="M966.36,10264.3l44.58-12.06c-7.38-19.97-19.34-41.79-20.14-43
			c-4.19-6.27-7.23-11.4-12.44-15.49c-8.88-6.97-21.85-0.26-21.4,11.02L966.36,10264.3z"/>
		<g id="Group_42">
			<g id="Group_35">
				<g id="Group_29">
					<path id="Path_55" class="st14" d="M953.9,10222.87c-0.02-0.01-0.04-0.04-0.04-0.07v-6.06c0-0.03-0.03-0.06-0.05-0.06
						c-0.26,0.06-0.51,0.14-0.75,0.23c-0.21,0.08-0.41,0.18-0.61,0.29c0,0-0.05,0.02-0.05,0.07v4.59c-0.01,0.47,0.11,0.94,0.33,1.36
						c0.28,0.44,0.68,0.81,1.14,1.06l0.58,0.33c0.03,0.02,0.05,0,0.05-0.03v-1.32c0-0.03-0.02-0.06-0.05-0.08L953.9,10222.87z"/>
				</g>
				<g id="Group_34">
					<g id="Group_32">
						<g id="Group_30">
							<path id="Path_56" class="st15" d="M952.06,10217.3c-0.01-0.03-0.03-0.05-0.05-0.06c-0.45-0.26-0.9-0.52-1.34-0.78
								c-0.03-0.02-0.05-0.01-0.06,0.02c-0.19,0.67-0.39,1.34-0.59,2.01c-0.15,0.58-0.3,1.16-0.45,1.74
								c-0.14-0.75-0.29-1.5-0.44-2.26c-0.21-0.91-0.42-1.82-0.64-2.73c-0.01-0.04-0.03-0.07-0.06-0.09
								c-0.22,0.82-0.45,1.64-0.68,2.46c0.29,1.2,0.58,2.39,0.86,3.58c0.01,0.04,0.03,0.07,0.06,0.09c0.56,0.32,1.13,0.65,1.69,0.97
								c0.03,0.02,0.05,0.01,0.06-0.02c0.58-1.61,1.14-3.23,1.65-4.87C952.08,10217.35,952.07,10217.32,952.06,10217.3z"/>
						</g>
						<g id="Group_31">
							<path id="Path_57" class="st14" d="M948.42,10215.16l-0.09-0.05l0,0c-0.43-0.25-0.87-0.5-1.31-0.75l-0.01,0
								c-0.03-0.02-0.06-0.01-0.06,0.02c-0.16,0.69-0.33,1.38-0.49,2.08l-0.31,1.4c-0.12-0.59-0.24-1.19-0.37-1.78
								c-0.2-0.9-0.39-1.8-0.58-2.7c-0.01-0.04-0.03-0.07-0.06-0.09l-1.29-0.75c-0.03-0.02-0.06-0.01-0.06,0.02
								c-0.2,0.67-0.4,1.34-0.59,2.02c-0.12,0.45-0.24,0.91-0.36,1.36c-0.1-0.58-0.21-1.16-0.31-1.74
								c-0.16-0.88-0.32-1.75-0.47-2.62c-0.01-0.04-0.03-0.07-0.06-0.09c-0.46-0.26-0.91-0.53-1.37-0.79
								c-0.02-0.01-0.04-0.01-0.05,0c-0.01,0.02-0.02,0.04-0.01,0.06c0.43,2.19,0.91,4.4,1.41,6.63c0.01,0.04,0.03,0.07,0.06,0.09
								l1.46,0.84c0.03,0.02,0.05,0.01,0.06-0.02c0.2-0.71,0.4-1.42,0.6-2.12c0.1-0.38,0.2-0.74,0.3-1.12
								c0.1,0.49,0.2,0.97,0.31,1.47c0.21,0.94,0.41,1.89,0.62,2.83c0.01,0.04,0.03,0.07,0.06,0.09l1.49,0.86
								c0.03,0.02,0.06,0.01,0.06-0.02c0.25-0.89,0.49-1.78,0.74-2.66v0.01C947.97,10216.81,948.19,10215.98,948.42,10215.16
								L948.42,10215.16z"/>
						</g>
					</g>
					<g id="Group_33">
						<path id="Path_58" class="st16" d="M948.61,10215.82l-0.74,2.35l-0.13-0.56l0.69-2.45c0.03,0.02,0.05,0.06,0.06,0.09
							L948.61,10215.82z"/>
					</g>
				</g>
				<path id="Path_59" class="st14" d="M940.48,10214.59c-0.02-0.62-0.22-1.41-1.47-2.59l-0.2-0.19c-0.45-0.42-0.88-0.8-0.89-1.11
					c-0.01-0.29,0.26-0.29,0.63-0.1c0.42,0.26,0.77,0.61,1.04,1.02c0.04,0.05,0.08,0.06,0.11,0.04l0.61-0.65
					c0.01-0.02,0.02-0.04,0.01-0.06c0-0.03-0.02-0.05-0.03-0.08c-0.48-0.68-1.1-1.25-1.82-1.67c-1.21-0.66-2.08-0.41-2.03,0.76
					c0.17,1.02,0.72,1.93,1.53,2.57c0.06,0.06,0.12,0.12,0.18,0.17c0.46,0.45,0.87,0.86,0.88,1.19c0.01,0.31-0.22,0.37-0.63,0.15
					l-0.05-0.03c-0.49-0.32-0.91-0.74-1.23-1.23c-0.01-0.02-0.04-0.04-0.06-0.05c-0.02-0.01-0.04,0-0.05,0.01l-0.61,0.7
					c-0.02,0.04-0.02,0.1,0.02,0.14c0.51,0.71,1.15,1.32,1.9,1.78c0.03,0.02,0.06,0.03,0.08,0.05
					C939.72,10216.1,940.53,10215.82,940.48,10214.59z"/>
			</g>
			<g id="Group_41">
				<g id="Group_38">
					<g id="Group_37">
						<g id="Group_36">
							<path id="Path_60" class="st14" d="M955.35,10224.13l-0.04-0.13l-0.06-0.03v0.11l-0.05-0.03v-0.29l0.11,0.06
								c0.05,0.03,0.09,0.08,0.09,0.14c0,0.04-0.02,0.06-0.05,0.05l0.05,0.15L955.35,10224.13z M955.31,10223.87l-0.06-0.03v0.09
								l0.06,0.03c0.03,0.02,0.04,0.01,0.04-0.02C955.36,10223.91,955.34,10223.88,955.31,10223.87L955.31,10223.87z"/>
						</g>
					</g>
				</g>
				<g id="Group_40">
					<g id="Group_39">
						<path id="Path_61" class="st14" d="M955.3,10224.25c-0.15-0.1-0.25-0.27-0.26-0.45c0-0.16,0.12-0.23,0.26-0.15
							c0.15,0.1,0.25,0.27,0.26,0.45C955.56,10224.27,955.44,10224.34,955.3,10224.25z M955.3,10223.71
							c-0.12-0.07-0.21-0.01-0.21,0.12c0.01,0.15,0.09,0.29,0.21,0.37c0.12,0.07,0.21,0.01,0.21-0.12
							C955.5,10223.93,955.42,10223.79,955.3,10223.71z"/>
					</g>
				</g>
			</g>
		</g>
	</g>
</g>
</svg>
