<?xml version="1.0" encoding="utf-8"?>
<!-- Generator: Adobe Illustrator 25.2.0, SVG Export Plug-In . SVG Version: 6.00 Build 0)  -->
<svg version="1.1" id="Layer_1" xmlns="http://www.w3.org/2000/svg" xmlns:xlink="http://www.w3.org/1999/xlink" x="0px" y="0px"
	 viewBox="0 0 869.18 590.81" style="enable-background:new 0 0 869.18 590.81;" xml:space="preserve">
<style type="text/css">
	.st0{fill:#FFD41F;}
	.st1{font-family:'CircularStd-Bold';}
	.st2{font-size:444.556px;}
	.st3{opacity:0.34;}
	.st4{fill:#4B4F3E;}
	.st5{fill:#FDC903;}
	.st6{fill:#EEBF04;}
	.st7{fill:#FDDF1A;}
	.st8{opacity:0.53;fill:#1B1464;enable-background:new    ;}
	.st9{fill:#333333;}
	.st10{fill:#FC153B;}
	.st11{fill:#FFFFFF;}
	.st12{fill:#E6E6E6;}
	.st13{fill:none;stroke:#CCCCCC;stroke-width:2.747;stroke-miterlimit:10;}
	.st14{opacity:0.53;}
	.st15{clip-path:url(#SVGID_2_);}
	.st16{opacity:0.53;fill:#28285B;enable-background:new    ;}
	.st17{fill:none;stroke:#8CBF44;stroke-width:0.5;stroke-miterlimit:10;}
	.st18{fill:none;stroke:#7CB228;stroke-width:0.5;stroke-miterlimit:10;}
	.st19{clip-path:url(#SVGID_4_);}
</style>
<g id="Group_549" transform="translate(-4116.535 3716.145)">
	<g id="_03">
		<text transform="matrix(1 0 0 1 4119.9927 -3297.8286)" class="st0 st1 st2">03</text>
	</g>
	<g id="Group_548" transform="translate(-31 55)">
		<g id="Group_520">
			<g id="Group_515" class="st3">
				<path id="Path_861" d="M4973.33-3274.16C4973.39-3274.1,4973.37-3274.11,4973.33-3274.16z"/>
				<path id="Path_862" d="M4973.33-3274.16l-0.06-0.06L4973.33-3274.16z"/>
				<path id="Path_863" d="M4973.08-3274.4l-0.08-0.07L4973.08-3274.4z"/>
				<path id="Path_864" d="M4973.27-3274.22l-0.18-0.18L4973.27-3274.22z"/>
				<path id="Path_865" d="M4921.01-3278.02c-2.06,0.95-4.27,1.52-6.53,1.67c-2.83,0.04-5.61,0.71-8.15,1.95
					c-1.44,0.95-2.81,1.98-4.12,3.1c2.12-1.22,4.59-1.67,7-1.26c4.39,0.57,8.91,1.3,10.89,1.26c3.53-0.04,6.98-1.04,9.98-2.89
					c-3.23,2.9-6.81,5.4-10.65,7.43c-4.16,2.13-8.43,4.05-12.79,5.74c-0.95,0.35-1.88,0.77-2.76,1.27
					c-0.87,0.47,0.13,1.88,1.67,2.51c2.76,0.92,5.69,1.19,8.57,0.8c4.76-0.45,9.42-1.69,13.77-3.67
					c5.36-2.95,10.31-6.61,14.71-10.86c1.1-1.07,3.14-2.75,2.99-2.6c0,0,2.62-2.55,4.53-4.05c2.52,3.58,5.44,6.86,8.71,9.77
					c4.43,3.61,9.43,7.57,16.54,9.28c4.75,1.14,5.25,1.34,8.55,1.55l0,0c1.59,0.29,3.2,0.46,4.82,0.52
					c3.42,0.22,7.74,0.15,9.77-0.84s3.27-2.17,1.38-2.9c-0.66-0.28-1.34-0.53-2.03-0.74c0,0-12.05-1.2-22.93-11.59
					c-0.72-0.69-1.39-1.33-2.01-1.94l0.05,0.05l-0.06-0.06l-0.02-0.01c0.43,0.15,0.88,0.25,1.33,0.32
					c7.72,1.1,17.68-1.31,17.68-1.31c3.06-0.7,5.99-1.91,8.65-3.58c3.67-2.53,2.32-3.33,2.32-3.33c-7.3,1.86-14.47,1.81-23.33,0.25
					c-4.12-0.83-8.15-2.08-12.02-3.75l-5.41-2.44l-1.09-0.79l-0.05-0.07"/>
			</g>
			<g id="Group_517">
				<path id="Path_866" class="st4" d="M4953.15-3311.59c0,0,1.59,2.5,3.03,2.41s3.15-2.68,3.15-2.68s-1.06-2.19-3.09-2.06
					S4953.15-3311.59,4953.15-3311.59z"/>
				<path id="Path_867" class="st5" d="M4947.43-3294.05c0,0-2.96,3.66-10.97,8.29s-11.44,5.74-11.44,5.74
					c-2.06,0.95-4.27,1.52-6.53,1.67c-2.83,0.04-5.61,0.71-8.15,1.95c-1.44,0.95-2.81,1.98-4.12,3.1c2.12-1.22,4.59-1.67,7-1.26
					c4.39,0.57,8.91,1.3,10.89,1.26c3.53-0.04,6.98-1.04,9.98-2.89c4.21-2.61,13.01-13.79,13.01-13.79l1.54-5.64L4947.43-3294.05z"
					/>
				<path id="Path_868" class="st5" d="M4946.85-3273.26c0,0,5.66-3.65,7.28-6.38c2.52,3.58,5.44,6.86,8.71,9.77
					c4.43,3.61,9.43,7.57,16.54,9.28c4.75,1.14,5.25,1.34,8.55,1.55c2.43,0.15-34.27-25.41-34.27-25.41L4946.85-3273.26z"/>
				<path id="Path_869" class="st5" d="M4964.37-3291.28c0,0,10.35,5.53,19.21,7.09s16.03,1.61,23.33-0.25c0,0,1.35,0.8-2.32,3.33
					c-2.66,1.68-5.58,2.89-8.65,3.59c0,0-9.96,2.4-17.68,1.31S4964.37-3291.28,4964.37-3291.28z"/>
				<path id="Path_870" class="st6" d="M4948.08-3295.1c0,0-1.33,2.16-6.26,5.89c0,0-0.47,6.72-7.73,13.01l2.62-0.58l8.1-9.92
					l4.22-9.73L4948.08-3295.1z"/>
				<path id="Path_871" class="st6" d="M4975.86-3276.19l-11.49-14.18l-0.11-0.66v-0.71l1.9,1.37l5.42,2.44
					c0,0,4.16,10.23,5.3,11.33l0,0L4975.86-3276.19z"/>
				<path id="Path_872" class="st7" d="M4953.15-3311.59c0,0,0.3,5.63-3.19,13.18s-7.56,14.93-12.35,19.15s-8.46,7.56-14.17,10.5
					c-4.16,2.13-8.43,4.05-12.79,5.74c-0.95,0.35-1.88,0.77-2.76,1.27c-0.87,0.47,0.13,1.88,1.67,2.51c2.76,0.92,5.69,1.19,8.57,0.8
					c4.76-0.45,9.42-1.69,13.77-3.67c3.74-1.93,10.43-5.7,14.71-10.86c2.77-3.24,5.31-6.68,7.59-10.28c0,0,6.18,8.36,8.68,10.72
					s8.43,8.47,16.68,11.15s9.77,2.65,13.19,2.87s7.74,0.15,9.77-0.84s3.27-2.17,1.38-2.9c-0.66-0.28-1.34-0.53-2.03-0.74
					c0,0-12.05-1.2-22.93-11.59s-10.22-10.88-13.95-16.65s-5.68-20.64-5.68-20.64L4953.15-3311.59z"/>
				<g id="Group_516">
					
						<ellipse id="Ellipse_135" transform="matrix(0.7071 -0.7071 0.7071 0.7071 3772.3931 2548.3794)" class="st5" cx="4962.36" cy="-3279.49" rx="1.01" ry="2.74"/>
					
						<ellipse id="Ellipse_136" transform="matrix(0.7071 -0.7071 0.7071 0.7071 3773.2429 2555.5759)" class="st5" cx="4971.47" cy="-3276.92" rx="1.24" ry="3.44"/>
					
						<ellipse id="Ellipse_137" transform="matrix(0.622 -0.783 0.783 0.622 4438.6284 2659.2395)" class="st5" cx="4973.62" cy="-3267.7" rx="1.12" ry="2.76"/>
					
						<ellipse id="Ellipse_138" transform="matrix(0.5 -0.866 0.866 0.5 5320.6997 2680.2913)" class="st5" cx="4981.55" cy="-3267.72" rx="0.94" ry="2.39"/>
				</g>
			</g>
			<g id="Group_519">
				<path id="Path_873" class="st4" d="M4953.15-3311.59c0,0,1.59,2.5,3.03,2.41s3.15-2.68,3.15-2.68s-1.06-2.19-3.09-2.06
					S4953.15-3311.59,4953.15-3311.59z"/>
				<path id="Path_874" class="st5" d="M4947.43-3294.05c0,0-2.96,3.66-10.97,8.29s-11.44,5.74-11.44,5.74
					c-2.06,0.95-4.27,1.52-6.53,1.67c-2.83,0.04-5.61,0.71-8.15,1.95c-1.44,0.95-2.81,1.98-4.12,3.1c2.12-1.22,4.59-1.67,7-1.26
					c4.39,0.57,8.91,1.3,10.89,1.26c3.53-0.04,6.98-1.04,9.98-2.89c4.21-2.61,13.01-13.79,13.01-13.79l1.54-5.64L4947.43-3294.05z"
					/>
				<path id="Path_875" class="st5" d="M4946.85-3273.26c0,0,5.66-3.65,7.28-6.38c2.52,3.58,5.44,6.86,8.71,9.77
					c4.43,3.61,9.43,7.57,16.54,9.28c4.75,1.14,5.25,1.34,8.55,1.55c2.43,0.15-34.27-25.41-34.27-25.41L4946.85-3273.26z"/>
				<path id="Path_876" class="st5" d="M4964.37-3291.28c0,0,10.35,5.53,19.21,7.09s16.03,1.61,23.33-0.25c0,0,1.35,0.8-2.32,3.33
					c-2.66,1.68-5.58,2.89-8.65,3.59c0,0-9.96,2.4-17.68,1.31S4964.37-3291.28,4964.37-3291.28z"/>
				<path id="Path_877" class="st6" d="M4948.08-3295.1c0,0-1.33,2.16-6.26,5.89c0,0-0.47,6.72-7.73,13.01l2.62-0.58l8.1-9.92
					l4.22-9.73L4948.08-3295.1z"/>
				<path id="Path_878" class="st6" d="M4975.86-3276.19l-11.49-14.18l-0.11-0.66v-0.71l1.9,1.37l5.42,2.44
					c0,0,4.16,10.23,5.3,11.33l0,0L4975.86-3276.19z"/>
				<path id="Path_879" class="st7" d="M4953.15-3311.59c0,0,0.3,5.63-3.19,13.18s-7.56,14.93-12.35,19.15s-8.46,7.56-14.17,10.5
					c-4.16,2.13-8.43,4.05-12.79,5.74c-0.95,0.35-1.88,0.77-2.76,1.27c-0.87,0.47,0.13,1.88,1.67,2.51c2.76,0.92,5.69,1.19,8.57,0.8
					c4.76-0.45,9.42-1.69,13.77-3.67c3.74-1.93,10.43-5.7,14.71-10.86c2.77-3.24,5.31-6.68,7.59-10.28c0,0,6.18,8.36,8.68,10.72
					s8.43,8.47,16.68,11.15s9.77,2.65,13.19,2.87s7.74,0.15,9.77-0.84s3.27-2.17,1.38-2.9c-0.66-0.28-1.34-0.53-2.03-0.74
					c0,0-12.05-1.2-22.93-11.59s-10.22-10.88-13.95-16.65s-5.68-20.64-5.68-20.64L4953.15-3311.59z"/>
				<g id="Group_518">
					
						<ellipse id="Ellipse_139" transform="matrix(0.7071 -0.7071 0.7071 0.7071 3772.3931 2548.3794)" class="st5" cx="4962.36" cy="-3279.49" rx="1.01" ry="2.74"/>
					
						<ellipse id="Ellipse_140" transform="matrix(0.7071 -0.7071 0.7071 0.7071 3773.2429 2555.5759)" class="st5" cx="4971.47" cy="-3276.92" rx="1.24" ry="3.44"/>
					
						<ellipse id="Ellipse_141" transform="matrix(0.622 -0.783 0.783 0.622 4438.6284 2659.2395)" class="st5" cx="4973.62" cy="-3267.7" rx="1.12" ry="2.76"/>
					
						<ellipse id="Ellipse_142" transform="matrix(0.5 -0.866 0.866 0.5 5320.6997 2680.2913)" class="st5" cx="4981.55" cy="-3267.72" rx="0.94" ry="2.39"/>
				</g>
			</g>
		</g>
		<g id="Group_523">
			<path id="Path_880" class="st8" d="M4909.49-3323.48c-1.81-1.04-3.73-1.88-5.73-2.51l-57.77-21.22
				c5.71-5.57,6.36-12.44-0.64-19.72c-11.31-11.75-30.65-12.18-48.34-6.3c-3.5,1.14-6.89,2.6-10.12,4.36l-45.69-16.73
				c8.59-5.98,10.9-13.92,2.7-22.43c-11.31-11.75-30.65-12.18-48.34-6.29c-5.01,1.54-9.75,3.86-14.04,6.87l-14.47-5.3l-8.43,3.06
				l-15.13,5.49l-6.7,2.43l0,0l-65.94,23.92c-8.27,3-9.63,7.62-9.72,10.12c-0.14,0.58-0.09,1.19,0.15,1.74l25.9,35.61
				c3.88,9.47,14.15,18.15,27.38,23.17l134.3,78.49l5.92,2.25l10.39,3.94c11.68,4.5,24.2,6.4,36.69,5.57l74.64-5.94l14.02,1.72
				c0.06,0.01,10.54,1.39,13.26,1.62c2.89,0.41,5.83,0.14,8.59-0.78l4.37-1.59c0,0,25.82,2.29,31.24-11.33
				C4951.34-3241.63,4915.46-3319.98,4909.49-3323.48z M4843.63-3308.11L4843.63-3308.11l4.38,0.21l0,0L4843.63-3308.11z
				 M4751.5-3303.35l-2.56,0.13l-2.58-0.95C4748-3303.55,4749.75-3303.27,4751.5-3303.35L4751.5-3303.35z"/>
			<g id="Group_522">
				<path id="Path_881" class="st9" d="M4916.62-3353.76c0,0,14.02,22.52,0,40.9c-8.61,11.28-118.57,52.73-125.4,50.39
					c-14.38-4.93-25.15-30.84,4.69-45.37C4806.59-3313.03,4916.62-3353.76,4916.62-3353.76z"/>
				<path id="Path_882" class="st10" d="M4577.94-3534.31v114.92c0,2.86,1.41,5.54,3.78,7.16l200.64,137
					c3.95,2.7,9.35,1.68,12.05-2.27c0.98-1.44,1.51-3.14,1.51-4.89v-24.87c10.58-0.87,19.89,9.06,19.89,9.06
					s89.36-30.75,89.83-41.01s10.99-13.38,10.99-13.38v-6.9c0-3.21-0.98-6.35-2.82-8.99l-15.93-22.9l-25.44-77.27
					c-4.02-12.19-12.02-22.68-22.73-29.77l-134.49-89.04c-11.82-7.83-26.76-9.25-39.85-3.81l-87.34,36.32
					c-0.83,0.34-1.56,0.87-2.15,1.53C4582.91-3550.92,4577.94-3545.13,4577.94-3534.31z M4795.64-3313.37l-0.15,0.06
					c-0.16-0.51-0.36-1.01-0.62-1.48L4795.64-3313.37z M4780.98-3340.44L4780.98-3340.44l3.46,6.39L4780.98-3340.44z
					 M4743.26-3437.47l2.27,1.56l26.45,71.41l-25.49-68.82C4745.86-3435.01,4744.73-3436.45,4743.26-3437.47L4743.26-3437.47z"/>
				<path id="Path_883" class="st10" d="M4916.62-3364.42"/>
				<path id="Path_884" class="st11" d="M4747.51-3402.02c0,0-6.75-26.06-12.53-32.25c-4.03-4.32-17.27-12.35-24.16-15.75
					c-6.56-3.23-6.27,38.42-6.27,46.11c0,12.11,27.73,30.01,27.73,30.01s8.4,10.19,10.91-8.11
					C4746.25-3404.38,4747.51-3402.02,4747.51-3402.02z"/>
				<path id="Path_885" class="st9" d="M4713.88-3390.02c0,0,0-14.12,1.41-15.53s9.88-1.41,14.12,0c2.79,0.93,3.13,7.36,3.04,11.65
					h0.01c0,0,0,14.12-1.41,15.53s-9.88,1.41-14.12,0c-2.79-0.93-3.13-7.36-3.04-11.65H4713.88z"/>
				<path id="Path_886" class="st9" d="M4731.46-3382c3.52,2.34,11.72,0,11.72,0v-4.69c-4.69,2.34-11.72,0-11.72,0V-3382z"/>
				<path id="Path_887" class="st9" d="M4732.27-3373.89c12.08-5.76,12.89-29.3,14.06-30.47s15.23,44.53,12.89,45.7
					S4729.91-3372.77,4732.27-3373.89z"/>
				<path id="Path_888" class="st9" d="M4787.81-3264.08l-56.93-39.04l-152.95-105.23v-11.04l209.87,145.96V-3264.08z"/>
				<path id="Path_889" class="st9" d="M4795.92-3299.5l-217.98-148.49v21.55l217.98,149.89V-3299.5z"/>
				<path id="Path_890" class="st9" d="M4682.25-3322.1c0.64,22.64,9.6,40.76,28.68,40.23s28.18-19.17,27.55-41.81
					s-10.77-40.73-29.85-40.19S4681.61-3344.74,4682.25-3322.1z"/>
				<path id="Path_891" class="st12" d="M4689.87-3322.24c0.37,13.26,5.27,23.89,10.93,23.73s8.78-11.01,8.4-24.27
					s-4.09-23.92-9.75-23.76S4689.49-3335.51,4689.87-3322.24z"/>
				<path id="Path_892" class="st9" d="M4588.5-3379.52c0.64,22.64,9.6,40.76,28.68,40.23s28.18-19.17,27.55-41.81
					s-10.77-40.73-29.85-40.19S4587.86-3402.16,4588.5-3379.52z"/>
				<path id="Path_893" class="st12" d="M4596.11-3379.67c0.37,13.26,5.27,23.89,10.93,23.73s8.78-11.01,8.4-24.27
					s-4.09-23.92-9.75-23.76S4595.74-3392.93,4596.11-3379.67z"/>
				<path id="Path_894" class="st11" d="M4884.05-3394.82c1.7-0.6,2.63-2.44,2.08-4.17c-6.71-21.4-15.1-55.01-21.07-55.08
					c-5.4-0.07-79.19,25.18-99.63,32.21c-3.22,1.09-5.11,4.43-4.39,7.75c3.03,13.74,13.55,39.09,16.39,52
					c0.5,2.23,2.72,3.64,4.95,3.14c0.17-0.04,0.34-0.09,0.51-0.15L4884.05-3394.82z"/>
				<path id="Path_895" class="st11" d="M4782.23-3334.08c-0.18-1.5,0.89-2.87,2.39-3.06c0.55-0.07,1.11,0.03,1.6,0.29
					c4.55,2.41,12.71,5.97,24.91,8.52c20.22,4.23,6.71,19.17-1.97,17.91C4800.47-3311.67,4785.25-3309.28,4782.23-3334.08z"/>
				<g id="Group_521">
					<path id="Path_896" class="st11" d="M4906.39-3351.08c-5.72,5.35-24.03-0.35-11.44-13.9c4.21-4.47,7.94-9.38,11.11-14.64
						c0,0,6.27,8.76,7.75,11.14C4911.46-3363.37,4909.35-3353.84,4906.39-3351.08z"/>
				</g>
				<path id="Path_897" class="st13" d="M4829.56-3472.04c0,0-5.75-18.55-19.21-27.26s-116.58-78.74-116.58-78.74"/>
				<path id="Path_898" class="st13" d="M4799.36-3460.26c0,0-5.75-18.55-19.21-27.26s-116.58-78.74-116.58-78.74"/>
				<path id="Path_899" class="st13" d="M4768.43-3444.95c0,0-5.75-18.55-19.21-27.26s-116.58-78.74-116.58-78.74"/>
				<path id="Path_900" class="st9" d="M4890.61-3333.26l2.9-6.26c0.61-1.31,0.52-2.84-0.24-4.07l-8.69-14.14
					c-1.09-1.77-3.29-2.51-5.23-1.76l-56.18,21.76c-2.22,0.86-3.32,3.36-2.46,5.58c0.06,0.15,0.12,0.29,0.19,0.43l7.17,13.8
					c0.51,0.98,1.38,1.73,2.43,2.09l10.47,3.59c1,0.35,2.1,0.31,3.08-0.11l44.33-18.75
					C4889.36-3331.51,4890.16-3332.29,4890.61-3333.26z"/>
				<path id="Path_901" class="st11" d="M4701.99-3453.3l-3.27,41.84c-0.18,2.33-2.22,4.07-4.55,3.89
					c-0.64-0.05-1.27-0.25-1.82-0.58l-101.21-61.02c-1.29-0.76-2.08-2.15-2.08-3.64v-44.99c0-2.34,1.9-4.23,4.23-4.23
					c0.78,0,1.55,0.22,2.21,0.63l104.48,64.17C4701.34-3456.4,4702.12-3454.88,4701.99-3453.3z"/>
				
					<ellipse id="Ellipse_143" transform="matrix(0.957 -0.29 0.29 0.957 1176.3248 1266.2808)" class="st11" cx="4860.71" cy="-3335.89" rx="6.53" ry="3.26"/>
				<path id="Path_902" class="st9" d="M4855.3-3482.66l-55.83-82.17c-0.06-0.09-0.15-0.17-0.26-0.22l-1.03-0.48l52.71,81.98
					c0.19,0.3,0.1,0.69-0.19,0.88c-0.01,0.01-0.03,0.02-0.04,0.02l-1.83,0.99h5.94c0.35,0,0.64-0.29,0.64-0.64
					C4855.41-3482.43,4855.37-3482.56,4855.3-3482.66z"/>
			</g>
		</g>
		<g id="Group_536">
			<g id="Group_531" class="st14">
				<g id="Group_530">
					<g id="Group_529">
						<g>
							<defs>
								<polygon id="SVGID_1_" points="4623.49,-3541.97 4664.64,-3565.89 4715.26,-3536.67 4674.11,-3512.75 								"/>
							</defs>
							<clipPath id="SVGID_2_">
								<use xlink:href="#SVGID_1_"  style="overflow:visible;"/>
							</clipPath>
							<g id="Group_528" class="st15">
								<g id="Group_527">
									<g id="Group_526">
										<g id="Group_525">
											<g id="Group_524">
												<path id="Path_903" d="M4708.52-3540.56l-1.75-0.04l-0.08-0.1l-0.24,0.09l-2.09-0.05l-0.08,0.85l-1.09,0.41l2.5,2.38
													c0,0-0.22,0.11-0.63,0.31l3.54,1.41l2.35-1.59l-2.04-1.02l0.05-0.01l-0.88-1.08L4708.52-3540.56"/>
												<path id="Path_904" d="M4702.13-3542.64c-7.66-0.49-15.09-2.8-21.68-6.73c-5.8-3.34-11.03-7.59-15.5-12.58l0.25-1.74
													l-3.71-0.36c-3.96,10.31-0.19,16.63,6.48,20.48c5.42,3.13,12.76,4.63,19.4,5.32c-17.68,0.83-37.45-5.68-37.45-5.68
													l-1.52-1.51l-3.39,0.93c2.86,4.16,6.61,7.64,10.97,10.19c8.16,4.71,17.46,5.37,25.79,4.41
													c-9.56,1.43-19.24,1.92-28.9,1.48l-2.44-1.02l-2.44,1.65c38.41,21.36,60.61-7.48,60.61-7.48l-3.54-1.41
													c0.41-0.2,0.63-0.31,0.63-0.31l-2.5-2.38l1.09-0.41l0.08-0.85L4702.13-3542.64"/>
											</g>
										</g>
									</g>
								</g>
							</g>
						</g>
					</g>
				</g>
			</g>
			<g id="Group_535">
				<g id="Group_532">
					<path id="Path_906" class="st7" d="M4726.32-3558.24l-1.23,5.15l-3.53-0.84c0,0-54.49,2.94-39.26-47.99l3.65,0.87l-0.45,2.98
						c0,0,12.86,32.41,34.7,35.81l1.98,3.56L4726.32-3558.24z"/>
					<path id="Path_907" class="st16" d="M4722.19-3558.69l4.13,0.46l-1.23,5.15l-3.53-0.84L4722.19-3558.69z"/>
					<path id="Path_908" class="st17" d="M4720.93-3560.95c0,0-25.22,3.21-35.58-36.72"/>
					<path id="Path_909" class="st18" d="M4721.93-3556.08c0,0-33.81,4.21-40.86-40.17"/>
				</g>
				<g id="Group_533">
					<path id="Path_910" class="st7" d="M4724.53-3555.48l3.77,3.72l-2.54,2.58c0,0-25.71,48.14-61.39,8.72l2.64-2.67l2.31,1.93
						c0,0,34.38,5.79,48.61-11.13l4.07,0.15L4724.53-3555.48z"/>
					<path id="Path_911" class="st16" d="M4722-3552.18l2.53-3.3l3.77,3.72l-2.55,2.58L4722-3552.18z"/>
					<path id="Path_912" class="st17" d="M4719.41-3552.27c0,0-10.32,23.23-49.84,11.41"/>
					<path id="Path_913" class="st18" d="M4724.1-3550.6c0,0-13.91,31.1-55.53,14.14"/>
				</g>
				<g id="Group_534">
					<path id="Path_914" class="st7" d="M4724.52-3558.6l1.93,4.93l-3.38,1.32c0,0-43.11,33.47-59.61-17.07l3.5-1.37l1.33,2.71
						c0,0,29.04,19.3,48.92,9.66l3.66,1.8L4724.52-3558.6z"/>
					<path id="Path_915" class="st16" d="M4720.86-3556.62l3.66-1.98l1.93,4.93l-3.38,1.32L4720.86-3556.62z"/>
					<path id="Path_916" class="st17" d="M4718.54-3557.76c0,0-18.9,17.01-50.16-9.91"/>
					<path id="Path_917" class="st18" d="M4722.14-3554.33c0,0-25.38,22.73-56.47-9.73"/>
				</g>
			</g>
		</g>
		<g id="Group_547">
			<g id="Group_544" class="st14">
				<g id="Group_543">
					<g id="Group_542">
						<g>
							<defs>
								<polygon id="SVGID_3_" points="4710.94,-3503.87 4738.59,-3519.94 4779.94,-3496.06 4752.29,-3479.99 								"/>
							</defs>
							<clipPath id="SVGID_4_">
								<use xlink:href="#SVGID_3_"  style="overflow:visible;"/>
							</clipPath>
							<g id="Group_541" class="st19">
								<g id="Group_540">
									<g id="Group_539">
										<g id="Group_538">
											<g id="Group_537">
												<path id="Path_918" d="M4770.61-3497.78l-1.28-0.45c-0.2,0.05-0.41,0.09-0.62,0.13L4770.61-3497.78 M4772.83-3497
													l-2.21-0.77c-1.17,0.47-2.37,0.84-3.6,1.12l6.8,1.02L4772.83-3497 M4778.15-3495.03l-3.47,0.6l-0.83-1.15
													c-1.42,0.6-24.45,9.86-49.86-4.81c-1.85-1.07-3.7-2.26-5.56-3.59l9.21,1.39c-1.81-0.88-3.66-1.86-5.55-2.95l-0.68-0.4
													l0.78,0.13c-0.55-0.24-0.85-0.37-0.85-0.37l-1.1-1.63l-3.6,0.62c2.17,5.53,6.15,10.17,11.3,13.14
													c18.06,10.43,46.74-0.38,46.74-0.38L4778.15-3495.03"/>
												<path id="Path_919" d="M4776.64-3497.97l-3.81,0.97l0.99,1.37l0.1,0.01l-0.07,0.03l0.83,1.15l3.47-0.6L4776.64-3497.97"
													/>
												<path id="Path_920" d="M4770.61-3497.78l-1.9-0.31l-46.52-7.72l-0.78-0.13l0.68,0.4c1.89,1.09,3.74,2.07,5.55,2.95
													l39.38,5.94C4768.24-3496.93,4769.44-3497.3,4770.61-3497.78L4770.61-3497.78"/>
												<path id="Path_921" d="M4773.92-3495.62l-0.1-0.01l-6.8-1.02l-39.38-5.94l-9.21-1.39c1.86,1.33,3.72,2.53,5.56,3.59
													c25.41,14.67,48.44,5.41,49.86,4.81L4773.92-3495.62"/>
											</g>
										</g>
									</g>
								</g>
							</g>
						</g>
					</g>
				</g>
			</g>
			<g id="Group_546">
				<g id="Group_545">
					<path id="Path_923" class="st7" d="M4791.07-3506.1l1.93,4.93l-3.38,1.32c0,0-43.11,33.47-59.61-17.07l3.5-1.37l1.33,2.71
						c0,0,29.04,19.3,48.92,9.66l3.66,1.8L4791.07-3506.1z"/>
					<path id="Path_924" class="st16" d="M4787.41-3504.12l3.66-1.98l1.93,4.93l-3.38,1.32L4787.41-3504.12z"/>
					<path id="Path_925" class="st17" d="M4785.09-3505.26c0,0-18.9,17.01-50.16-9.91"/>
					<path id="Path_926" class="st18" d="M4788.69-3501.83c0,0-25.38,22.73-56.47-9.73"/>
				</g>
			</g>
		</g>
	</g>
</g>
</svg>
