<?xml version="1.0" encoding="utf-8"?>
<!-- Generator: Adobe Illustrator 25.2.0, SVG Export Plug-In . SVG Version: 6.00 Build 0)  -->
<svg version="1.1" id="Layer_1" xmlns="http://www.w3.org/2000/svg" xmlns:xlink="http://www.w3.org/1999/xlink" x="0px" y="0px"
	 viewBox="0 0 595.28 305" style="enable-background:new 0 0 595.28 305;" xml:space="preserve">
<style type="text/css">
	.st0{fill:#FCDA3B;}
	.st1{fill:#8CC63F;}
	.st2{fill:#FFFFFF;}
	.st3{fill:#6666DF;}
	.st4{fill:#FC153B;}
	.st5{fill:none;stroke:#F2F2F2;stroke-width:1.614;stroke-linecap:round;stroke-linejoin:round;}
	.st6{fill:#FDBC2C;}
	.st7{font-family:'CircularStd-Bold';}
	.st8{font-size:44.7749px;}
	.st9{fill:#FFDE14;}
</style>
<g>
	<g id="Group_396" transform="translate(-10275.901 -5841.631)">
		<g id="Group_393">
			<path id="Path_642" class="st0" d="M10664.29,5928.45c-1.06-5.77-2.12-11.65-3.17-17.65c-0.25-1.41,0.57-2.11,1.83-1.82
				c12.29,2.87,24.58-10.02,36.87-10.28c1.38,0.12,2.5,1.16,2.72,2.52c1.06,5.77,2.12,11.65,3.17,17.65
				c0.25,1.41-0.57,2.11-1.83,1.82c-12.29-2.87-24.58,10.02-36.86,10.28C10665.64,5930.86,10664.52,5929.82,10664.29,5928.45z"/>
			<g id="Group_392">
				<g id="Group_391">
					<path id="Path_643" class="st1" d="M10667.26,5922.38c-1.06-5.77-2.12-11.65-3.17-17.65c-0.25-1.41,0.57-2.11,1.83-1.82
						c12.29,2.87,24.58-10.02,36.87-10.28c1.38,0.12,2.5,1.15,2.72,2.52c1.06,5.77,2.12,11.65,3.17,17.65
						c0.25,1.41-0.57,2.11-1.83,1.82c-12.29-2.87-24.58,10.02-36.86,10.28C10668.61,5924.79,10667.48,5923.75,10667.26,5922.38z"/>
				</g>
			</g>
			<path id="Path_644" class="st2" d="M10685.82,5911.67l-3.62,1.9l0.69-4.03l-2.93-2.85l4.04-0.59l1.81-3.67l1.81,3.67l4.04,0.59
				l-2.93,2.85l0.69,4.03L10685.82,5911.67z"/>
		</g>
		<g id="Group_395">
			<path id="Path_645" class="st3" d="M10795.17,5990.01c0-6.27-7.14-9.86-12.18-6.14c-11.81,8.72-22.55,16.88-31.63,23.84
				c-34.94,26.77-53.61,24.16-106.71-17.02c-17.04-13.2-41.48-10.52-55.24,6.07l-11.96,14.39c-13.99,16.82-11.87,41.76,4.76,55.97
				c56.66,48.47,112.14,78.26,178.63,77.36c4.86-0.07,9.66-1.25,13.9-3.63c2.79-1.57,5.98-3.63,9.5-6.1
				c6.87-4.83,10.93-12.74,10.93-21.14V5990.01z"/>
			<circle id="Ellipse_111" class="st0" cx="10580.13" cy="5994.46" r="50.14"/>
			<g id="Group_394">
				<path id="Rectangle_112" d="M10600.31,5846.26l48.45,20.33c7.34,3.08,10.79,11.52,7.71,18.86l-42.71,101.74
					c-3.08,7.34-11.52,10.79-18.86,7.71l-48.45-20.33c-7.34-3.08-10.79-11.52-7.71-18.86l42.71-101.74
					C10584.53,5846.63,10592.97,5843.18,10600.31,5846.26z"/>
				<path id="Rectangle_113" class="st4" d="M10602.23,5855.98l38.25,16.05c5.79,2.43,8.52,9.1,6.08,14.89l-38.69,92.17
					c-2.43,5.79-9.1,8.52-14.89,6.08l-38.25-16.05c-5.79-2.43-8.52-9.1-6.08-14.89l38.69-92.17
					C10589.77,5856.27,10596.44,5853.55,10602.23,5855.98z"/>
				<path id="Rectangle_114" d="M10605.11,5852.91l35.53,14.91l0,0l-2,4.75c-0.73,1.74-2.73,2.55-4.46,1.82l-28.95-12.15
					c-1.74-0.73-2.69-2.79-2.11-4.59l0,0L10605.11,5852.91L10605.11,5852.91z"/>
				<line id="Line_17" class="st5" x1="10560.73" y1="5964.3" x2="10592.32" y2="5977.55"/>
			</g>
			<path id="Rectangle_115" class="st0" d="M10622.32,5999.39L10622.32,5999.39c-6.34,2.34-13.38-0.9-15.72-7.24l-12.8-34.65
				c-2.34-6.34,0.9-13.38,7.24-15.72l0,0c6.34-2.34,13.38,0.9,15.72,7.24l12.8,34.65
				C10631.9,5990.01,10628.66,5997.05,10622.32,5999.39z"/>
			<path id="Path_647" class="st6" d="M10568.7,5918.85L10568.7,5918.85c-4.31-5.21-12.03-5.94-17.24-1.63l0,0l-18.29,16.65
				c-5.21,4.31-5.94,12.03-1.63,17.24c0,0,0,0,0,0l0,0c4.31,5.21,12.03,5.94,17.24,1.63c0,0,0,0,0.01-0.01l18.29-16.65
				C10572.29,5931.79,10573.01,5924.07,10568.7,5918.85C10568.7,5918.86,10568.7,5918.86,10568.7,5918.85z"/>
			<path id="Path_648" class="st6" d="M10564.4,5950.93L10564.4,5950.93c-1.61-6.57-8.23-10.59-14.8-8.98l-12.73,2.59
				c-6.57,1.61-10.59,8.23-8.98,14.8l0,0c1.61,6.57,8.23,10.59,14.8,8.98l12.73-2.59
				C10561.99,5964.12,10566.01,5957.49,10564.4,5950.93L10564.4,5950.93z"/>
			<path id="Path_649" class="st6" d="M10562.2,5970.36L10562.2,5970.36c-1.61-6.57-8.23-10.59-14.8-8.98l-12.73,2.59
				c-6.57,1.61-10.59,8.23-8.98,14.8l0,0c1.61,6.57,8.23,10.59,14.8,8.98h0l12.73-2.59
				C10559.79,5983.55,10563.81,5976.93,10562.2,5970.36z"/>
			<path id="Path_650" class="st6" d="M10552.37,5991.45L10552.37,5991.45c-1.61-6.57-8.23-10.59-14.8-8.98l-5.11,0.94
				c-6.57,1.61-10.59,8.23-8.98,14.8l0,0c1.61,6.57,8.23,10.59,14.8,8.98c0,0,0,0,0,0l5.11-0.94
				C10549.95,6004.64,10553.97,5998.02,10552.37,5991.45z"/>
		</g>
		<text transform="matrix(1 0 0 1 10717.3516 5923.1514)" class="st1 st7 st8">++</text>
	</g>
	<g id="Group_423" transform="translate(-10275.901 -5841.631)">
		<g id="Group_416">
			<g id="Group_410">
				<path id="Path_684" class="st2" d="M10627.42,5904.66c-0.05-0.02-0.08-0.08-0.05-0.13l5.3-12.64c0.02-0.05,0-0.1-0.05-0.12
					c-0.01-0.01-0.03-0.01-0.04-0.01c0,0-1.13,0.24-2.4,0.63c-0.69,0.21-1.37,0.45-2.03,0.73c0,0-0.17,0.06-0.21,0.15l-4.02,9.58
					c-0.43,0.86-0.51,1.86-0.22,2.78c0.52,0.94,1.38,1.65,2.4,1.99l1.38,0.58c0.06,0.03,0.14,0,0.17-0.07l1.15-2.74
					c0.03-0.06,0-0.14-0.07-0.16l0,0L10627.42,5904.66z"/>
			</g>
			<g id="Group_415">
				<g id="Group_413">
					<g id="Group_411">
						<path id="Path_685" class="st9" d="M10626.93,5893.38c-0.01-0.05-0.05-0.1-0.1-0.12l-3.23-1.37c-0.07-0.03-0.15-0.01-0.2,0.05
							c-1.15,1.44-2.3,2.88-3.47,4.32c-0.94,1.25-1.89,2.49-2.84,3.73c0.23-1.54,0.46-3.08,0.67-4.62c0.18-1.86,0.36-3.71,0.54-5.57
							c0.01-0.08-0.04-0.15-0.11-0.18c-1.37,1.76-2.74,3.52-4.13,5.27c-0.2,2.44-0.4,4.88-0.61,7.31c-0.01,0.07,0.04,0.14,0.1,0.17
							l4.07,1.7c0.07,0.03,0.15,0.01,0.2-0.05c3.09-3.48,6.14-6.97,9.08-10.49C10626.94,5893.49,10626.95,5893.44,10626.93,5893.38z
							"/>
					</g>
					<g id="Group_412">
						<path id="Path_686" class="st2" d="M10618.19,5889.61l-0.23-0.1l0,0l-3.15-1.32l-0.02-0.01c-0.07-0.03-0.16-0.01-0.2,0.06
							c-1.08,1.48-2.16,2.96-3.24,4.44c-0.71,0.99-1.41,1.98-2.11,2.97c0.16-1.22,0.33-2.44,0.49-3.66
							c0.22-1.84,0.44-3.68,0.66-5.51c0.01-0.08-0.03-0.15-0.1-0.18l-3.12-1.3c-0.07-0.03-0.15-0.01-0.2,0.05
							c-1.17,1.44-2.33,2.88-3.49,4.33c-0.75,0.97-1.49,1.95-2.23,2.92c0.21-1.2,0.42-2.39,0.63-3.58c0.3-1.8,0.61-3.6,0.92-5.39
							c0.01-0.08-0.03-0.15-0.1-0.18l-3.31-1.37c-0.05-0.02-0.11-0.02-0.15,0.01c-0.05,0.03-0.08,0.07-0.09,0.13
							c-0.65,4.48-1.19,9.02-1.69,13.58c-0.01,0.08,0.03,0.15,0.11,0.18l3.51,1.48c0.07,0.03,0.15,0.01,0.2-0.05
							c1.2-1.52,2.4-3.03,3.62-4.54c0.62-0.81,1.23-1.59,1.85-2.39c-0.13,1.01-0.26,1.99-0.39,3c-0.22,1.93-0.45,3.86-0.67,5.79
							c-0.01,0.08,0.03,0.15,0.1,0.18l3.58,1.5c0.07,0.03,0.15,0.01,0.2-0.05c1.5-1.9,3-3.8,4.5-5.71v0.02
							C10615.44,5893.14,10616.82,5891.38,10618.19,5889.61L10618.19,5889.61z"/>
					</g>
				</g>
				<g id="Group_414">
					<path id="Path_687" class="st6" d="M10618.17,5890.96l-4.22,5.06l0.09-1.13l4.15-5.25c0.07,0.04,0.1,0.11,0.09,0.19
						L10618.17,5890.96z"/>
				</g>
			</g>
			<path id="Path_688" class="st2" d="M10595.54,5889.98c0.48-1.29,0.59-2.9-2.02-5.13c-0.13-0.12-0.28-0.24-0.4-0.35
				c-0.93-0.79-1.86-1.5-1.61-2.15c0.23-0.6,1.02-0.67,1.92-0.33c0.9,0.4,1.65,1.07,2.15,1.92c0.06,0.09,0.19,0.12,0.28,0.06
				l2.34-1.47c0.05-0.03,0.08-0.08,0.1-0.13c0.01-0.05,0-0.11-0.03-0.16c-0.92-1.43-2.27-2.52-3.85-3.13
				c-2.96-1.14-5.69-0.45-6.59,1.98c-0.62,1.68,0.28,3.36,2.21,5.07c0.12,0.11,0.24,0.22,0.36,0.32c0.96,0.85,1.8,1.61,1.54,2.31
				c-0.25,0.65-0.96,0.81-1.97,0.43l-0.12-0.05c-1.06-0.5-1.94-1.31-2.52-2.33c-0.03-0.04-0.08-0.08-0.13-0.09s-0.11,0-0.15,0.03
				l-2.38,1.57c-0.1,0.06-0.13,0.18-0.07,0.28c0.97,1.48,2.36,2.64,3.99,3.34l0.2,0.08
				C10592,5893.28,10594.6,5892.53,10595.54,5889.98z"/>
		</g>
		<g id="Group_422">
			<g id="Group_419">
				<g id="Group_418">
					<g id="Group_417">
						<path id="Path_689" class="st2" d="M10630.55,5907.01v-0.27l-0.13-0.06l-0.1,0.23l-0.11-0.05l0.25-0.61l0.26,0.11
							c0.11,0.03,0.17,0.14,0.14,0.25c0,0.01-0.01,0.02-0.01,0.03c-0.03,0.08-0.1,0.13-0.18,0.12v0.3L10630.55,5907.01z
							 M10630.67,5906.46l-0.15-0.06l-0.08,0.18l0.15,0.06c0.05,0.02,0.1,0.01,0.13-0.04c0,0,0-0.01,0.01-0.01
							C10630.75,5906.54,10630.73,5906.48,10630.67,5906.46L10630.67,5906.46L10630.67,5906.46z"/>
					</g>
				</g>
			</g>
			<g id="Group_421">
				<g id="Group_420">
					<path id="Path_690" class="st2" d="M10630.28,5907.28c-0.34-0.15-0.5-0.54-0.35-0.88c0.15-0.34,0.54-0.5,0.88-0.35
						c0.34,0.14,0.5,0.53,0.36,0.87C10631.03,5907.26,10630.64,5907.42,10630.28,5907.28
						C10630.29,5907.28,10630.29,5907.28,10630.28,5907.28z M10630.76,5906.14c-0.28-0.12-0.61,0.01-0.72,0.3s0.01,0.61,0.3,0.72
						c0.28,0.12,0.61-0.01,0.72-0.3l0,0C10631.17,5906.58,10631.04,5906.26,10630.76,5906.14L10630.76,5906.14L10630.76,5906.14z"/>
				</g>
			</g>
		</g>
	</g>
</g>
</svg>
