<?xml version="1.0" encoding="utf-8"?>
<!-- Generator: Adobe Illustrator 25.2.0, SVG Export Plug-In . SVG Version: 6.00 Build 0)  -->
<svg version="1.1" id="Layer_1" xmlns="http://www.w3.org/2000/svg" xmlns:xlink="http://www.w3.org/1999/xlink" x="0px" y="0px"
	 viewBox="0 0 1119 841.89" style="enable-background:new 0 0 1119 841.89;" xml:space="preserve">
<style type="text/css">
	.st0{fill:#FCDA3B;}
	.st1{fill:#6666DF;}
	.st2{fill:#FC153B;}
	.st3{fill:none;stroke:#F2F2F2;stroke-width:1.427;stroke-linecap:round;stroke-linejoin:round;}
	.st4{fill:#FDBC2C;}
	.st5{fill:#FFFFFF;}
	.st6{fill:#FFDE14;}
</style>
<g>
	<g id="Group_294" transform="translate(-12858.906 -6722.959)">
		<path id="Path_501" class="st0" d="M12939.26,7074.34l-27.22,6.89l-6.89,27.22l-6.89-27.22l-27.22-6.89l27.22-6.89l6.89-27.22
			l6.89,27.22L12939.26,7074.34z"/>
	</g>
	<g id="Group_295" transform="translate(-12858.906 -6722.959)">
		<path id="Path_502" class="st0" d="M13017.61,6879.34l-11.17-6.65l-11.17,6.65l6.65-11.17l-6.65-11.17l11.17,6.65l11.17-6.65
			l-6.65,11.17L13017.61,6879.34z"/>
	</g>
	<g id="Group_296" transform="translate(-12858.906 -6722.959)">
		<path id="Path_503" class="st0" d="M13544.39,6972.86l-11.17-6.65l-11.17,6.65l6.66-11.17l-6.66-11.17l11.17,6.65l11.17-6.65
			l-6.66,11.17L13544.39,6972.86z"/>
	</g>
	<g id="Group_297" transform="translate(-12858.906 -6722.959)">
		<path id="Path_504" class="st0" d="M13434.89,7121.79l-11.17-6.65l-11.17,6.65l6.65-11.17l-6.65-11.17l11.17,6.65l11.17-6.65
			l-6.65,11.17L13434.89,7121.79z"/>
	</g>
	<g id="Group_298" transform="translate(-12858.906 -6722.959)">
		<path id="Path_505" class="st0" d="M13177.96,6831.61l-11.17-6.65l-11.17,6.65l6.65-11.17l-6.65-11.17l11.17,6.65l11.17-6.65
			l-6.66,11.17L13177.96,6831.61z"/>
	</g>
	<g id="Group_336" transform="translate(-12858.906 -6722.959)">
		<g id="Group_321">
			<path id="Path_545" class="st1" d="M13859.06,7024.25c-22.41-48.35-90.55-50.04-115.3-2.85l-0.51,0.98
				c-54.05,103.07-212.77,229.55-385.92,189.78c-55.55-12.74-111.2,20.87-125.78,75.96l-12.69,47.81
				c-14.8,55.73,18.65,113.58,74.17,129.13c194.69,54.51,539.3-70.04,637.46-131.32c6.92-4.32,15.61-15.19,25.57-31.1
				c11.47-18.4,12.88-41.35,3.74-61.02L13859.06,7024.25z"/>
			<circle id="Ellipse_106" class="st0" cx="13206.76" cy="7292.94" r="132.57"/>
			<g id="Group_320">
				<path id="Rectangle_95" d="M13087.17,6915.07l145.27-5.38c19.23-0.71,35.39,14.3,36.1,33.52l11.04,297.96
					c0.71,19.23-14.3,35.39-33.52,36.1l-145.27,5.38c-19.23,0.71-35.39-14.3-36.1-33.52l-11.04-297.96
					C13052.94,6931.95,13067.94,6915.78,13087.17,6915.07z"/>
				<path id="Rectangle_96" class="st2" d="M13096.65,6936.49l127.93-4.74c11.52-0.43,21.21,8.57,21.64,20.09l10.46,282.4
					c0.43,11.52-8.57,21.21-20.09,21.64l-127.93,4.74c-11.52,0.43-21.21-8.57-21.64-20.09l-10.46-282.4
					C13076.13,6946.6,13085.13,6936.91,13096.65,6936.49z"/>
				<path id="Rectangle_97" d="M13109.34,6925.58l101.79-3.77l0,0l0.75,20.35c0.05,1.25-0.93,2.31-2.19,2.36l0,0l-97.25,3.6
					c-1.25,0.05-2.31-0.93-2.36-2.19c0,0,0,0,0,0L13109.34,6925.58L13109.34,6925.58z"/>
				<line id="Line_7" class="st3" x1="13126.71" y1="7242.16" x2="13217.22" y2="7238.82"/>
			</g>
			<path id="Rectangle_98" class="st0" d="M13313.44,7257.89L13313.44,7257.89c-12.62,12.67-33.12,12.72-45.8,0.1l-69.25-68.95
				c-12.67-12.62-12.72-33.12-0.1-45.8l0,0c12.62-12.67,33.13-12.72,45.8-0.1l69.25,68.95
				C13326.01,7224.71,13326.06,7245.22,13313.44,7257.89z"/>
			<path id="Path_547" class="st4" d="M13095.29,7124.27L13095.29,7124.27c-16.13-7.71-35.45-0.88-43.16,15.25l-25.36,60.27
				c-7.71,16.13-0.88,35.45,15.25,43.16l0,0l0,0c16.13,7.71,35.45,0.88,43.16-15.25c0,0,0,0,0,0l25.37-60.27
				C13118.25,7151.3,13111.42,7131.97,13095.29,7124.27L13095.29,7124.27z"/>
			<path id="Path_548" class="st4" d="M13120.64,7205.98L13120.64,7205.98c-11.15-13.97-31.52-16.25-45.49-5.1v0l-27.67,20.37
				c-13.97,11.15-16.25,31.52-5.1,45.49l0,0c11.16,13.97,31.52,16.25,45.49,5.1l27.67-20.37
				C13129.51,7240.31,13131.79,7219.95,13120.64,7205.98z"/>
			<path id="Path_549" class="st4" d="M13136.96,7255.06L13136.96,7255.06c-11.15-13.97-31.52-16.25-45.49-5.1v0l-27.67,20.37
				c-13.97,11.15-16.25,31.52-5.1,45.49l0,0c11.15,13.97,31.52,16.25,45.49,5.1v0l27.67-20.37
				C13145.83,7289.4,13148.12,7269.04,13136.96,7255.06C13136.96,7255.07,13136.96,7255.07,13136.96,7255.06z"/>
			<path id="Path_550" class="st4" d="M13136.81,7316.57L13136.81,7316.57c-11.15-13.97-31.52-16.25-45.49-5.1v0l-11.2,7.94
				c-13.97,11.16-16.25,31.52-5.09,45.49l0,0c11.15,13.97,31.52,16.25,45.49,5.1c0,0,0,0,0,0l11.2-7.94
				C13145.68,7350.91,13147.96,7330.54,13136.81,7316.57z"/>
		</g>
		<g id="Group_335">
			<g id="Group_328">
				<g id="Group_322">
					<path id="Path_551" class="st5" d="M13229.41,7082.4c-0.17,0.01-0.31-0.12-0.32-0.29c0,0,0,0,0,0l-1.49-40.41
						c0-0.15-0.13-0.26-0.28-0.26c-0.04,0-0.08,0.01-0.12,0.03c0,0-2.72,2.04-5.64,4.66c-1.59,1.4-3.1,2.9-4.52,4.47
						c0,0-0.39,0.38-0.38,0.65l1.13,30.61c0.12,3.39,1.09,5.98,2.86,7.7s5.21,2.49,8.89,2.36l4.41-0.16
						c0.2-0.01,0.36-0.18,0.36-0.38l-0.32-8.77c-0.01-0.2-0.18-0.36-0.38-0.36l0,0L13229.41,7082.4z"/>
				</g>
				<g id="Group_327">
					<g id="Group_325">
						<g id="Group_323">
							<path id="Path_552" class="st6" d="M13214.12,7052.83c-0.1-0.13-0.26-0.2-0.42-0.19c-3.45,0.11-6.9,0.23-10.35,0.34
								c-0.22,0.01-0.41,0.16-0.46,0.38c-1.28,5.28-2.59,10.57-3.95,15.87c-0.97,4.49-1.97,8.99-2.98,13.49
								c-1.28-4.41-2.59-8.81-3.92-13.22c-1.82-5.19-3.65-10.38-5.49-15.58c-0.07-0.21-0.28-0.35-0.5-0.34
								c-1.47,6.41-2.98,12.82-4.51,19.24c2.5,6.78,4.98,13.56,7.42,20.34c0.07,0.2,0.27,0.34,0.49,0.33
								c4.33-0.17,8.67-0.34,13.01-0.51c0.22-0.01,0.41-0.16,0.47-0.37c3.96-13.14,7.8-26.26,11.29-39.32
								C13214.25,7053.12,13214.22,7052.95,13214.12,7052.83z"/>
						</g>
						<g id="Group_324">
							<path id="Path_553" class="st5" d="M13186.05,7053.57l-0.73,0.02l0,0c-3.35,0.12-6.71,0.24-10.06,0.36h-0.07
								c-0.23,0.01-0.43,0.18-0.47,0.41c-1.05,5.29-2.11,10.59-3.18,15.88c-0.66,3.53-1.32,7.05-1.97,10.58
								c-1.07-3.47-2.14-6.93-3.21-10.4c-1.7-5.2-3.39-10.39-5.07-15.59c-0.07-0.22-0.27-0.36-0.5-0.35
								c-3.33,0.13-6.65,0.25-9.98,0.38c-0.23,0.01-0.42,0.17-0.47,0.39c-1.33,5.3-2.65,10.6-3.96,15.9
								c-0.8,3.53-1.59,7.05-2.36,10.58c-0.93-3.45-1.85-6.91-2.75-10.36c-1.44-5.19-2.85-10.39-4.22-15.58
								c-0.06-0.23-0.27-0.38-0.5-0.37c-3.52,0.14-7.05,0.29-10.57,0.43c-0.29,0.01-0.51,0.26-0.5,0.54c0,0.04,0.01,0.08,0.02,0.12
								c3.82,12.8,7.99,25.61,12.31,38.44c0.07,0.21,0.27,0.36,0.5,0.35c3.75-0.13,7.49-0.25,11.24-0.38
								c0.22-0.01,0.41-0.16,0.47-0.38c1.32-5.54,2.67-11.09,4.04-16.64c0.66-2.93,1.32-5.77,1.99-8.7
								c0.89,2.87,1.78,5.65,2.68,8.52c1.79,5.44,3.59,10.88,5.4,16.32c0.07,0.21,0.27,0.36,0.5,0.35
								c3.82-0.14,7.64-0.28,11.46-0.42c0.23-0.01,0.42-0.17,0.47-0.39c1.66-6.95,3.31-13.9,4.96-20.85l0.02,0.06
								C13183.07,7066.39,13184.57,7059.97,13186.05,7053.57L13186.05,7053.57z"/>
						</g>
					</g>
					<g id="Group_326">
						<path id="Path_554" class="st4" d="M13187.67,7057.2l-5.02,18.76l-1.16-3.15l4.58-19.2c0.22,0.02,0.41,0.17,0.48,0.38
							L13187.67,7057.2z"/>
					</g>
				</g>
				<path id="Path_555" class="st5" d="M13125.89,7082.66c-0.32-4.05-2-8.5-11.76-11.23c-0.52-0.15-1.03-0.29-1.53-0.43
					c-3.47-0.96-6.84-1.72-6.99-3.77c-0.14-1.89,1.92-3.05,4.73-3.25c2.42-0.18,5.02,0.6,8.15,2.46c0.28,0.17,0.65,0.08,0.83-0.2
					c1.47-2.26,2.94-4.54,4.43-6.83c0.09-0.14,0.13-0.31,0.09-0.48c-0.03-0.16-0.13-0.3-0.26-0.38c-4.23-2.68-9.2-3.95-14.19-3.61
					c-9.34,0.64-15.8,5.85-15.18,13.46c0.42,5.28,4.9,8.64,12.2,10.82c0.46,0.14,0.92,0.28,1.37,0.42c3.61,1.08,6.81,2.11,6.97,4.27
					c0.15,2.05-1.55,3.37-4.74,3.59c-0.13,0.01-0.26,0.02-0.39,0.02c-2.97,0.11-6.04-0.87-9.63-3.11c-0.29-0.18-0.66-0.09-0.84,0.2
					c0,0,0,0,0,0c-1.47,2.37-2.94,4.76-4.43,7.17c-0.18,0.28-0.11,0.65,0.16,0.84c4.44,2.76,9.59,4.15,14.81,4
					c0.21-0.01,0.43-0.02,0.64-0.04C13120.5,7095.88,13126.54,7090.64,13125.89,7082.66z"/>
			</g>
			<g id="Group_334">
				<g id="Group_331">
					<g id="Group_330">
						<g id="Group_329">
							<path id="Path_556" class="st5" d="M13240.7,7084.82l-0.35-0.72l-0.43,0.02l0.03,0.73l-0.36,0.01l-0.07-1.94l0.82-0.03
								c0.33-0.06,0.64,0.16,0.69,0.49c0,0.03,0.01,0.06,0.01,0.09c0.02,0.24-0.12,0.46-0.34,0.56l0.38,0.78L13240.7,7084.82z
								 M13240.35,7083.2l-0.46,0.02l0.02,0.58l0.47-0.02c0.2-0.01,0.31-0.12,0.3-0.3c-0.01-0.17-0.15-0.29-0.31-0.29
								C13240.36,7083.19,13240.35,7083.19,13240.35,7083.2L13240.35,7083.2z"/>
						</g>
					</g>
				</g>
				<g id="Group_333">
					<g id="Group_332">
						<path id="Path_557" class="st5" d="M13240.31,7085.85c-1.1,0.04-2.03-0.82-2.07-1.92s0.82-2.03,1.92-2.07
							c1.1-0.04,2.03,0.82,2.07,1.92c0,0,0,0,0,0C13242.27,7084.88,13241.41,7085.81,13240.31,7085.85z M13240.18,7082.23
							c-0.9,0.03-1.6,0.79-1.57,1.69c0.03,0.9,0.79,1.6,1.69,1.57s1.6-0.79,1.57-1.69
							C13241.83,7082.9,13241.08,7082.2,13240.18,7082.23z"/>
					</g>
				</g>
			</g>
		</g>
	</g>
</g>
</svg>
