<?xml version="1.0" encoding="utf-8"?>
<!-- Generator: Adobe Illustrator 25.2.0, SVG Export Plug-In . SVG Version: 6.00 Build 0)  -->
<svg version="1.1" id="Layer_1" xmlns="http://www.w3.org/2000/svg" xmlns:xlink="http://www.w3.org/1999/xlink" x="0px" y="0px"
	 viewBox="0 0 937.22 841.89" style="enable-background:new 0 0 937.22 841.89;" xml:space="preserve">
<style type="text/css">
	.st0{fill:#1B1464;}
	.st1{fill:#1A1A1A;}
	.st2{clip-path:url(#SVGID_2_);}
	.st3{fill:#6666DF;}
	.st4{fill:#F2F2F2;}
	.st5{fill:#FCDA3B;}
	.st6{fill:#FC153B;}
	.st7{fill:none;stroke:#F2F2F2;stroke-width:0.734;stroke-linecap:round;stroke-linejoin:round;}
	.st8{fill:#FFFFFF;}
	.st9{fill:#FFDE14;}
	.st10{fill:#FDBC2C;}
	.st11{fill:#CCCCCC;}
	.st12{fill:#001645;}
	.st13{fill:#29ABE2;}
	.st14{fill:#FFFFFF;stroke:#FC153B;stroke-width:1.227;stroke-miterlimit:10;}
	.st15{opacity:0.41;fill:#29ABE2;enable-background:new    ;}
	.st16{fill:none;stroke:#1B1464;stroke-width:2.108;stroke-miterlimit:10;}
	.st17{fill:#333333;}
	.st18{fill:#F5C327;}
	.st19{fill:url(#Path_401_1_);}
	.st20{fill:url(#Path_402_1_);}
	.st21{fill:none;stroke:#001645;stroke-width:0.681;stroke-linecap:round;stroke-linejoin:round;}
	.st22{fill:none;stroke:#FF0000;stroke-width:0.681;stroke-linecap:round;stroke-linejoin:round;}
	.st23{fill:none;stroke:#00FF00;stroke-width:0.681;stroke-linecap:round;stroke-linejoin:round;}
	.st24{fill:#0068FF;}
	.st25{fill:#13BD28;}
</style>
<g>
	<g id="Group_215" transform="translate(-5292 -4262.868)">
		<path id="Path_326" class="st0" d="M5493.31,4402.24c-1.48-15.25,9.46-12.1,18.42-10.63c1.17,1.1,2.28,2.26,3.33,3.47
			c12.96,17.94,20.16,64.28,25.14,86.21c3.71,16.3,12.74,24.48,38.25,25.35c8.19,0.28,14.67-1.82,14.67,6.37v7.11
			c0,8.31,3.04,11.38-5.27,11.5c-29.07,0.41-64.88,4.73-68.25-11.56C5515.43,4499.94,5497.2,4442.29,5493.31,4402.24z"/>
		<path id="Path_327" class="st1" d="M5483.45,4807.71c0,0,35.81,31.62,34.36,40.28s-0.1,33.23-34.36,18.78
			s-46.53-36.84-46.53-36.84v-15.97L5483.45,4807.71z"/>
		<path id="Path_328" class="st1" d="M5535.68,4779.17l39.27,19.2c0,0,8.24,20.89,5.73,28.41s-89.86-10.78-89.86-10.78
			s-2.77-26.31,3.31-36S5535.68,4779.17,5535.68,4779.17z"/>
		<g id="Group_196">
			<path id="Path_329" class="st1" d="M5483.45,4807.71c0,0,35.81,31.62,34.36,40.28s-0.1,33.23-34.36,18.78
				s-46.53-36.84-46.53-36.84v-15.97L5483.45,4807.71z"/>
		</g>
		<g id="Group_198">
			<path id="Path_330" class="st1" d="M5535.68,4779.17l39.27,19.2c0,0,8.24,20.89,5.73,28.41s-89.86-10.78-89.86-10.78
				s-2.77-26.31,3.31-36S5535.68,4779.17,5535.68,4779.17z"/>
			<g>
				<defs>
					<path id="SVGID_1_" d="M5535.68,4779.17l39.27,19.2c0,0,8.24,20.89,5.73,28.41s-89.86-10.78-89.86-10.78s-2.77-26.31,3.31-36
						S5535.68,4779.17,5535.68,4779.17z"/>
				</defs>
				<clipPath id="SVGID_2_">
					<use xlink:href="#SVGID_1_"  style="overflow:visible;"/>
				</clipPath>
				<g id="Group_197" class="st2">
					<path id="Path_331" class="st1" d="M5569.85,4801.72L5569.85,4801.72c2.11-4.67,0.04-10.17-4.64-12.28c0,0,0,0,0,0
						l-31.12-14.06l-19.73,7.45l43.21,23.53C5562.24,4808.47,5567.74,4806.4,5569.85,4801.72
						C5569.85,4801.72,5569.85,4801.72,5569.85,4801.72z"/>
				</g>
			</g>
		</g>
		<path id="Path_333" class="st0" d="M5514.02,4546.57c0,0,71.19,115.06,62.13,130.16s-36.25,77.79-37,95.91s-48.47,6.8-48.47,6.8
			l25.43-108.75l-44.6-86.85L5514.02,4546.57z"/>
		<path id="Path_334" class="st0" d="M5471.5,4583.85c0,0,21.3,215.23,19.17,219.77s-42.15,15.86-58.01,9.06l-23.41-222.03
			L5471.5,4583.85z"/>
		<path id="Path_335" class="st3" d="M5400.51,4509.51"/>
		<path id="Path_336" class="st4" d="M5513.15,4398.19l10.55,163.07c0,0-45.42,49.55-111.5,43.36l-17.87-180.03
			C5394.33,4424.59,5439.39,4351.34,5513.15,4398.19z"/>
		<circle id="Ellipse_71" class="st5" cx="5600.06" cy="4514.57" r="19.05"/>
		<g id="Group_213">
			<path id="Rectangle_55" class="st4" d="M5615.22,4517.09l-20.1-6.14c-2.61-0.8-4.08-3.56-3.28-6.16l12.55-41.09
				c0.8-2.61,3.56-4.08,6.16-3.28l20.1,6.14c2.61,0.8,4.08,3.56,3.28,6.16l-12.55,41.09
				C5620.58,4516.42,5617.82,4517.88,5615.22,4517.09z"/>
			<path id="Rectangle_56" class="st6" d="M5614.01,4513.45l-15.87-4.85c-2.06-0.63-3.22-2.81-2.59-4.87l11.33-37.11
				c0.63-2.06,2.81-3.22,4.87-2.59l15.87,4.85c2.06,0.63,3.22,2.81,2.59,4.87l-11.33,37.11
				C5618.25,4512.92,5616.07,4514.08,5614.01,4513.45z"/>
			<path id="Rectangle_57" class="st4" d="M5625.06,4469.92l-11.76-3.59c-0.62-0.19-0.96-0.84-0.78-1.46l0.61-1.99l0,0l13.99,4.27
				l0,0l-0.61,1.99C5626.33,4469.76,5625.68,4470.11,5625.06,4469.92C5625.06,4469.92,5625.06,4469.92,5625.06,4469.92z"/>
			<line id="Line_4" class="st7" x1="5613.05" y1="4510.47" x2="5600.6" y2="4506.67"/>
			<g id="Group_212">
				<g id="Group_205">
					<g id="Group_199">
						<path id="Path_337" class="st8" d="M5622.23,4483.61c-0.02-0.01-0.03-0.03-0.02-0.04l1.4-4.57c0.01-0.02,0-0.03-0.02-0.04
							c-0.01,0-0.01,0-0.02,0c0,0-0.38,0.12-0.81,0.3c-0.23,0.1-0.46,0.2-0.68,0.33c0,0-0.06,0.03-0.07,0.06l-1.06,3.46
							c-0.12,0.31-0.11,0.66,0.02,0.97c0.21,0.31,0.53,0.52,0.9,0.61l0.5,0.15c0.02,0.01,0.05-0.01,0.06-0.03l0,0l0.3-0.99
							c0.01-0.02-0.01-0.05-0.03-0.06l0,0L5622.23,4483.61z"/>
					</g>
					<g id="Group_204">
						<g id="Group_202">
							<g id="Group_200">
								<path id="Path_338" class="st9" d="M5621.67,4479.72c-0.01-0.02-0.02-0.03-0.04-0.04l-1.17-0.36
									c-0.02-0.01-0.05,0-0.07,0.02c-0.35,0.54-0.7,1.08-1.05,1.62c-0.28,0.46-0.57,0.93-0.85,1.39c0.03-0.54,0.05-1.08,0.07-1.63
									c0-0.65-0.01-1.3-0.01-1.95c0-0.03-0.02-0.05-0.04-0.06c-0.41,0.66-0.83,1.32-1.25,1.97c0.02,0.85,0.03,1.71,0.04,2.56
									c0,0.03,0.02,0.05,0.04,0.06l1.47,0.45c0.02,0.01,0.05,0,0.07-0.02c0.95-1.31,1.89-2.63,2.78-3.95
									C5621.68,4479.76,5621.68,4479.74,5621.67,4479.72z"/>
							</g>
							<g id="Group_201">
								<path id="Path_339" class="st8" d="M5618.51,4478.72l-0.08-0.03l0,0l-1.14-0.35h-0.01c-0.03-0.01-0.05,0-0.07,0.03
									c-0.32,0.55-0.65,1.1-0.97,1.65l-0.63,1.1c0.02-0.43,0.03-0.86,0.04-1.29c0.01-0.65,0.02-1.29,0.04-1.94
									c0-0.03-0.02-0.05-0.04-0.06l-1.13-0.34c-0.03-0.01-0.05,0-0.07,0.02c-0.35,0.54-0.71,1.08-1.06,1.62
									c-0.23,0.36-0.45,0.73-0.67,1.09c0.03-0.42,0.06-0.84,0.09-1.26c0.04-0.63,0.08-1.27,0.13-1.9c0-0.03-0.02-0.05-0.04-0.06
									l-1.2-0.36c-0.02,0-0.04,0-0.05,0.01s-0.02,0.03-0.03,0.05c-0.07,1.58-0.1,3.17-0.11,4.77c0,0.03,0.02,0.05,0.04,0.06
									l1.27,0.39c0.03,0.01,0.05,0,0.07-0.02c0.36-0.57,0.73-1.13,1.1-1.7c0.19-0.3,0.37-0.59,0.56-0.89
									c-0.01,0.35-0.02,0.7-0.03,1.05c-0.01,0.68-0.02,1.35-0.03,2.03c0,0.03,0.02,0.05,0.04,0.06l1.29,0.4
									c0.03,0.01,0.05,0,0.07-0.02c0.45-0.71,0.91-1.42,1.36-2.13v0.01C5617.68,4480.04,5618.09,4479.39,5618.51,4478.72
									L5618.51,4478.72z"/>
							</g>
						</g>
						<g id="Group_203">
							<path id="Path_340" class="st10" d="M5618.55,4479.19l-1.29,1.9l-0.01-0.4l1.25-1.97c0.02,0.01,0.04,0.03,0.04,0.06V4479.19z
								"/>
						</g>
					</g>
					<path id="Path_341" class="st8" d="M5610.67,4479.64c0.12-0.46,0.1-1.03-0.88-1.71l-0.15-0.11c-0.35-0.24-0.7-0.46-0.63-0.69
						c0.06-0.22,0.33-0.27,0.65-0.18c0.33,0.11,0.61,0.31,0.81,0.59c0.03,0.03,0.07,0.03,0.1,0.01l0.76-0.59
						c0.02-0.01,0.03-0.03,0.03-0.05c0-0.02,0-0.04-0.02-0.05c-0.37-0.46-0.87-0.8-1.44-0.95c-1.07-0.29-1.99,0.04-2.21,0.92
						c-0.16,0.61,0.21,1.15,0.94,1.68l0.14,0.1c0.36,0.26,0.68,0.5,0.61,0.75s-0.3,0.32-0.67,0.22l-0.04-0.01
						c-0.38-0.14-0.72-0.39-0.95-0.72c-0.01-0.01-0.03-0.02-0.05-0.03s-0.04,0-0.05,0.02l-0.77,0.63c-0.03,0.02-0.04,0.07-0.01,0.1
						c0,0,0,0,0,0c0.39,0.48,0.91,0.83,1.5,1.02c0.02,0.01,0.05,0.02,0.07,0.02C5609.56,4480.91,5610.43,4480.56,5610.67,4479.64z"
						/>
				</g>
				<g id="Group_211">
					<g id="Group_208">
						<g id="Group_207">
							<g id="Group_206">
								<path id="Path_342" class="st8" d="M5623.4,4484.32l-0.01-0.09l-0.05-0.02l-0.02,0.08l-0.04-0.01l0.07-0.22l0.09,0.03
									c0.04,0.01,0.06,0.04,0.06,0.08c0,0,0,0.01,0,0.01c-0.01,0.03-0.03,0.05-0.06,0.05l0.01,0.1L5623.4,4484.32z
									 M5623.43,4484.12l-0.05-0.02l-0.02,0.06l0.05,0.02c0.02,0.01,0.04,0,0.04-0.02c0,0,0,0,0-0.01
									C5623.46,4484.15,5623.45,4484.13,5623.43,4484.12C5623.43,4484.12,5623.43,4484.12,5623.43,4484.12z"/>
							</g>
						</g>
					</g>
					<g id="Group_210">
						<g id="Group_209">
							<path id="Path_343" class="st8" d="M5623.32,4484.42c-0.12-0.04-0.19-0.17-0.16-0.29s0.17-0.19,0.29-0.16
								c0.12,0.04,0.19,0.17,0.16,0.29C5623.57,4484.39,5623.44,4484.46,5623.32,4484.42z M5623.44,4484.01
								c-0.1-0.03-0.21,0.03-0.24,0.13c-0.03,0.1,0.03,0.21,0.13,0.24c0.1,0.03,0.21-0.03,0.24-0.13c0,0,0,0,0,0
								C5623.6,4484.15,5623.55,4484.04,5623.44,4484.01z"/>
						</g>
					</g>
				</g>
			</g>
		</g>
		<path id="Rectangle_58" class="st5" d="M5606.52,4493.71l0.45,0.78c1.16,2.01,0.47,4.57-1.54,5.73l-12.94,7.47
			c-2.01,1.16-4.57,0.47-5.73-1.54l-0.45-0.78c-1.16-2.01-0.47-4.57,1.54-5.73l12.94-7.47
			C5602.79,4491.02,5605.36,4491.7,5606.52,4493.71z"/>
		<path id="Path_344" class="st5" d="M5619.3,4499.46L5619.3,4499.46c2.06-1.52,4.97-1.09,6.5,0.97l3.09,3.85
			c1.53,2.06,1.09,4.97-0.97,6.5l0,0c-2.06,1.53-4.97,1.09-6.5-0.97l-3.09-3.85C5616.8,4503.9,5617.23,4500.99,5619.3,4499.46z"/>
		<path id="Path_345" class="st5" d="M5615.22,4505.67L5615.22,4505.67c2.06-1.53,4.97-1.09,6.5,0.97l3.09,3.85
			c1.53,2.06,1.09,4.97-0.97,6.5l0,0c-2.06,1.53-4.97,1.09-6.5-0.97l-3.09-3.85C5612.73,4510.11,5613.16,4507.2,5615.22,4505.67z"/>
		<path id="Path_346" class="st5" d="M5611.15,4511.89L5611.15,4511.89c2.06-1.53,4.98-1.09,6.5,0.97l3.09,3.85
			c1.53,2.06,1.09,4.98-0.97,6.5l0,0c-2.06,1.53-4.97,1.09-6.5-0.97l-3.09-3.85C5608.65,4516.33,5609.08,4513.42,5611.15,4511.89
			C5611.15,4511.89,5611.15,4511.89,5611.15,4511.89z"/>
		<path id="Path_347" class="st5" d="M5607.07,4518.1L5607.07,4518.1c2.06-1.53,4.97-1.09,6.5,0.97l3.09,3.85
			c1.53,2.06,1.09,4.97-0.97,6.5l0,0c-2.06,1.53-4.97,1.09-6.5-0.97l-3.09-3.85C5604.58,4522.54,5605.01,4519.63,5607.07,4518.1z"/>
		<path id="Path_348" class="st11" d="M5425.19,4411.28c0,0-0.59,13.71,7.67,19.9s31.61-7.31,31.61-7.31L5425.19,4411.28z"/>
		<path id="Path_349" class="st11" d="M5497.49,4405.08c0,0,6.79,11.64-1.47,17.84s-21.29-1.11-21.29-1.11L5497.49,4405.08z"/>
		<circle id="Ellipse_72" class="st0" cx="5474.15" cy="4437.37" r="4.13"/>
		<circle id="Ellipse_73" class="st0" cx="5476.21" cy="4455.96" r="4.13"/>
		<circle id="Ellipse_74" class="st0" cx="5478.28" cy="4474.54" r="4.13"/>
		<circle id="Ellipse_75" class="st0" cx="5480.34" cy="4493.12" r="4.13"/>
		<path id="Path_350" class="st0" d="M5444.82,4422.85l18.33,181.9c0,0-44.78,8.39-53.9,5.3s-14.92-185.46-14.92-185.46
			s11.54-23.71,30.84-30.21S5444.82,4422.85,5444.82,4422.85z"/>
		<path id="Path_351" class="st5" d="M5431.15,4590.87c1.6-9.26-2.55-16-11.81-17.6c-9.26-1.6-18.07,4.62-19.66,13.88
			c-1.6,9.26,2.55,16,11.82,17.6L5431.15,4590.87z"/>
		<g id="Group_214">
			<path id="Path_352" class="st0" d="M5396.38,4509.51l22.84-74.11c4.16-14.54-6.33-26.35-20.1-20.09
				c-4.39,1.99-9.38,8.72-13.15,14.97c-3.69,6.17-6.05,13.05-6.93,20.19l-14.94,56.11c-0.88,3.31-0.59,6.81,0.81,9.94l32.7,72.8
				c1.79,4,6.49,5.78,10.48,3.99c0.33-0.15,0.64-0.32,0.95-0.51l14.87-9.28c3.48-2.17,4.77-6.6,3-10.3L5396.38,4509.51"/>
		</g>
		<path id="Path_353" class="st5" d="M5429.94,4577.65L5429.94,4577.65c2.29-1.16,5.09-0.23,6.25,2.06v0l2.39,4.32
			c1.16,2.29,0.23,5.09-2.06,6.24c0,0,0,0,0,0l0,0c-2.29,1.16-5.09,0.23-6.25-2.06l-2.39-4.32
			C5426.72,4581.6,5427.65,4578.81,5429.94,4577.65C5429.94,4577.65,5429.94,4577.65,5429.94,4577.65z"/>
		<path id="Path_354" class="st0" d="M5490.82,4409.98l26.33,163.04c0,0,12.46-3.09,13.19-13.19s-15.29-164.76-15.29-164.76
			s-10.22-4.94-16.43-4.77S5490.82,4409.98,5490.82,4409.98z"/>
		<path id="Path_355" class="st5" d="M5456.21,4424.37L5456.21,4424.37c21.4,0,41.24-9.76,45.19-28.95
			c0.78-3.97,0.38-8.09-1.15-11.84l0,0c-2.65-6.66-3.51-13.9-2.51-21l1.79-12.64c0-23.93-19.4-43.32-43.32-43.32l0,0
			c-23.93,0-43.32,19.39-43.32,43.32c0,0,0,0,0,0v31.12C5412.89,4404.98,5432.28,4424.37,5456.21,4424.37z"/>
		<path id="Path_356" class="st4" d="M5486.11,4392.31c-1.14,4.63-6.12,19.18-21.38,4.81c-0.34-0.32-0.36-0.86-0.04-1.2
			c0.12-0.13,0.27-0.21,0.44-0.25l19.98-4.38c0.46-0.1,0.91,0.19,1.01,0.64C5486.15,4392.05,5486.14,4392.18,5486.11,4392.31z"/>
		<path id="Path_357" class="st6" d="M5480.34,4338.26c0,0-16.52,18.58-33.04,18.58s-25.48,9.45-34.42-2.5
			c0,0-8.01-43.86,39.02-47.52s47.54,40.33,47.54,40.33S5498.93,4332.07,5480.34,4338.26z"/>
	</g>
	<g id="Group_242" transform="translate(-5292 -4262.868)">
		<path id="Path_358" class="st1" d="M6134.55,4384.45h-34.29c-12.75,0-23.08,10.33-23.08,23.08c0,0,0,0,0,0v6.82
			c0,11.95,9.12,21.91,21.02,22.97c-1.68,3.47-3.92,6.63-6.63,9.37c-0.21,0.2-0.22,0.53-0.02,0.74c0.14,0.15,0.36,0.2,0.56,0.13
			c4.46-1.64,12.61-5.18,16.04-10.14h26.39c12.75,0,23.08-10.33,23.08-23.08c0,0,0,0,0,0v-6.82
			C6157.63,4394.78,6147.3,4384.45,6134.55,4384.45C6134.55,4384.45,6134.55,4384.45,6134.55,4384.45z"/>
		<g id="Group_216">
			<path id="Path_359" class="st12" d="M6039.09,4507.17c0,0,1.95,98.81-14.78,141.37l15.49,10.32c0,0,32.74-130.84,21.7-151.69
				L6039.09,4507.17z"/>
			<path id="Rectangle_59" class="st12" d="M5968.94,4639.4h1.78c4.55,0,8.23,3.69,8.23,8.23v133.52c0,4.55-3.69,8.23-8.23,8.23
				h-1.78c-4.55,0-8.23-3.69-8.23-8.23v-133.52C5960.71,4643.08,5964.39,4639.4,5968.94,4639.4z"/>
			<path id="Path_360" class="st3" d="M6034.51,4719.91c-46.63,30.14-119.88-32.94-147.3-49.34c-33.25-19.89,55.08-55.3,75.1-63.5
				s103.54,30.95,114.79,44.26C6099.16,4677.44,6045.77,4712.64,6034.51,4719.91z"/>
			<path id="Path_361" class="st3" d="M6015.62,4449.97c3.21,0.82,55.14,16.16,78.8,20.42c41.1,7.41,33.63,54.2,13.7,66.3
				s-113.15-12.47-122.07-29c-7.1-13.17-9.22-31.06-3.83-46.08C5987.66,4446.47,6001.63,4446.39,6015.62,4449.97z"/>
			<path id="Path_362" class="st13" d="M6008.71,4458.43c3.21,0.82,55.14,16.16,78.8,20.42c41.1,7.41,33.63,54.21,13.7,66.31
				s-113.15-12.47-122.07-29c-7.1-13.17-9.22-31.06-3.83-46.08C5980.75,4454.93,5994.72,4454.85,6008.71,4458.43z"/>
			<path id="Path_363" class="st13" d="M6034.51,4709.22c-46.63,30.14-119.88-32.94-147.3-49.34c-33.25-19.89,55.08-55.3,75.1-63.5
				s103.54,30.95,114.79,44.26C6099.16,4666.74,6045.77,4701.95,6034.51,4709.22z"/>
			<path id="Path_364" class="st12" d="M5957.4,4781.88l-39.09,42.74c-2.81,3.08-2.6,7.85,0.48,10.67c0.59,0.54,1.27,0.99,2.01,1.32
				l0.07,0.03c2.97,1.33,6.47,0.61,8.67-1.8l39.02-42.77c2.81-3.08,2.59-7.86-0.49-10.67c-0.64-0.58-1.37-1.05-2.17-1.38l0,0
				C5962.95,4778.78,5959.55,4779.53,5957.4,4781.88z"/>
			<path id="Path_365" class="st12" d="M5974.54,4778.07l40.85,41.06c2.94,2.96,2.93,7.74-0.03,10.68c-0.57,0.57-1.23,1.04-1.95,1.4
				l-0.07,0.04c-2.92,1.46-6.44,0.88-8.74-1.44l-40.78-41.1c-2.94-2.96-2.92-7.74,0.04-10.68c0.61-0.61,1.33-1.11,2.11-1.47l0,0
				C5968.86,4775.2,5972.29,4775.81,5974.54,4778.07z"/>
			<path id="Path_366" class="st12" d="M5968.15,4780.34c-0.09-2.17,0.14-4.35,0.7-6.45l-41.06,4.1c-3.17,0.32-5.81,2.6-6.58,5.69
				l0,0c-1.01,4.05,1.46,8.14,5.51,9.15c0.84,0.21,1.7,0.27,2.56,0.19l40.66-4.01C5968.88,4786.24,5968.28,4783.31,5968.15,4780.34z
				"/>
			
				<ellipse id="Ellipse_76" transform="matrix(0.866 -0.5 0.5 0.866 -1612.1582 3651.1218)" class="st12" cx="6007.01" cy="4833.89" rx="6.97" ry="12.07"/>
			
				<ellipse id="Ellipse_77" transform="matrix(0.866 -0.5 0.5 0.866 -1608.8563 3653.7864)" class="st12" cx="6013.63" cy="4829.06" rx="6.97" ry="12.07"/>
			
				<ellipse id="Ellipse_78" transform="matrix(0.866 -0.5 0.5 0.866 -1603.5566 3604.8708)" class="st12" cx="5925" cy="4794.71" rx="6.97" ry="12.07"/>
			
				<ellipse id="Ellipse_79" transform="matrix(0.866 -0.5 0.5 0.866 -1600.2544 3607.5347)" class="st12" cx="5931.62" cy="4789.88" rx="6.97" ry="12.07"/>
			
				<ellipse id="Ellipse_80" transform="matrix(0.5 -0.866 0.866 0.5 -1224.7288 7551.9077)" class="st12" cx="5927.78" cy="4836.6" rx="12.07" ry="6.97"/>
			
				<ellipse id="Ellipse_81" transform="matrix(0.5 -0.866 0.866 0.5 -1223.8568 7543.7578)" class="st12" cx="5921.16" cy="4831.77" rx="12.07" ry="6.97"/>
		</g>
		<g id="Group_225">
			<path id="Path_367" class="st0" d="M5987.47,4405.76c0,0,39.03,5.28,7.28,82.16c0,0-20.87,14.35-29.03,14.35
				c0,0,6.8-46.22,2.72-65.25S5987.47,4405.76,5987.47,4405.76z"/>
			<path id="Path_368" class="st1" d="M5860.16,4825.12l-23.11,33.17c0,0,2.73,20.58,8.14,25.54s67.77-49.1,67.77-49.1
				s-9.59-22.51-18.86-27.6S5860.16,4825.12,5860.16,4825.12z"/>
			<path id="Path_369" class="st1" d="M5955.6,4631.99c0,0-108.34,64.62-109.12,80.92s15.16,94.36,16.26,110.98
				c1.11,16.76,41.98,12.08,41.98,12.08l-6.37-87.23c-0.85-7.46-0.98-14.74,5.37-18.75l98.27-62.01L5955.6,4631.99z"/>
			<path id="Path_370" class="st1" d="M6014.45,4647.81c0,0-126.06,101.09-124.16,117.27s0.98,79.35-5.27,94.91
				s47.31,15.12,47.31,15.12l2.21-96.21l93.76-63.98c15.57-10.63,24.88-28.26,24.88-47.11v-14.14L6014.45,4647.81z"/>
			<path id="Path_371" class="st6" d="M5980.04,4484.76c1.37-14.1-8.75-11.19-17.03-9.83c-1.08,1.02-2.11,2.09-3.08,3.21
				c-11.98,16.59-18.64,59.44-23.25,79.71c-3.43,15.08-11.78,22.64-35.37,23.44c-7.57,0.25-13.56-1.69-13.56,5.88v6.57
				c0,7.69-2.81,10.52,4.88,10.63c26.88,0.38,60-1.06,63.11-16.13C5959.58,4569.67,5976.45,4521.8,5980.04,4484.76z"/>
			<path id="Path_372" class="st1" d="M5889.08,4865.08c0,0-33.11,29.23-31.77,37.25s0.1,30.72,31.77,17.37s43.03-34.06,43.03-34.06
				v-14.77L5889.08,4865.08z"/>
			<path id="Path_373" class="st3" d="M6061.38,4578.52"/>
			<path id="Path_374" class="st6" d="M5956.74,4481.5l-11.42,29.62c-5.63,11.86-1.75,22.87,3.54,34.89l5.65,31.84
				c1.67,5.46,1.42,11.33-0.7,16.63l-13.04,39.42c-0.36,4.38,0,9.52,7.42,15.04c12.22,9.11,34.16,29.38,88.7,27.52
				c12.38-0.42,16.96-10.18,17.54-22.55l-13.06-42.45c-0.95-5.65-0.86-11.42,0.26-17.04l25.21-89.36c0.15-3.31-0.62-7.41-3.67-8.72
				c-22.93-9.82-49.95-33.26-100.33-23.82C5959.05,4473.22,5957.05,4477.64,5956.74,4481.5z"/>
			<path id="Path_375" class="st5" d="M6011.18,4495.49c-0.86,0.1-1.73,0.16-2.59,0.17c-16.67-0.58-31.38-7.45-35.06-25.35
				c-0.72-3.67-0.35-7.48,1.06-10.95c2.45-6.16,3.25-12.86,2.32-19.42l-1.65-11.69c0-22.12,26.16-31.49,44.14-27.83
				c9.91,2.02,22.39,5.7,22.39,27.83v1.59c0.08,11.88-1.2,23.74-3.82,35.33c-1.47,6.39-4.32,12.38-8.35,17.55
				C6025.88,4487.46,6017.42,4494.09,6011.18,4495.49z"/>
			<path id="Path_376" class="st14" d="M5987.66,4470.14c1.06,4.28,5.66,17.73,19.77,4.45c0.32-0.3,0.34-0.79,0.04-1.11
				c-0.11-0.12-0.25-0.2-0.4-0.23l-18.48-4.05c-0.42-0.09-0.84,0.17-0.93,0.59C5987.63,4469.9,5987.63,4470.02,5987.66,4470.14z"/>
			<circle id="Ellipse_82" class="st5" cx="5882.3" cy="4588.64" r="17.61"/>
			<path id="Path_377" class="st5" d="M5864.51,4574.66L5864.51,4574.66c-1.91-1.41-4.6-1.01-6.01,0.9l-2.86,3.56
				c-1.41,1.91-1.01,4.6,0.9,6.01l0,0c1.91,1.41,4.6,1.01,6.01-0.9c0,0,0,0,0,0l2.86-3.56
				C5866.82,4578.77,5866.42,4576.07,5864.51,4574.66z"/>
			<path id="Path_378" class="st5" d="M5868.28,4580.41L5868.28,4580.41c-1.91-1.41-4.6-1.01-6.01,0.9c0,0,0,0,0,0l-2.86,3.56
				c-1.41,1.91-1.01,4.6,0.9,6.01c0,0,0,0,0,0l0,0c1.91,1.41,4.6,1.01,6.01-0.9l2.86-3.56
				C5870.59,4584.51,5870.19,4581.82,5868.28,4580.41C5868.28,4580.41,5868.28,4580.41,5868.28,4580.41z"/>
			<path id="Path_379" class="st5" d="M5872.04,4586.15L5872.04,4586.15c-1.91-1.41-4.6-1.01-6.01,0.9l-2.86,3.56
				c-1.41,1.91-1.01,4.6,0.9,6.01l0,0c1.91,1.41,4.6,1.01,6.01-0.9c0,0,0,0,0,0l2.86-3.56
				C5874.36,4590.26,5873.95,4587.57,5872.04,4586.15z"/>
			<g id="Group_217">
				<circle id="Ellipse_83" class="st5" cx="5963.42" cy="4656.33" r="15.74"/>
				<path id="Rectangle_60" class="st5" d="M5954.28,4657.48l0.37,0.75c0.94,1.93,0.14,4.25-1.79,5.19l-12.42,6.06
					c-1.93,0.94-4.25,0.14-5.19-1.79l-0.37-0.76c-0.94-1.93-0.14-4.25,1.79-5.19l12.42-6.06
					C5951.02,4654.76,5953.34,4655.56,5954.28,4657.48z"/>
				<path id="Rectangle_61" class="st5" d="M5960.89,4661.67l0.37,0.76c0.94,1.93,0.14,4.25-1.78,5.19l-12.42,6.06
					c-1.93,0.94-4.25,0.14-5.19-1.78l-0.37-0.75c-0.94-1.93-0.14-4.25,1.78-5.19l12.42-6.06
					C5957.63,4658.94,5959.95,4659.74,5960.89,4661.67z"/>
				<path id="Rectangle_62" class="st5" d="M5967.5,4665.85l0.37,0.75c0.94,1.93,0.14,4.25-1.79,5.19l-12.42,6.06
					c-1.93,0.94-4.25,0.14-5.19-1.79l-0.37-0.76c-0.94-1.93-0.14-4.25,1.79-5.19l12.42-6.06
					C5964.24,4663.12,5966.56,4663.92,5967.5,4665.85z"/>
				<path id="Path_380" class="st5" d="M5940.85,4651.6L5940.85,4651.6c0.21-2.37,2.3-4.11,4.67-3.9l4.56,0.23
					c2.37,0.21,4.11,2.3,3.9,4.67l0,0c-0.21,2.37-2.3,4.11-4.67,3.9l-4.56-0.23C5942.38,4656.05,5940.64,4653.96,5940.85,4651.6z"/>
				<path id="Path_381" class="st5" d="M5936.66,4657.76L5936.66,4657.76c-1.37-1.94-0.9-4.62,1.04-5.99l3.63-2.77
					c1.94-1.37,4.62-0.9,5.99,1.04c0,0,0,0,0,0l0,0c1.37,1.94,0.9,4.62-1.04,5.99c0,0,0,0,0,0l-3.63,2.77
					C5940.71,4660.17,5938.02,4659.7,5936.66,4657.76z"/>
				<path id="Path_382" class="st5" d="M5943.6,4644.88L5943.6,4644.88c0.35-2.35,2.54-3.96,4.89-3.61l4.54,0.5
					c2.35,0.35,3.96,2.55,3.61,4.89c0,0,0,0,0,0l0,0c-0.35,2.35-2.54,3.96-4.89,3.61l-4.54-0.5
					C5944.86,4649.42,5943.24,4647.22,5943.6,4644.88C5943.6,4644.88,5943.6,4644.88,5943.6,4644.88z"/>
			</g>
			<path id="Path_383" class="st5" d="M5875.81,4591.9L5875.81,4591.9c-1.91-1.41-4.6-1.01-6.01,0.9c0,0,0,0,0,0l-2.86,3.56
				c-1.41,1.91-1.01,4.6,0.9,6.01c0,0,0,0,0,0l0,0c1.91,1.41,4.6,1.01,6.01-0.9l2.86-3.56
				C5878.12,4596,5877.72,4593.31,5875.81,4591.9C5875.81,4591.9,5875.81,4591.9,5875.81,4591.9z"/>
			<path id="Path_384" class="st0" d="M5994.2,4437.45c0,0,23.05,37.14,53.78,34.74c0,0-1.88-23.09-4.3-43.29
				c-1.16-9.66-4.22-19.44-11.99-24.71c-21.69-14.71-43.14-3.61-50.62,6.6s-9.45,14.17-5.82,22.88S5994.2,4437.45,5994.2,4437.45z"
				/>
			<path id="Path_385" class="st0" d="M6023.07,4399.64c0,0,55.08,11.39,23.34,88.28c0,0-20.87,14.35-29.03,14.35
				c0,0,6.8-46.22,2.72-65.25S6023.07,4399.64,6023.07,4399.64z"/>
			<path id="Path_386" class="st5" d="M6076.8,4528.13c1.37-14.1-8.75-11.19-17.03-9.83c-1.08,1.02-2.11,2.09-3.08,3.21
				c-11.98,16.59-30.38,59.44-34.99,79.71c-3.43,15.08-18.1,40.71-41.69,41.51c-7.57,0.26-13.56-1.69-13.56,5.89v6.57
				c0,7.69-2.81,10.52,4.88,10.63c26.88,0.38,63.83-19.87,69.43-34.2C6052.27,4602.18,6073.2,4565.16,6076.8,4528.13z"/>
			<path id="Path_387" class="st6" d="M6069,4496.96c4.77,0.59,8.5,4.42,8.95,9.21c0.57,6.23,0.42,17.2-2.21,36.38
				c0,0-1.27,4.59,2.81,10.02s-25.96-0.58-36.77,6.51s-16.25-50.01-1.29-58.16C6050.01,4495.72,6061.73,4496.04,6069,4496.96z"/>
			<g id="Group_223">
				<path id="Path_388" class="st5" d="M5893.44,4545.24l0.27-4.59c0.03-0.61-0.43-1.12-1.04-1.16c-0.28-0.01-0.55,0.08-0.77,0.26
					l-3.51,2.97c-0.46,0.39-0.52,1.09-0.12,1.55c0.1,0.11,0.21,0.2,0.34,0.27l3.24,1.62c0.54,0.27,1.2,0.05,1.47-0.5
					C5893.4,4545.54,5893.44,4545.39,5893.44,4545.24z"/>
				<path id="Rectangle_63" class="st13" d="M5873.47,4582.31l-2.73-1.36c-0.96-0.48-1.35-1.65-0.87-2.62l17.94-35.88
					c0.48-0.96,1.65-1.35,2.62-0.87l2.73,1.36c0.96,0.48,1.35,1.65,0.87,2.62l-17.94,35.88
					C5875.6,4582.41,5874.43,4582.8,5873.47,4582.31z"/>
				<path id="Path_389" class="st15" d="M5890.62,4541.66l2.35,1.17c1.07,0.53,1.5,1.83,0.97,2.9
					c-7.05,11.47-15.07,22.31-23.97,32.41l17.75-35.52C5888.25,4541.55,5889.55,4541.12,5890.62,4541.66z"/>
				<g id="Group_222">
					<g id="Group_220">
						<g id="Group_218">
							<path id="Path_390" class="st9" d="M5875.09,4580.54c0.02,0,0.03-0.01,0.04-0.03l0.53-1.05c0.01-0.02,0.01-0.05-0.01-0.07
								c-0.46-0.41-0.91-0.83-1.36-1.25c-0.39-0.34-0.79-0.68-1.18-1.03c0.51,0.11,1.02,0.22,1.52,0.33c0.61,0.1,1.23,0.2,1.85,0.3
								c0.02,0,0.05-0.01,0.06-0.03c-0.56-0.5-1.11-0.99-1.67-1.49c-0.81-0.12-1.62-0.24-2.42-0.37c-0.02,0-0.05,0.01-0.06,0.03
								c-0.22,0.44-0.44,0.88-0.65,1.32c-0.01,0.02-0.01,0.05,0.01,0.07c1.09,1.11,2.18,2.2,3.29,3.26
								C5875.05,4580.53,5875.07,4580.54,5875.09,4580.54z"/>
						</g>
						<g id="Group_219">
							<path id="Path_391" class="st8" d="M5876.54,4577.71l0.04-0.07l0,0c0.17-0.34,0.34-0.68,0.51-1.02v-0.01
								c0.01-0.02,0.01-0.05-0.01-0.07c-0.47-0.39-0.94-0.78-1.4-1.18l-0.94-0.77l1.21,0.25c0.61,0.11,1.22,0.23,1.82,0.34
								c0.02,0,0.05-0.01,0.06-0.03c0.17-0.34,0.34-0.67,0.5-1.01c0.01-0.02,0.01-0.05-0.01-0.07c-0.46-0.42-0.91-0.84-1.36-1.26
								c-0.31-0.27-0.61-0.54-0.92-0.81c0.39,0.1,0.79,0.19,1.18,0.29c0.59,0.14,1.19,0.28,1.77,0.43c0.03,0.01,0.05-0.01,0.06-0.03
								c0.18-0.36,0.35-0.71,0.53-1.07c0.01-0.02,0.01-0.04,0-0.05c-0.01-0.02-0.02-0.03-0.04-0.03c-1.48-0.32-2.98-0.6-4.48-0.87
								c-0.03,0-0.05,0.01-0.06,0.03l-0.57,1.14c-0.01,0.02-0.01,0.05,0.01,0.07c0.48,0.43,0.96,0.87,1.43,1.31
								c0.25,0.22,0.5,0.44,0.75,0.67c-0.33-0.07-0.66-0.13-0.99-0.2l-1.91-0.35c-0.03-0.01-0.05,0.01-0.06,0.03
								c-0.19,0.39-0.39,0.77-0.58,1.16c-0.01,0.02-0.01,0.05,0.01,0.07l1.8,1.62h-0.01
								C5875.42,4576.72,5875.97,4577.22,5876.54,4577.71L5876.54,4577.71z"/>
						</g>
					</g>
					<g id="Group_221">
						<path id="Path_392" class="st10" d="M5876.09,4577.67l-1.59-1.52l0.38,0.06l1.66,1.5c-0.01,0.02-0.04,0.03-0.06,0.03
							L5876.09,4577.67z"/>
					</g>
				</g>
			</g>
			<path id="Rectangle_64" class="st5" d="M5889.94,4579.54l-0.65,0.54c-1.65,1.36-4.1,1.13-5.46-0.52l-8.8-10.65
				c-1.37-1.65-1.13-4.1,0.52-5.46l0.65-0.53c1.65-1.37,4.1-1.13,5.46,0.52l8.8,10.65
				C5891.83,4575.73,5891.6,4578.17,5889.94,4579.54z"/>
			<g id="Group_224">
				
					<ellipse id="Ellipse_84" transform="matrix(0.1457 -0.9893 0.9893 0.1457 702.2301 9722.833)" class="st16" cx="5981.03" cy="4454.8" rx="9.65" ry="10.14"/>
				
					<ellipse id="Ellipse_85" transform="matrix(0.1457 -0.9893 0.9893 0.1457 722.771 9755.1611)" class="st16" cx="6010.02" cy="4459.07" rx="9.65" ry="10.14"/>
				<path id="Path_393" class="st16" d="M6003.33,4458.08l-3.35-0.49c-3.83-4.9-8.92-1.31-8.92-1.31l-3.35-0.49"/>
			</g>
		</g>
		<g id="Group_226">
			<path id="Path_394" class="st1" d="M5745.18,4563.74v247.14l14.26,5.7l14.44-9.22v-200.62L5745.18,4563.74"/>
			<path id="Path_395" class="st1" d="M5628.35,4628.3l141.67-81.79v208.71l-24.42,52.53v-180.86l-88.54,51.12v193.91l-14.44,9.22
				l-14.26-5.7L5628.35,4628.3z"/>
			<path id="Path_396" class="st17" d="M5950.55,4814.85l-322.44-185.82l141.79-81.86l322.44,185.82L5950.55,4814.85z"/>
			<path id="Path_397" class="st17" d="M6087.52,4735.91l-136.51,78.81v240.76l13.82,5.53l14-8.94v-189.16l85.44-49.33v179.31
				l13.82,5.53l14-8.94v-256.76L6087.52,4735.91z"/>
			<path id="Path_398" class="st1" d="M5628,4629.03v86.23l322.97,183.75v-84.16L5628,4629.03z"/>
		</g>
		<path id="Path_399" class="st18" d="M5808.21,4618.43c-8.79,1.97-17.98-3.85-26.75-1.76c-4.98,1.19-9,4.77-12.79,8.21l-6.68,6.08
			c-0.9,0.71-1.64,1.6-2.19,2.61c-1.53,3.33,1.93,7.17,5.56,7.6s7.12-1.3,10.5-2.71s13.49-0.8,13.49-0.8
			c-1.67,1.5-3.74,2.47-5.96,2.78c-1.02,0.05-2.03,0.23-3.01,0.52c-1,0.32-1.69,1.23-1.74,2.27c0.11,1.67,2.28,2.21,3.95,2.29
			c2.92,0.14,5.84,0.29,8.77,0.4c1.49,0.15,3,0.01,4.44-0.42c1.15-0.51,2.22-1.17,3.18-1.97c3.8-2.58,7.83-4.79,12.05-6.59
			c1.33-0.79,2.87-1.16,4.41-1.06"/>
		<path id="Path_400" class="st12" d="M5804.46,4615.1c0,0,4.2,15.69,12.5,21.34c0,0-1.88,2.67-7.23,2.78c0,0-15.12-4.79-13.48-20.9
			L5804.46,4615.1z"/>
		<g id="Group_228">
			
				<ellipse id="Ellipse_86" transform="matrix(0.866 -0.5 0.5 0.866 -1538.0732 3532.4067)" class="st8" cx="5822.52" cy="4636.29" rx="14.14" ry="24.49"/>
			<g id="Group_227">
				
					<linearGradient id="Path_401_1_" gradientUnits="userSpaceOnUse" x1="3787.9858" y1="5099.54" x2="3790.1816" y2="5099.54" gradientTransform="matrix(1.3232 0 0 -3.9834 -1309.214 24944.9434)">
					<stop  offset="0" style="stop-color:#F71935"/>
					<stop  offset="1" style="stop-color:#FF5146"/>
				</linearGradient>
				<path id="Path_401" class="st19" d="M5830.74,4633.38l-0.43-0.25c-0.28-0.2-0.44-0.52-0.45-0.86v-2.44
					c0-0.33,0.2-0.48,0.45-0.34l0.43,0.25c0.28,0.2,0.44,0.52,0.45,0.86v2.44C5831.19,4633.37,5830.99,4633.52,5830.74,4633.38z"/>
				
					<linearGradient id="Path_402_1_" gradientUnits="userSpaceOnUse" x1="5434.1626" y1="5103.1494" x2="5435.3174" y2="5103.1494" gradientTransform="matrix(21.105 0 0 -16.9512 -109471.2266 91144.1328)">
					<stop  offset="0" style="stop-color:#F71935"/>
					<stop  offset="1" style="stop-color:#FF5146"/>
				</linearGradient>
				<path id="Path_402" class="st20" d="M5827.59,4631.91c0.11-0.6,0.6-0.79,1.19-0.45l3.62,2.09c1.17,0.79,0.49,6.31,0.46,6.73
					c-0.24,3.15-1.45,5.63-3.4,6.92c-5,3.31-12.24-1.62-17.12-10.03c-0.44-0.75-0.48-1.57-0.11-1.91l0.42-0.38
					c0.34-0.31,0.95-0.13,1.46,0.43c1.03,1.14,2.67,2.85,2.83,2.98c2.27,1.96,4.55,2.79,6.29,1.9c1.72-0.88,2.96-2.86,3.69-5.02
					C5826.95,4635.04,5827.37,4633.15,5827.59,4631.91z"/>
			</g>
		</g>
		<g id="Group_229">
			<path id="Path_403" class="st5" d="M5747.56,4674.62l-82.04-47.36l64.59-37.29l82.04,47.36L5747.56,4674.62z"/>
			<path id="Path_404" class="st4" d="M5755.67,4673.81l-82.04-47.36l64.59-37.29l82.04,47.36L5755.67,4673.81z"/>
			<path id="Path_405" class="st5" d="M5764.6,4676.24l-82.04-47.36l64.59-37.29l82.04,47.36L5764.6,4676.24z"/>
			<path id="Path_406" class="st4" d="M5758.92,4667.32l-82.04-47.37l64.59-37.29l82.04,47.37L5758.92,4667.32z"/>
			<path id="Path_407" class="st21" d="M5750.24,4611.89l-10.81-6.24l10.81-6.24l10.81,6.24L5750.24,4611.89z"/>
			<path id="Path_408" class="st21" d="M5761.05,4618.14l-10.81-6.24l10.81-6.24l10.81,6.24L5761.05,4618.14z"/>
			<path id="Path_409" class="st21" d="M5771.87,4624.38l-10.81-6.24l10.81-6.24l10.81,6.24L5771.87,4624.38z"/>
			<path id="Path_410" class="st21" d="M5782.68,4630.62l-10.81-6.24l10.81-6.24l10.81,6.24L5782.68,4630.62z"/>
			<path id="Path_411" class="st21" d="M5793.49,4636.86l-10.81-6.24l10.81-6.24l10.81,6.24L5793.49,4636.86z"/>
			<path id="Path_412" class="st21" d="M5728.62,4611.89l-10.81-6.24l10.81-6.24l10.81,6.24L5728.62,4611.89z"/>
			<path id="Path_413" class="st21" d="M5739.43,4618.14l-10.81-6.24l10.81-6.24l10.81,6.24L5739.43,4618.14z"/>
			<path id="Path_414" class="st21" d="M5750.24,4624.38l-10.81-6.24l10.81-6.24l10.81,6.24L5750.24,4624.38z"/>
			<path id="Path_415" class="st21" d="M5761.05,4630.62l-10.81-6.24l10.81-6.24l10.81,6.24L5761.05,4630.62z"/>
			<path id="Path_416" class="st21" d="M5782.68,4643.1l-10.81-6.24l10.81-6.24l10.81,6.24L5782.68,4643.1z"/>
			<path id="Path_417" class="st21" d="M5717.81,4618.14l-10.81-6.24l10.81-6.24l10.81,6.24L5717.81,4618.14z"/>
			<path id="Path_418" class="st21" d="M5728.62,4624.38l-10.81-6.24l10.81-6.24l10.81,6.24L5728.62,4624.38z"/>
			<path id="Path_419" class="st21" d="M5739.43,4630.62l-10.81-6.24l10.81-6.24l10.81,6.24L5739.43,4630.62z"/>
			<path id="Path_420" class="st21" d="M5761.05,4643.1l-10.81-6.24l10.81-6.24l10.81,6.24L5761.05,4643.1z"/>
			<path id="Path_421" class="st21" d="M5771.87,4649.35l-10.81-6.24l10.81-6.24l10.81,6.24L5771.87,4649.35z"/>
			<path id="Path_422" class="st21" d="M5707,4624.38l-10.81-6.24l10.81-6.24l10.81,6.24L5707,4624.38z"/>
			<path id="Path_423" class="st21" d="M5717.81,4630.62l-10.81-6.24l10.81-6.24l10.81,6.24L5717.81,4630.62z"/>
			<path id="Path_424" class="st21" d="M5728.62,4636.86l-10.81-6.24l10.81-6.24l10.81,6.24L5728.62,4636.86z"/>
			<path id="Path_425" class="st21" d="M5739.43,4643.1l-10.81-6.24l10.81-6.24l10.81,6.24L5739.43,4643.1z"/>
			<path id="Path_426" class="st21" d="M5750.24,4649.35l-10.81-6.24l10.81-6.24l10.81,6.24L5750.24,4649.35z"/>
			<path id="Path_427" class="st21" d="M5761.06,4655.59l-10.81-6.24l10.81-6.24l10.81,6.24L5761.06,4655.59z"/>
			<path id="Path_428" class="st3" d="M5739.43,4605.65l-10.81-6.24l10.81-6.24l10.81,6.24L5739.43,4605.65z"/>
			<path id="Path_429" class="st22" d="M5750.24,4636.86l-10.81-6.24l10.81-6.24l10.81,6.24L5750.24,4636.86z"/>
			<path id="Path_430" class="st23" d="M5771.87,4636.86l-10.81-6.24l10.81-6.24l10.81,6.24L5771.87,4636.86z"/>
			<path id="Path_431" class="st12" d="M5747.65,4593.05l-0.16-0.09c-0.59-0.34-0.52-0.94,0.17-1.33l8.44-4.87
				c0.71-0.4,1.56-0.43,2.3-0.1l0.16,0.09c0.59,0.34,0.52,0.94-0.17,1.33l-8.43,4.87
				C5749.24,4593.34,5748.39,4593.38,5747.65,4593.05z"/>
			<path id="Path_432" class="st12" d="M5775.96,4609.39l-0.16-0.09c-0.59-0.34-0.52-0.94,0.17-1.33l8.43-4.87
				c0.71-0.4,1.56-0.43,2.3-0.1l0.16,0.09c0.59,0.34,0.52,0.94-0.17,1.33l-8.43,4.87
				C5777.56,4609.69,5776.7,4609.73,5775.96,4609.39z"/>
			<path id="Path_433" class="st12" d="M5804.28,4625.74l-0.16-0.09c-0.59-0.34-0.52-0.94,0.17-1.33l8.43-4.87
				c0.71-0.39,1.56-0.43,2.3-0.1l0.16,0.09c0.59,0.34,0.52,0.94-0.17,1.33l-8.43,4.87
				C5805.87,4626.04,5805.02,4626.07,5804.28,4625.74z"/>
		</g>
		<g id="Group_230">
			<path id="Path_434" class="st24" d="M5934.54,4749.9l61.35-38.79l-170.07-103.23L5934.54,4749.9z"/>
			<path id="Path_435" class="st0" d="M5934.54,4749.9l-186.05-111.33v-135.64l186.05,107.41V4749.9z"/>
			<path id="Path_436" class="st24" d="M5925.64,4754.88l-186.05-107.41v-135.64l186.05,107.41V4754.88z"/>
			<path id="Path_437" class="st0" d="M5748.49,4502.93l-8.9,8.9l16.78,9.69"/>
			<path id="Path_438" class="st0" d="M5925.64,4731.07v23.81l8.9-4.98L5925.64,4731.07z"/>
		</g>
		<path id="Path_439" class="st6" d="M6076.8,4528.13c1.37-14.1-8.75-11.19-17.03-9.83c-1.08,1.02-2.11,2.09-3.08,3.21
			c-11.98,16.59-30.38,59.44-34.99,79.71c-3.43,15.08-20.81,37.1-44.4,37.89c-19.62,0.66-10.85,3.93-10.85,9.5v6.57
			c0,7.69-2.81,10.52,4.88,10.63c26.88,0.38,63.83-19.87,69.43-34.2C6052.27,4602.18,6073.2,4565.16,6076.8,4528.13z"/>
		<g id="Group_239">
			<circle id="Ellipse_87" class="st5" cx="6104.42" cy="4413.51" r="14.21"/>
			<g id="Group_238">
				<path id="Path_440" class="st13" d="M6113.41,4408.52l-0.36-0.36c-0.17-0.17-0.43-0.21-0.63-0.09
					c-1.05,0.67-2.44,0.36-3.11-0.69c-0.47-0.74-0.47-1.68,0-2.42c0.12-0.21,0.08-0.47-0.09-0.63l-0.36-0.36
					c-0.64-0.64-1.68-0.64-2.32,0c0,0,0,0,0,0l-11.4,11.4c-0.64,0.64-0.64,1.68,0,2.32l0.34,0.34c0.17,0.18,0.44,0.21,0.65,0.08
					c1.03-0.71,2.44-0.45,3.15,0.58c0.54,0.77,0.54,1.8,0,2.57c-0.13,0.21-0.1,0.48,0.08,0.65l0.34,0.34c0.64,0.64,1.68,0.64,2.32,0
					l11.4-11.4c0.65-0.63,0.69-1.65,0.06-2.3C6113.46,4408.53,6113.45,4408.51,6113.41,4408.52z"/>
				<g id="Group_231">
					<path id="Path_441" class="st8" d="M6098.27,4414.25c-0.11,0-0.22-0.05-0.3-0.13l-0.8-0.8l0.61-0.61l0.8,0.8
						c0.17,0.17,0.17,0.44,0,0.61C6098.5,4414.2,6098.39,4414.25,6098.27,4414.25L6098.27,4414.25z"/>
				</g>
				<g id="Group_232">
					<path id="Path_442" class="st8" d="M6100.3,4416.28c-0.11,0-0.22-0.05-0.31-0.13l-0.8-0.8c-0.17-0.17-0.17-0.44,0-0.61
						s0.44-0.17,0.61,0l0.8,0.8c0.17,0.17,0.17,0.44,0,0.61C6100.52,4416.23,6100.41,4416.28,6100.3,4416.28z"/>
				</g>
				<g id="Group_233">
					<path id="Path_443" class="st8" d="M6107.56,4412.37h-4.26c-0.24-0.01-0.42-0.21-0.41-0.45c0.01-0.22,0.19-0.4,0.41-0.41h4.26
						c0.24-0.01,0.44,0.17,0.45,0.41c0.01,0.24-0.17,0.44-0.41,0.45C6107.59,4412.38,6107.57,4412.38,6107.56,4412.37
						L6107.56,4412.37z"/>
				</g>
				<g id="Group_234">
					<path id="Path_444" class="st8" d="M6102.32,4418.3c-0.11,0-0.22-0.05-0.3-0.13l-0.8-0.8c-0.16-0.18-0.15-0.45,0.03-0.61
						c0.16-0.15,0.42-0.15,0.58,0l0.8,0.8c0.17,0.17,0.17,0.44,0,0.61C6102.55,4418.26,6102.44,4418.3,6102.32,4418.3
						L6102.32,4418.3z"/>
				</g>
				<g id="Group_235">
					<path id="Path_445" class="st8" d="M6104.05,4420.21l-0.8-0.8c-0.16-0.18-0.15-0.45,0.03-0.61c0.16-0.15,0.42-0.15,0.58,0
						l0.8,0.8L6104.05,4420.21z"/>
				</g>
				<g id="Group_236">
					<path id="Path_446" class="st8" d="M6105.43,4410.84c-0.51,0-0.92-0.41-0.92-0.92c0-0.51,0.41-0.92,0.92-0.92
						c0.51,0,0.92,0.41,0.92,0.92c0,0.24-0.1,0.48-0.27,0.65l0,0C6105.91,4410.74,6105.67,4410.84,6105.43,4410.84z
						 M6105.85,4410.34L6105.85,4410.34z M6105.43,4409.64c-0.15,0-0.28,0.12-0.28,0.27c0,0.15,0.12,0.28,0.27,0.28
						c0.07,0,0.15-0.03,0.2-0.08l0,0c0.11-0.11,0.11-0.28,0-0.39C6105.57,4409.67,6105.5,4409.64,6105.43,4409.64z"/>
				</g>
				<g id="Group_237">
					<path id="Path_447" class="st8" d="M6105.43,4415.17L6105.43,4415.17c-0.51,0-0.92-0.42-0.92-0.93c0-0.24,0.1-0.48,0.27-0.65
						c0.36-0.36,0.94-0.36,1.3,0c0.36,0.36,0.36,0.94,0,1.3C6105.9,4415.07,6105.67,4415.17,6105.43,4415.17L6105.43,4415.17z
						 M6105.43,4413.97c-0.15,0-0.28,0.12-0.28,0.27c0,0.07,0.03,0.15,0.08,0.2c0.05,0.05,0.12,0.08,0.19,0.08l0,0
						c0.15,0,0.27-0.13,0.27-0.28C6105.68,4414.09,6105.57,4413.98,6105.43,4413.97L6105.43,4413.97z"/>
				</g>
			</g>
		</g>
		<g id="Group_240">
			<circle id="Ellipse_88" class="st6" cx="6135.64" cy="4392.33" r="14.21"/>
			<path id="Path_448" class="st5" d="M6135.64,4396.31l-4.83,2.54l0.92-5.38l-3.91-3.81l5.4-0.79l2.42-4.89l2.42,4.89l5.4,0.79
				l-3.91,3.81l0.92,5.38L6135.64,4396.31z"/>
		</g>
		<circle id="Ellipse_89" class="st25" cx="6138.88" cy="4436.29" r="11.62"/>
		<path id="Path_449" class="st8" d="M6139.22,4430.72c-0.09-0.19-0.33-0.27-0.52-0.18c-0.08,0.04-0.14,0.1-0.18,0.18l-4.92,9.82
			c-0.09,0.17-0.03,0.37,0.13,0.47c0.09,0.05,0.2,0.06,0.3,0.02l4.68-1.99c0.09-0.04,0.18-0.04,0.27,0l4.72,1.99
			c0.17,0.07,0.38-0.01,0.45-0.18c0.04-0.1,0.04-0.21-0.02-0.3L6139.22,4430.72z"/>
		<g id="Group_241">
			<circle id="Ellipse_90" class="st5" cx="5963.42" cy="4656.33" r="15.74"/>
			<path id="Rectangle_65" class="st5" d="M5954.28,4657.48l0.37,0.75c0.94,1.93,0.14,4.25-1.79,5.19l-12.42,6.06
				c-1.93,0.94-4.25,0.14-5.19-1.79l-0.37-0.76c-0.94-1.93-0.14-4.25,1.79-5.19l12.42-6.06
				C5951.02,4654.76,5953.34,4655.56,5954.28,4657.48z"/>
			<path id="Rectangle_66" class="st5" d="M5960.89,4661.67l0.37,0.76c0.94,1.93,0.14,4.25-1.78,5.19l-12.42,6.06
				c-1.93,0.94-4.25,0.14-5.19-1.78l-0.37-0.75c-0.94-1.93-0.14-4.25,1.78-5.19l12.42-6.06
				C5957.63,4658.94,5959.95,4659.74,5960.89,4661.67z"/>
			<path id="Rectangle_67" class="st5" d="M5967.5,4665.85l0.37,0.75c0.94,1.93,0.14,4.25-1.79,5.19l-12.42,6.06
				c-1.93,0.94-4.25,0.14-5.19-1.79l-0.37-0.76c-0.94-1.93-0.14-4.25,1.79-5.19l12.42-6.06
				C5964.24,4663.12,5966.56,4663.92,5967.5,4665.85z"/>
			<path id="Path_450" class="st5" d="M5939.94,4649.79L5939.94,4649.79c0.21-2.37,2.3-4.11,4.67-3.9l4.56,0.23
				c2.37,0.21,4.11,2.3,3.9,4.67l0,0c-0.21,2.37-2.3,4.11-4.67,3.9l-4.56-0.23C5941.48,4654.24,5939.73,4652.16,5939.94,4649.79z"/>
			<path id="Path_451" class="st5" d="M5935.75,4655.95L5935.75,4655.95c-1.37-1.94-0.9-4.62,1.04-5.99c0,0,0,0,0,0l3.63-2.77
				c1.94-1.37,4.62-0.9,5.99,1.04c0,0,0,0,0,0l0,0c1.37,1.94,0.9,4.62-1.04,5.99c0,0,0,0,0,0l-3.63,2.77
				C5939.8,4658.36,5937.12,4657.89,5935.75,4655.95L5935.75,4655.95z"/>
			<path id="Path_452" class="st5" d="M5944.24,4641L5944.24,4641c1.1-2.11,3.69-2.92,5.8-1.83l4.13,1.95
				c2.11,1.1,2.92,3.69,1.83,5.8l0,0c-1.1,2.11-3.69,2.92-5.8,1.83l-4.13-1.95C5943.96,4645.7,5943.15,4643.11,5944.24,4641z"/>
		</g>
	</g>
</g>
</svg>
