<?xml version="1.0" encoding="utf-8"?>
<!-- Generator: Adobe Illustrator 25.2.0, SVG Export Plug-In . SVG Version: 6.00 Build 0)  -->
<svg version="1.1" id="Layer_1" xmlns="http://www.w3.org/2000/svg" xmlns:xlink="http://www.w3.org/1999/xlink" x="0px" y="0px"
	 viewBox="0 0 662.42 443.89" style="enable-background:new 0 0 662.42 443.89;" xml:space="preserve">
<style type="text/css">
	.st0{fill:#FFD41F;}
	.st1{font-family:'CircularStd-Bold';}
	.st2{font-size:359.521px;}
	.st3{fill:none;stroke:#FCDA3B;stroke-miterlimit:10;}
	.st4{fill:#FC153B;}
	.st5{fill:#1B1464;}
	.st6{fill:#6666DF;}
	.st7{fill:#D0F2FC;}
	.st8{fill:#F2F2F2;}
	.st9{clip-path:url(#SVGID_2_);}
	.st10{clip-path:url(#SVGID_4_);}
	.st11{fill:none;stroke:#1B1464;stroke-width:2.7869;stroke-miterlimit:9.9997;}
	.st12{fill:none;stroke:#1B1464;stroke-width:2.787;stroke-miterlimit:10;stroke-dasharray:3.587;}
	.st13{fill:#FFFFFF;stroke:#FC153B;stroke-width:1.417;stroke-miterlimit:10;}
	.st14{enable-background:new    ;}
	.st15{font-size:8.0293px;}
</style>
<g id="Group_514" transform="translate(-256.093 -321.74)">
	<text transform="matrix(1 0 0 1 256.0925 672.9277)" class="st0 st1 st2">01</text>
	<g id="Group_132" transform="translate(-2068 -5875)">
		<circle id="Ellipse_63" class="st3" cx="2748.37" cy="6263.23" r="7.36"/>
		<circle id="Ellipse_64" class="st4" cx="2744.03" cy="6243.49" r="15.39"/>
		<path id="Path_268" class="st5" d="M2742.62,6284.41c-1.13-11.67,7.24-9.26,14.09-8.14c0.16,0.02,2.45,2.52,2.55,2.65
			c9.92,13.73,15.42,49.18,19.24,65.96c2.84,12.47,9.75,18.74,29.27,19.39c6.26,0.21,11.22-1.4,11.22,4.87v5.44
			c0,6.36,2.32,8.71-4.04,8.8c-22.24,0.32-49.64-0.88-52.22-13.34C2759.56,6354.67,2745.6,6315.06,2742.62,6284.41z"/>
		<path id="Path_269" class="st6" d="M2760.62,6394.85c0,0,54.48,88.04,47.54,99.59c-6.94,11.56-29.32,59.51-29.89,73.38
			c-0.57,13.87-29.19,3.62-29.19,3.62l25.75-78.47l-46.74-69.61L2760.62,6394.85z"/>
		<path id="Path_270" class="st7" d="M2761.91,6281.71l9.45,24.51c4.66,9.82,1.45,18.92-2.94,28.87l-4.67,26.35
			c-1.38,4.52-1.18,9.37,0.57,13.76l10.79,32.62c0.29,3.62,0,7.88-6.14,12.45c-10.12,7.54-28.26,24.31-73.4,22.77
			c-10.24-0.35-7.72-8.43-8.19-18.67l4.49-35.12c0.78-4.67,0.71-9.45-0.21-14.1l-20.86-73.94c-0.13-2.74,0.51-6.13,3.03-7.21
			c18.97-8.13,41.33-27.52,83.01-19.71C2760,6274.87,2761.65,6278.52,2761.91,6281.71z"/>
		<path id="Path_271" class="st5" d="M2701.61,6282.71c0,0-15.63,14.18,7.91,23.17c23.54,8.99,23.53-15.24,23.53-15.24
			L2701.61,6282.71z"/>
		<path id="Path_272" class="st5" d="M2730.05,6292.21c0,0,4.38,19.1,23.99,3.27c14.38-11.6-6.02-23.27-6.02-23.27L2730.05,6292.21z
			"/>
		<circle id="Ellipse_65" class="st6" cx="2668.16" cy="6451.43" r="13.02"/>
		<path id="Rectangle_30" class="st6" d="M2660.86,6453.21L2660.86,6453.21c0.99,1.7,0.4,3.88-1.3,4.86l-9.3,5.37
			c-1.7,0.98-3.87,0.4-4.86-1.3l0,0c-0.98-1.7-0.4-3.87,1.3-4.86l9.3-5.37C2657.71,6450.93,2659.88,6451.51,2660.86,6453.21z"/>
		<path id="Rectangle_31" class="st6" d="M2666.56,6456.28L2666.56,6456.28c0.99,1.7,0.4,3.88-1.3,4.86l-9.3,5.37
			c-1.7,0.98-3.87,0.4-4.86-1.3l0,0c-0.98-1.7-0.4-3.87,1.3-4.86l9.3-5.37C2663.4,6454,2665.58,6454.58,2666.56,6456.28z"/>
		<path id="Rectangle_32" class="st6" d="M2672.26,6459.35L2672.26,6459.35c0.99,1.7,0.4,3.88-1.3,4.86l-9.3,5.37
			c-1.7,0.98-3.87,0.4-4.86-1.3l0,0c-0.98-1.7-0.4-3.87,1.3-4.86l9.3-5.37C2669.1,6457.07,2671.28,6457.65,2672.26,6459.35z"/>
		<path id="Path_273" class="st6" d="M2673.83,6457.24L2673.83,6457.24c1.58-1.17,3.81-0.84,4.97,0.74l2.36,2.94
			c1.17,1.58,0.84,3.81-0.74,4.97l0,0c-1.58,1.17-3.81,0.84-4.97-0.74l-2.37-2.94C2671.92,6460.63,2672.26,6458.41,2673.83,6457.24z
			"/>
		<path id="Path_274" class="st8" d="M2658.14,6443.13l-6.84,6.84c0,0,3.33,5.37,14.61,1.46
			C2677.19,6447.53,2658.14,6443.13,2658.14,6443.13z"/>
		<path id="Path_275" class="st7" d="M2778.75,6568.32l30.05,14.69c0,0,6.3,15.98,4.38,21.74s-68.75-14.57-68.75-14.57
			s0.65-11.88,5.31-19.29C2754.4,6563.49,2778.75,6568.32,2778.75,6568.32z"/>
		<g id="Group_128">
			<g>
				<g>
					<defs>
						<path id="SVGID_1_" d="M2778.75,6568.32l30.05,14.69c0,0,6.3,15.98,4.38,21.74s-68.75-8.25-68.75-8.25s-2.12-20.14,2.54-27.54
							C2751.63,6561.55,2778.75,6568.32,2778.75,6568.32z"/>
					</defs>
					<clipPath id="SVGID_2_">
						<use xlink:href="#SVGID_1_"  style="overflow:visible;"/>
					</clipPath>
					<g id="Group_127" class="st9">
						<path id="Path_276" class="st8" d="M2804.89,6585.57L2804.89,6585.57c1.62-3.57,0.02-7.78-3.55-9.4l0,0l-23.81-10.76
							l-15.1,5.7l33.06,18C2799.07,6590.73,2803.28,6589.15,2804.89,6585.57z"/>
					</g>
				</g>
			</g>
		</g>
		<path id="Path_278" class="st7" d="M2742.16,6585.65c0,0,27.4,24.19,26.29,30.82c-1.11,6.63-0.08,25.42-26.29,14.37
			c-26.21-11.05-25.37-24.71-25.37-24.71l-1.76-16.93L2742.16,6585.65z"/>
		<g id="Group_130">
			<g>
				<g>
					<defs>
						<path id="SVGID_3_" d="M2742.16,6585.65c0,0,27.4,24.19,26.29,30.82c-1.11,6.63-0.08,25.42-26.29,14.37
							c-26.21-11.05-26.12-23.44-26.12-23.44l-1.58-16.96L2742.16,6585.65z"/>
					</defs>
					<clipPath id="SVGID_4_">
						<use xlink:href="#SVGID_3_"  style="overflow:visible;"/>
					</clipPath>
					<g id="Group_129" class="st10">
						<path id="Path_279" class="st8" d="M2745.61,6627.08c7.63,1.63,11.46-9.09,15.82-9.45c1.71-0.15,2.91,1.11,3.74,2.68l0,0
							c0,0,2.98,0.96,4.44-1.04c1.46-2.01-2.75,6.66-2.75,6.66c-1.37,11.22-15.64,7.84-15.64,7.84
							c-31.67-1.87-33.61-31.1-33.61-31.1v-3.4C2717.62,6599.26,2737.98,6625.44,2745.61,6627.08z"/>
						<path id="Path_280" class="st8" d="M2757.58,6609.67L2757.58,6609.67c2.77-2.77,2.77-7.27,0-10.04l0,0l-18.47-18.48
							l-14.52,4.5l22.95,24.03C2750.3,6612.45,2754.79,6612.45,2757.58,6609.67C2757.57,6609.68,2757.57,6609.68,2757.58,6609.67z"
							/>
					</g>
				</g>
			</g>
		</g>
		<path id="Path_282" class="st6" d="M2729.64,6418.87c0,0,13.13,164.68,11.51,168.15c-1.63,3.47-13.99,7.39-26.12,2.19
			l-27.39-165.14L2729.64,6418.87z"/>
		<path id="Path_283" class="st6" d="M2675.33,6361.99"/>
		<path id="Path_284" class="st6" d="M2716.86,6293.29c0.71,0.09,1.43,0.13,2.14,0.14c13.8-0.48,25.97-6.16,29.01-20.98
			c0.6-3.04,0.29-6.19-0.87-9.06c-2.02-5.1-2.69-10.63-1.92-16.07l1.37-9.67c0-18.31-21.65-26.06-36.52-23.02
			c-8.2,1.67-18.53,4.71-18.53,23.02v1.31c-0.06,9.83,0.99,19.64,3.16,29.24c1.21,5.29,3.57,10.25,6.91,14.52
			C2704.69,6286.64,2711.7,6292.13,2716.86,6293.29z"/>
		<circle id="Ellipse_66" class="st6" cx="2823.5" cy="6370.36" r="14.57"/>
		<path id="Path_285" class="st6" d="M2838.23,6358.81L2838.23,6358.81c1.58-1.17,3.81-0.83,4.97,0.74l2.37,2.94
			c1.16,1.58,0.83,3.81-0.74,4.97l0,0c-1.58,1.17-3.81,0.84-4.97-0.74l-2.36-2.94C2836.31,6362.2,2836.64,6359.97,2838.23,6358.81z"
			/>
		<path id="Path_286" class="st6" d="M2835.11,6363.55L2835.11,6363.55c1.58-1.17,3.81-0.83,4.97,0.74l2.36,2.94
			c1.17,1.58,0.84,3.81-0.74,4.97l0,0c-1.58,1.17-3.81,0.84-4.97-0.74l-2.37-2.94C2833.2,6366.95,2833.53,6364.73,2835.11,6363.55z"
			/>
		<path id="Path_287" class="st6" d="M2831.99,6368.31L2831.99,6368.31c1.58-1.17,3.81-0.84,4.97,0.74l2.36,2.94
			c1.17,1.58,0.83,3.81-0.74,4.97l0,0c-1.58,1.17-3.81,0.84-4.97-0.74l-2.36-2.94C2830.08,6371.71,2830.41,6369.48,2831.99,6368.31z
			"/>
		<path id="Path_288" class="st6" d="M2828.87,6373.06L2828.87,6373.06c1.58-1.17,3.81-0.84,4.97,0.74l2.36,2.94
			c1.17,1.58,0.84,3.81-0.74,4.97l0,0c-1.58,1.17-3.81,0.83-4.97-0.74l-2.36-2.94C2826.96,6376.46,2827.29,6374.24,2828.87,6373.06z
			"/>
		<path id="Path_289" class="st5" d="M2683.39,6298.35c2.9,2.27,5.39,8.18,7.07,13.51c1.63,5.26,2.14,10.79,1.5,16.26l-7.15,63.19
			c-0.23,2.21-0.3,4.44-0.19,6.66c0.29,7.42-1.39,14.88-1.93,22.3l-0.8,24.45c0,10.08-23.54,3.39-23.74-1.6
			c0,0,2.76-67.24,2.77-69.05l3.91-64.43C2664.35,6298.08,2674.29,6291.2,2683.39,6298.35z"/>
		<path id="Path_290" class="st4" d="M2730.91,6245.27c0,0-15.06,30.73-40.48,28.75c0,0-8.77-19.11-6.78-35.82
			c0.96-7.99,6.65-17.66,13.08-22.02c17.95-12.17,38.85-1.41,45.05,7.04c6.19,8.45,7.82,11.73,4.81,18.93
			C2743.58,6249.36,2730.91,6245.27,2730.91,6245.27z"/>
		<g id="Group_131">
			
				<ellipse id="Ellipse_67" transform="matrix(0.9893 -0.1457 0.1457 0.9893 -883.5026 462.5535)" class="st11" cx="2715.92" cy="6262.6" rx="8.6" ry="8.18"/>
		</g>
		<path id="Path_291" class="st12" d="M2717.71,6270.87c0,0,2.39,28.58-13.2,30c-13.2,1.2-9.28-12.87-9.28-12.87"/>
		<path id="Path_292" class="st8" d="M2795.78,6455.88l-23.64-57.05l-84.2,21.2l-0.63,58.53c0.19,7.21,5.68,13.18,12.85,13.98
			c22.15,2.47,68.25,3.99,92.84-21.25C2796.91,6467.17,2798,6461.11,2795.78,6455.88z"/>
		<path id="Path_293" class="st4" d="M2736.64,6309.68l2.55,4.51l5.08-1.03l-3.5,3.82l2.55,4.51l-4.72-2.15l-3.5,3.82l0.59-5.14
			l-4.71-2.15l5.08-1.03L2736.64,6309.68z"/>
		<path id="Path_294" class="st8" d="M2741.38,6328.86l2.55,4.51l5.08-1.03l-3.5,3.82l2.55,4.51l-4.71-2.15l-3.5,3.82l0.59-5.14
			l-4.71-2.15l5.08-1.03L2741.38,6328.86z"/>
		
			<rect id="Rectangle_33" x="2809.54" y="6324.9" transform="matrix(0.3446 -0.9388 0.9388 0.3446 -4087.7869 6819.606)" class="st8" width="60.89" height="24.76"/>
		<ellipse id="Ellipse_68" class="st13" cx="2730.65" cy="6277.62" rx="2.35" ry="3.68"/>
		<circle id="Ellipse_69" class="st4" cx="2685.82" cy="6253.53" r="15.39"/>
		<circle id="Ellipse_70" class="st3" cx="2696.53" cy="6276.95" r="7.36"/>
		<path id="Rectangle_34" class="st6" d="M2828.62,6354.71L2828.62,6354.71c0.99,1.7,0.4,3.88-1.3,4.86l-9.3,5.37
			c-1.7,0.98-3.87,0.4-4.86-1.3l0,0c-0.98-1.7-0.4-3.87,1.3-4.86l9.3-5.37C2825.46,6352.42,2827.63,6353,2828.62,6354.71z"/>
		<g class="st14">
			<path d="M2839.18,6317.35l1.21-3.28l-1.18-0.43l0.26-0.7c0.72,0.26,1.37,0.04,1.65-0.44l0.9,0.33l-1.8,4.89L2839.18,6317.35z"/>
			<path d="M2843.02,6314.01c0.5-0.36,1.16-0.51,1.92-0.23c0.76,0.28,1.16,0.82,1.3,1.42c0.15,0.63,0.03,1.28-0.2,1.9
				c-0.23,0.63-0.56,1.2-1.08,1.58c-0.49,0.36-1.15,0.51-1.91,0.23c-0.76-0.28-1.16-0.82-1.31-1.42c-0.15-0.63-0.02-1.28,0.21-1.9
				C2842.19,6314.97,2842.51,6314.39,2843.02,6314.01z M2842.81,6317.32c0.06,0.3,0.23,0.54,0.59,0.67
				c0.36,0.13,0.64,0.06,0.88-0.13c0.31-0.22,0.54-0.63,0.73-1.15s0.28-0.98,0.19-1.34c-0.06-0.3-0.23-0.53-0.58-0.67
				c-0.36-0.13-0.65-0.06-0.88,0.13c-0.3,0.23-0.53,0.64-0.72,1.15C2842.81,6316.49,2842.73,6316.96,2842.81,6317.32z"/>
			<path d="M2846.52,6320.04l5.25-3.63l0.87,0.32l-5.25,3.62L2846.52,6320.04z M2848.86,6315.26c0.68,0.25,1.06,1,0.81,1.7
				c-0.26,0.7-1.04,1.02-1.71,0.77c-0.69-0.25-1.05-1-0.8-1.69C2847.41,6315.34,2848.18,6315.01,2848.86,6315.26z M2848.21,6317.02
				c0.28,0.1,0.57-0.03,0.69-0.35c0.11-0.31-0.02-0.6-0.31-0.7c-0.28-0.11-0.57,0.03-0.69,0.34
				C2847.79,6316.62,2847.93,6316.92,2848.21,6317.02z M2851.2,6319.06c0.68,0.25,1.06,1,0.81,1.7c-0.26,0.7-1.04,1.02-1.71,0.77
				c-0.69-0.25-1.05-1-0.8-1.69C2849.75,6319.14,2850.52,6318.81,2851.2,6319.06z M2850.55,6320.82c0.28,0.1,0.57-0.03,0.7-0.35
				c0.11-0.31-0.02-0.6-0.31-0.7c-0.27-0.1-0.57,0.03-0.69,0.34C2850.13,6320.42,2850.27,6320.72,2850.55,6320.82z"/>
		</g>
		<text transform="matrix(0.9388 0.3446 -0.3446 0.9388 2834.4531 6325.8779)" class="st1 st15">=</text>
		<g class="st14">
			<path d="M2832.54,6335.44l1.21-3.27l-1.18-0.43l0.26-0.7c0.72,0.26,1.37,0.04,1.65-0.44l0.9,0.33l-1.8,4.89L2832.54,6335.44z"/>
			<path d="M2836.39,6332.1c0.5-0.36,1.16-0.51,1.92-0.23c0.76,0.28,1.16,0.82,1.3,1.42c0.15,0.63,0.03,1.28-0.2,1.9
				c-0.23,0.63-0.56,1.2-1.08,1.59c-0.49,0.36-1.15,0.51-1.91,0.23c-0.76-0.28-1.16-0.82-1.31-1.42c-0.15-0.63-0.02-1.28,0.21-1.9
				C2835.54,6333.06,2835.87,6332.48,2836.39,6332.1z M2836.17,6335.41c0.06,0.3,0.23,0.54,0.59,0.67c0.36,0.13,0.64,0.06,0.88-0.13
				c0.31-0.22,0.54-0.63,0.73-1.15c0.19-0.52,0.28-0.98,0.19-1.34c-0.06-0.3-0.23-0.53-0.58-0.67c-0.36-0.13-0.65-0.06-0.88,0.13
				c-0.3,0.23-0.53,0.64-0.72,1.15C2836.17,6334.58,2836.09,6335.05,2836.17,6335.41z"/>
			<path d="M2841.08,6333.83c0.5-0.36,1.16-0.51,1.92-0.23s1.16,0.81,1.3,1.42c0.15,0.62,0.03,1.28-0.2,1.9
				c-0.23,0.62-0.56,1.2-1.08,1.58c-0.49,0.36-1.15,0.51-1.91,0.23c-0.76-0.28-1.16-0.81-1.31-1.42c-0.15-0.63-0.02-1.28,0.21-1.9
				C2840.24,6334.78,2840.57,6334.21,2841.08,6333.83z M2840.86,6337.13c0.06,0.3,0.23,0.54,0.59,0.67
				c0.36,0.14,0.64,0.06,0.88-0.13c0.31-0.22,0.54-0.63,0.73-1.15c0.19-0.51,0.28-0.98,0.19-1.34c-0.06-0.3-0.23-0.53-0.58-0.67
				c-0.36-0.13-0.65-0.06-0.88,0.13c-0.3,0.23-0.53,0.64-0.72,1.15C2840.87,6336.3,2840.78,6336.77,2840.86,6337.13z"/>
			<path d="M2844.57,6339.86l5.25-3.62l0.87,0.32l-5.25,3.62L2844.57,6339.86z M2846.91,6335.06c0.68,0.25,1.06,1,0.81,1.7
				c-0.26,0.7-1.04,1.02-1.71,0.77c-0.69-0.25-1.05-1-0.8-1.69C2845.46,6335.15,2846.24,6334.82,2846.91,6335.06z M2846.27,6336.83
				c0.28,0.11,0.57-0.03,0.7-0.35c0.11-0.31-0.02-0.6-0.31-0.7s-0.57,0.03-0.69,0.34
				C2845.85,6336.44,2845.98,6336.73,2846.27,6336.83z M2849.25,6338.87c0.68,0.25,1.06,1,0.81,1.7c-0.26,0.7-1.04,1.02-1.71,0.77
				c-0.69-0.25-1.05-1-0.8-1.69C2847.8,6338.95,2848.58,6338.62,2849.25,6338.87z M2848.6,6340.63c0.28,0.1,0.58-0.03,0.7-0.35
				c0.11-0.31-0.02-0.6-0.31-0.7c-0.27-0.11-0.57,0.03-0.69,0.34C2848.19,6340.24,2848.33,6340.53,2848.6,6340.63z"/>
		</g>
		<text transform="matrix(0.9388 0.3446 -0.3446 0.9388 2827.8142 6343.9673)" class="st1 st15">?</text>
	</g>
</g>
</svg>
