<?xml version="1.0" encoding="utf-8"?>
<!-- Generator: Adobe Illustrator 25.2.0, SVG Export Plug-In . SVG Version: 6.00 Build 0)  -->
<svg version="1.1" id="Layer_1" xmlns="http://www.w3.org/2000/svg" xmlns:xlink="http://www.w3.org/1999/xlink" x="0px" y="0px"
	 viewBox="0 0 595.28 293.91" style="enable-background:new 0 0 595.28 293.91;" xml:space="preserve">
<style type="text/css">
	.st0{opacity:0.53;fill:#1B1464;enable-background:new    ;}
	.st1{fill:#333333;}
	.st2{fill:#FC153B;}
	.st3{fill:#FFFFFF;}
	.st4{fill:#E6E6E6;}
	.st5{fill:none;stroke:#CCCCCC;stroke-width:2;stroke-miterlimit:10;}
</style>
<g id="Group_304" transform="translate(-12817.001 -5373.592)">
	<path id="Path_510" class="st0" d="M13063.59,5639.96c3.71,9.31,21.36,7.75,21.36,7.75l2.99,1.08c1.89,0.63,3.9,0.81,5.88,0.53
		c1.86-0.16,9.02-1.1,9.07-1.1l9.58-1.17l51.03,4.06c8.54,0.57,17.1-0.73,25.09-3.81l7.11-2.69l4.05-1.53l91.82-53.66
		c9.05-3.43,16.07-9.37,18.72-15.84l17.71-24.34c0.16-0.37,0.2-0.79,0.1-1.19c-0.06-1.7-1-4.87-6.65-6.92l-45.08-16.35l0,0
		l-4.58-1.66l-10.34-3.75l-5.76-2.09l-9.89,3.62c-2.93-2.06-6.17-3.64-9.6-4.7c-12.09-4.02-25.31-3.73-33.05,4.3
		c-5.6,5.82-4.02,11.25,1.85,15.33l-31.23,11.44c-2.21-1.21-4.53-2.21-6.92-2.98c-12.09-4.02-25.31-3.73-33.05,4.3
		c-4.79,4.97-4.34,9.67-0.44,13.48l-39.5,14.5c-1.36,0.43-2.67,1-3.92,1.71C13085.85,5580.67,13061.32,5634.24,13063.59,5639.96z
		 M13131.96,5588.93L13131.96,5588.93l3-0.14l0,0L13131.96,5588.93z M13201.46,5591.49l-1.77,0.65l-1.75-0.09
		C13199.14,5592.1,13200.33,5591.91,13201.46,5591.49L13201.46,5591.49z"/>
	<g id="Group_303">
		<path id="Path_511" class="st1" d="M13103.9,5557.58c0,0-9.59,15.4,0,27.97c5.88,7.71,81.06,36.05,85.73,34.45
			c9.83-3.37,17.19-21.08-3.2-31.02C13179.13,5585.42,13103.9,5557.58,13103.9,5557.58z"/>
		<path id="Path_512" class="st2" d="M13330.03,5421.08c-0.41-0.46-0.91-0.82-1.47-1.05l-59.71-24.83
			c-8.95-3.72-19.16-2.74-27.24,2.61l-91.95,60.88c-7.32,4.85-12.79,12.01-15.54,20.35l-17.4,52.83l-10.89,15.66
			c-1.25,1.8-1.93,3.95-1.93,6.14v4.72c0,0,7.2,2.13,7.52,9.15c0.32,7.02,61.41,28.04,61.41,28.04s6.37-6.79,13.6-6.2v17
			c0,3.27,2.65,5.93,5.93,5.93c1.19,0,2.36-0.36,3.34-1.03l137.17-93.66c1.62-1.1,2.58-2.94,2.58-4.89v-78.57
			C13335.45,5426.74,13332.05,5422.78,13330.03,5421.08z M13187.14,5584.22c-0.17,0.32-0.31,0.66-0.41,1.01l-0.11-0.04
			L13187.14,5584.22z M13194.27,5571.05l2.37-4.37l0,0L13194.27,5571.05z M13220.22,5503.18l-17.43,47.05l18.08-48.82l1.55-1.06
			C13221.42,5501.04,13220.64,5502.03,13220.22,5503.18L13220.22,5503.18z"/>
		<path id="Path_513" class="st2" d="M13103.9,5550.29"/>
		<path id="Path_514" class="st3" d="M13219.53,5524.58c0,0,4.61-17.82,8.56-22.05c2.76-2.95,11.8-8.45,16.52-10.77
			c4.49-2.21,4.29,26.26,4.29,31.52c0,8.29-18.96,20.52-18.96,20.52s-5.74,6.97-7.46-5.54
			C13220.38,5522.97,13219.53,5524.58,13219.53,5524.58z"/>
		<path id="Path_515" class="st1" d="M13242.5,5532.79c0,0,0-9.65-0.97-10.62c-0.97-0.97-6.76-0.97-9.65,0
			c-1.91,0.64-2.14,5.03-2.07,7.96h-0.01c0,0,0,9.65,0.97,10.62c0.97,0.97,6.76,0.97,9.65,0
			C13242.33,5540.12,13242.56,5535.72,13242.5,5532.79L13242.5,5532.79z"/>
		<path id="Path_516" class="st1" d="M13230.49,5538.27c-2.4,1.6-8.01,0-8.01,0v-3.2c3.2,1.6,8.01,0,8.01,0V5538.27z"/>
		<path id="Path_517" class="st1" d="M13229.93,5543.81c-8.26-3.94-8.81-20.03-9.61-20.83c-0.8-0.8-10.42,30.45-8.81,31.25
			S13231.55,5544.59,13229.93,5543.81z"/>
		<path id="Path_518" class="st1" d="M13191.96,5618.88l38.92-26.69l104.56-71.94v-7.55l-143.48,99.79L13191.96,5618.88z"/>
		<path id="Path_519" class="st1" d="M13186.42,5594.68l149.02-101.51v14.73l-149.02,102.48V5594.68z"/>
		<path id="Path_520" class="st1" d="M13264.13,5579.23c-0.44,15.48-6.56,27.87-19.61,27.5c-13.05-0.37-19.27-13.1-18.83-28.58
			c0.43-15.48,7.36-27.85,20.41-27.48C13259.14,5551.03,13264.57,5563.75,13264.13,5579.23z"/>
		<path id="Path_521" class="st4" d="M13258.92,5579.13c-0.26,9.07-3.6,16.33-7.47,16.22c-3.87-0.11-6-7.53-5.74-16.59
			s2.8-16.35,6.67-16.24C13256.25,5562.62,13259.18,5570.06,13258.92,5579.13z"/>
		<path id="Path_522" class="st1" d="M13328.23,5539.97c-0.44,15.48-6.56,27.87-19.61,27.5c-13.05-0.37-19.27-13.1-18.83-28.58
			c0.44-15.48,7.36-27.85,20.41-27.48C13323.24,5511.78,13328.66,5524.49,13328.23,5539.97z"/>
		<path id="Path_523" class="st4" d="M13323.02,5539.87c-0.25,9.07-3.6,16.33-7.47,16.22c-3.87-0.11-6-7.53-5.74-16.59
			s2.8-16.35,6.67-16.24S13323.28,5530.8,13323.02,5539.87z"/>
		<path id="Path_524" class="st3" d="M13126.17,5529.5c-1.16-0.41-1.79-1.67-1.42-2.85c4.59-14.63,10.32-37.61,14.41-37.66
			c3.69-0.05,54.15,17.21,68.12,22.02c2.2,0.75,3.49,3.03,3,5.3c-2.07,9.39-9.26,26.73-11.21,35.55c-0.34,1.53-1.86,2.49-3.39,2.14
			c-0.12-0.03-0.24-0.06-0.35-0.1L13126.17,5529.5z"/>
		<path id="Path_525" class="st3" d="M13195.78,5571.03c0.13-1.03-0.6-1.96-1.63-2.09c-0.38-0.05-0.76,0.02-1.1,0.2
			c-5.38,2.72-11.11,4.68-17.03,5.82c-13.82,2.89-4.58,13.1,1.35,12.25S13193.71,5587.99,13195.78,5571.03z"/>
		<g id="Group_302">
			<path id="Path_526" class="st3" d="M13110.89,5559.42c3.91,3.65,16.44-0.24,7.82-9.5c-2.88-3.06-5.43-6.41-7.6-10.01
				c0,0-4.28,5.99-5.3,7.62C13107.43,5551.01,13108.87,5557.53,13110.89,5559.42z"/>
		</g>
		<path id="Path_527" class="st5" d="M13163.42,5476.71c0,0,3.93-12.68,13.13-18.65c9.2-5.96,79.7-53.83,79.7-53.83"/>
		<path id="Path_528" class="st5" d="M13184.07,5484.77c0,0,3.93-12.68,13.13-18.65c9.2-5.96,79.7-53.83,79.7-53.83"/>
		<path id="Path_529" class="st5" d="M13205.21,5495.23c0,0,3.93-12.69,13.13-18.65c9.2-5.96,79.7-53.83,79.7-53.83"/>
		<path id="Path_530" class="st1" d="M13121.68,5571.6l-1.98-4.28c-0.42-0.9-0.35-1.94,0.16-2.78l5.94-9.67
			c0.75-1.21,2.25-1.72,3.58-1.21l38.41,14.87c1.52,0.59,2.27,2.29,1.69,3.81c-0.04,0.1-0.08,0.2-0.13,0.3l-4.91,9.43
			c-0.35,0.67-0.94,1.18-1.66,1.43l-7.16,2.46c-0.69,0.24-1.44,0.21-2.11-0.07l-30.31-12.82
			C13122.54,5572.78,13121.99,5572.26,13121.68,5571.6z"/>
		<path id="Path_531" class="st3" d="M13250.63,5489.53l2.23,28.6c0.13,1.6,1.53,2.79,3.13,2.65c0.43-0.04,0.85-0.17,1.23-0.39
			l69.19-41.71c0.88-0.52,1.42-1.46,1.42-2.49v-30.76c-0.01-1.6-1.31-2.9-2.91-2.89c-0.53,0-1.04,0.15-1.5,0.42l-71.43,43.87
			C13251.08,5487.41,13250.55,5488.45,13250.63,5489.53z"/>
		
			<ellipse id="Ellipse_105" transform="matrix(0.29 -0.957 0.957 0.29 4000.3818 16531.8418)" class="st3" cx="13142.12" cy="5569.79" rx="2.23" ry="4.46"/>
		<path id="Path_532" class="st1" d="M13145.82,5469.45l38.17-56.18c0.04-0.07,0.1-0.12,0.18-0.15l0.71-0.33l-36.03,56.05
			c-0.13,0.2-0.07,0.48,0.13,0.61c0.01,0.01,0.02,0.01,0.03,0.02l1.24,0.67h-4.06c-0.24,0-0.44-0.2-0.43-0.44
			C13145.75,5469.61,13145.77,5469.52,13145.82,5469.45z"/>
	</g>
</g>
</svg>
