<?xml version="1.0" encoding="utf-8"?>
<!-- Generator: Adobe Illustrator 25.2.0, SVG Export Plug-In . SVG Version: 6.00 Build 0)  -->
<svg version="1.1" id="Layer_1" xmlns="http://www.w3.org/2000/svg" xmlns:xlink="http://www.w3.org/1999/xlink" x="0px" y="0px"
	 viewBox="0 0 233.2 250.16" style="enable-background:new 0 0 233.2 250.16;" xml:space="preserve">
<style type="text/css">
	.st0{opacity:0.53;fill:#1B1464;enable-background:new    ;}
	.st1{fill:#333333;}
	.st2{fill:#FC153B;}
	.st3{fill:#FFFFFF;}
	.st4{fill:#E6E6E6;}
	.st5{fill:none;stroke:#CCCCCC;stroke-width:2;stroke-miterlimit:10;}
</style>
<g id="Group_430" transform="translate(-9513 -7300.856)">
	<path id="Path_698" class="st0" d="M9708.88,7466.61c-0.9-0.51-1.85-0.93-2.83-1.24l-28.59-10.5c2.82-2.76,3.15-6.16-0.32-9.76
		c-5.6-5.82-15.17-6.03-23.93-3.12c-1.73,0.56-3.41,1.29-5.01,2.16l-22.61-8.28c4.25-2.96,5.39-6.89,1.34-11.1
		c-5.6-5.82-15.17-6.03-23.93-3.12c-2.48,0.76-4.82,1.91-6.95,3.4l-7.16-2.62l-4.17,1.51l-7.49,2.72l-3.32,1.2l0,0l-32.64,11.84
		c-4.09,1.48-4.77,3.77-4.81,5.01c-0.07,0.29-0.04,0.59,0.08,0.86l12.82,17.62c1.92,4.69,7,8.98,13.55,11.47l66.47,38.85l2.93,1.11
		l5.15,1.95c5.78,2.23,11.98,3.17,18.16,2.76l36.95-2.94l6.94,0.85c0.03,0,5.22,0.69,6.56,0.8c1.43,0.2,2.88,0.07,4.25-0.38
		l2.16-0.79c0,0,12.78,1.13,15.46-5.61C9729.6,7507.12,9711.84,7468.34,9708.88,7466.61z M9676.28,7474.22L9676.28,7474.22l2.17,0.1
		l0,0L9676.28,7474.22z M9630.68,7476.58l-1.27,0.07l-1.28-0.47C9628.95,7476.47,9629.82,7476.61,9630.68,7476.58L9630.68,7476.58z"
		/>
	<g id="Group_429">
		<path id="Path_699" class="st1" d="M9698.77,7451.62c0,0,6.94,11.15,0,20.25c-4.26,5.58-58.69,26.1-62.07,24.94
			c-7.12-2.44-12.45-15.26,2.32-22.46C9644.31,7471.78,9698.77,7451.62,9698.77,7451.62z"/>
		<path id="Path_700" class="st2" d="M9531.14,7362.26v56.88c0,1.42,0.7,2.74,1.87,3.54l99.31,67.81c1.96,1.34,4.63,0.83,5.96-1.12
			c0.49-0.71,0.75-1.56,0.75-2.42v-12.31c5.23-0.43,9.84,4.49,9.84,4.49s44.23-15.22,44.46-20.3s5.44-6.62,5.44-6.62v-3.41
			c0-1.59-0.49-3.14-1.39-4.45l-7.89-11.34l-12.59-38.25c-1.99-6.04-5.95-11.23-11.25-14.73l-66.57-44.07
			c-5.85-3.87-13.24-4.58-19.72-1.89l-43.23,17.98c-0.41,0.17-0.77,0.43-1.07,0.76C9533.6,7354.03,9531.14,7356.9,9531.14,7362.26z
			 M9638.89,7471.61l-0.08,0.03c-0.08-0.25-0.18-0.5-0.3-0.73L9638.89,7471.61z M9631.63,7458.21L9631.63,7458.21l1.71,3.16
			L9631.63,7458.21z M9612.96,7410.19l1.12,0.77l13.09,35.34l-12.62-34.07C9614.25,7411.41,9613.69,7410.69,9612.96,7410.19
			L9612.96,7410.19z"/>
		<path id="Path_701" class="st2" d="M9698.77,7446.34"/>
		<path id="Path_702" class="st3" d="M9615.07,7427.74c0,0-3.34-12.9-6.2-15.96c-1.99-2.14-8.55-6.12-11.96-7.79
			c-3.25-1.6-3.11,19.02-3.11,22.82c0,6,13.73,14.85,13.73,14.85s4.16,5.04,5.4-4.01
			C9614.44,7426.57,9615.07,7427.74,9615.07,7427.74z"/>
		<path id="Path_703" class="st1" d="M9598.42,7433.67c0,0,0-6.99,0.7-7.69s4.89-0.7,6.99,0c1.38,0.46,1.55,3.64,1.5,5.77h0.01
			c0,0,0,6.99-0.7,7.69s-4.89,0.7-6.99,0C9598.55,7438.98,9598.38,7435.8,9598.42,7433.67L9598.42,7433.67z"/>
		<path id="Path_704" class="st1" d="M9607.12,7437.64c1.74,1.16,5.8,0,5.8,0v-2.32c-2.32,1.16-5.8,0-5.8,0V7437.64z"/>
		<path id="Path_705" class="st1" d="M9607.53,7441.66c5.98-2.85,6.38-14.5,6.96-15.08s7.54,22.04,6.38,22.62
			S9606.36,7442.22,9607.53,7441.66z"/>
		<path id="Path_706" class="st1" d="M9635.02,7496.01l-28.18-19.33l-75.7-52.08v-5.46l103.88,72.25V7496.01z"/>
		<path id="Path_707" class="st1" d="M9639.03,7478.48l-107.89-73.49v10.67l107.89,74.19V7478.48z"/>
		<path id="Path_708" class="st1" d="M9582.77,7467.3c0.32,11.21,4.75,20.18,14.2,19.91s13.95-9.48,13.63-20.69
			s-5.33-20.16-14.78-19.9S9582.45,7456.09,9582.77,7467.3z"/>
		<path id="Path_709" class="st4" d="M9586.54,7467.22c0.18,6.56,2.61,11.82,5.41,11.74s4.34-5.45,4.16-12.01
			s-2.03-11.84-4.83-11.76S9586.35,7460.66,9586.54,7467.22z"/>
		<path id="Path_710" class="st1" d="M9536.36,7438.87c0.32,11.21,4.75,20.18,14.2,19.91s13.95-9.48,13.63-20.69
			s-5.33-20.16-14.78-19.89S9536.05,7427.66,9536.36,7438.87z"/>
		<path id="Path_711" class="st4" d="M9540.14,7438.8c0.18,6.56,2.61,11.82,5.41,11.74s4.34-5.45,4.16-12.01s-2.03-11.84-4.83-11.76
			S9539.95,7432.23,9540.14,7438.8z"/>
		<path id="Path_712" class="st3" d="M9682.65,7431.3c0.84-0.3,1.3-1.21,1.03-2.06c-3.32-10.59-7.47-27.23-10.43-27.27
			c-2.67-0.03-39.2,12.46-49.31,15.94c-1.59,0.54-2.53,2.19-2.17,3.84c1.5,6.8,6.71,19.35,8.12,25.74c0.25,1.11,1.35,1.8,2.45,1.55
			c0.08-0.02,0.17-0.04,0.25-0.07L9682.65,7431.3z"/>
		<path id="Path_713" class="st3" d="M9632.25,7461.36c-0.09-0.74,0.44-1.42,1.18-1.51c0.27-0.03,0.55,0.02,0.79,0.14
			c3.89,1.97,8.04,3.39,12.33,4.22c10.01,2.1,3.32,9.49-0.98,8.87S9633.75,7473.64,9632.25,7461.36z"/>
		<g id="Group_428">
			<path id="Path_714" class="st3" d="M9693.71,7452.95c-2.83,2.65-11.9-0.17-5.66-6.88c2.09-2.21,3.93-4.64,5.5-7.25
				c0,0,3.1,4.34,3.83,5.51C9696.22,7446.87,9695.17,7451.58,9693.71,7452.95z"/>
		</g>
		<path id="Path_715" class="st5" d="M9655.68,7393.08c0,0-2.84-9.18-9.51-13.5s-57.7-38.97-57.7-38.97"/>
		<path id="Path_716" class="st5" d="M9640.73,7398.91c0,0-2.84-9.18-9.51-13.49s-57.7-38.97-57.7-38.97"/>
		<path id="Path_717" class="st5" d="M9625.42,7406.48c0,0-2.84-9.18-9.51-13.5s-57.7-38.97-57.7-38.97"/>
		<path id="Path_718" class="st1" d="M9685.9,7461.77l1.43-3.1c0.3-0.65,0.25-1.4-0.12-2.01l-4.3-7c-0.54-0.88-1.63-1.24-2.59-0.87
			l-27.81,10.77c-1.1,0.43-1.65,1.66-1.22,2.76c0.03,0.07,0.06,0.14,0.1,0.21l3.55,6.83c0.25,0.49,0.68,0.86,1.2,1.03l5.18,1.78
			c0.5,0.17,1.04,0.15,1.52-0.05l21.94-9.28C9685.28,7462.63,9685.67,7462.25,9685.9,7461.77z"/>
		<path id="Path_719" class="st3" d="M9592.54,7402.36l-1.62,20.71c-0.09,1.15-1.1,2.02-2.25,1.93c-0.32-0.02-0.63-0.12-0.9-0.29
			l-50.1-30.2c-0.64-0.38-1.03-1.06-1.03-1.8v-22.27c0-1.16,0.95-2.1,2.11-2.09c0.38,0,0.76,0.11,1.08,0.31l51.71,31.76
			C9592.21,7400.82,9592.6,7401.57,9592.54,7402.36z"/>
		
			<ellipse id="Ellipse_117" transform="matrix(0.957 -0.29 0.29 0.957 -1747.9697 3125.3081)" class="st3" cx="9671.1" cy="7460.47" rx="3.23" ry="1.61"/>
		<path id="Path_720" class="st1" d="M9668.42,7387.82l-27.63-40.67c-0.03-0.05-0.08-0.08-0.13-0.11l-0.51-0.24l26.09,40.58
			c0.09,0.15,0.05,0.34-0.09,0.44c-0.01,0-0.01,0.01-0.02,0.01l-0.91,0.49h2.94c0.17,0,0.32-0.14,0.32-0.32
			C9668.48,7387.94,9668.46,7387.87,9668.42,7387.82z"/>
	</g>
</g>
</svg>
