<?xml version="1.0" encoding="utf-8"?>
<!-- Generator: Adobe Illustrator 25.2.0, SVG Export Plug-In . SVG Version: 6.00 Build 0)  -->
<svg version="1.1" id="Layer_1" xmlns="http://www.w3.org/2000/svg" xmlns:xlink="http://www.w3.org/1999/xlink" x="0px" y="0px"
	 viewBox="0 0 776 443.89" style="enable-background:new 0 0 776 443.89;" xml:space="preserve">
<style type="text/css">
	.st0{fill:#1B1464;}
	.st1{opacity:0.53;fill:#1B1464;enable-background:new    ;}
	.st2{fill:#333333;}
	.st3{fill:#FC153B;}
	.st4{fill:#FFFFFF;}
	.st5{fill:#E6E6E6;}
	.st6{fill:none;stroke:#CCCCCC;stroke-width:1.441;stroke-miterlimit:10;}
	.st7{fill:#FCDA3B;}
	.st8{fill:#FFD41F;}
	.st9{font-family:'CircularStd-Bold';}
	.st10{font-size:378.7072px;}
	.st11{font-size:64.753px;}
</style>
<g>
	<path id="Rectangle_18" class="st0" d="M431.44,37.26h229.18c19.11,0,34.6,15.49,34.6,34.6v73.92c0,19.11-15.49,34.6-34.6,34.6
		H431.44c-19.11,0-34.6-15.49-34.6-34.6V71.86C396.84,52.75,412.33,37.26,431.44,37.26z"/>
	<g id="Group_66" transform="translate(-2324.093 -8787.74)">
		<path id="Path_150" class="st1" d="M2793.45,9196.52c4.18,10.51,24.09,8.74,24.09,8.74l3.38,1.22c2.13,0.71,4.4,0.91,6.63,0.6
			c2.09-0.19,10.18-1.25,10.22-1.25l10.81-1.33l57.56,4.58c9.63,0.65,19.29-0.83,28.29-4.3l8.01-3.04l4.57-1.73l103.56-60.53
			c10.21-3.87,18.12-10.57,21.12-17.87l19.98-27.46c0.19-0.42,0.22-0.89,0.11-1.34c-0.07-1.92-1.13-5.49-7.5-7.8l-50.85-18.45l0,0
			l-5.17-1.87l-11.67-4.23l-6.5-2.36l-11.15,4.09c-3.31-2.32-6.96-4.11-10.83-5.29c-13.64-4.54-28.56-4.21-37.27,4.86
			c-6.32,6.56-4.54,12.69,2.08,17.3l-35.23,12.9c-2.5-1.36-5.1-2.49-7.8-3.37c-13.64-4.54-28.56-4.21-37.28,4.86
			c-5.4,5.62-4.89,10.91-0.49,15.21l-44.55,16.36c-1.54,0.48-3.02,1.13-4.41,1.93C2818.55,9129.65,2790.89,9190.07,2793.45,9196.52z
			 M2870.57,9138.97L2870.57,9138.97l3.38-0.16l0,0L2870.57,9138.97z M2948.96,9141.86l-1.99,0.74l-1.97-0.1
			C2946.34,9142.54,2947.69,9142.32,2948.96,9141.86L2948.96,9141.86z"/>
		<g id="Group_65">
			<path id="Path_151" class="st2" d="M2838.91,9103.6c0,0-10.82,17.37,0,31.54c6.64,8.7,91.44,40.66,96.7,38.87
				c11.09-3.8,19.39-23.78-3.61-34.99C2923.77,9135.01,2838.91,9103.6,2838.91,9103.6z"/>
			<path id="Path_152" class="st3" d="M3093.98,8949.64c-0.46-0.51-1.03-0.92-1.66-1.18l-67.35-28.01
				c-10.1-4.2-21.62-3.1-30.73,2.94l-103.72,68.67c-8.26,5.46-14.43,13.55-17.53,22.95l-19.62,59.59l-12.29,17.66
				c-1.42,2.03-2.17,4.45-2.17,6.93v5.32c0,0,8.12,2.41,8.48,10.32s69.28,31.62,69.28,31.62s7.18-7.67,15.33-6.99v19.18
				c0,3.69,3,6.69,6.69,6.69c1.35,0,2.66-0.4,3.77-1.16l154.73-105.65c1.83-1.25,2.92-3.31,2.92-5.52v-88.62
				C3100.09,8956.02,3096.26,8951.56,3093.98,8949.64z M2932.8,9133.65c-0.19,0.37-0.36,0.75-0.48,1.14l-0.12-0.04L2932.8,9133.65z
				 M2940.85,9118.8l2.66-4.92l0,0L2940.85,9118.8z M2970.12,9042.25l-19.66,53.07l20.39-55.07l1.75-1.2
				C2971.47,9039.83,2970.6,9040.94,2970.12,9042.25L2970.12,9042.25z"/>
			<path id="Path_153" class="st3" d="M2838.91,9095.38"/>
			<path id="Path_154" class="st4" d="M2969.33,9066.38c0,0,5.2-20.09,9.66-24.87c3.11-3.33,13.32-9.53,18.63-12.15
				c5.06-2.49,4.84,29.63,4.84,35.56c0,9.34-21.38,23.14-21.38,23.14s-6.47,7.86-8.41-6.25
				C2970.3,9064.57,2969.33,9066.38,2969.33,9066.38z"/>
			<path id="Path_155" class="st2" d="M2995.26,9075.64c0,0,0-10.89-1.09-11.98c-1.09-1.09-7.62-1.09-10.89,0
				c-2.15,0.71-2.42,5.67-2.34,8.98h-0.01c0,0,0,10.89,1.09,11.98c1.09,1.09,7.62,1.09,10.89,0
				C2995.06,9083.91,2995.33,9078.95,2995.26,9075.64L2995.26,9075.64z"/>
			<path id="Path_156" class="st2" d="M2981.7,9081.83c-2.71,1.8-9.04,0-9.04,0v-3.61c3.61,1.81,9.04,0,9.04,0V9081.83z"/>
			<path id="Path_157" class="st2" d="M2981.07,9088.08c-9.32-4.45-9.94-22.6-10.84-23.5c-0.9-0.9-11.74,34.34-9.94,35.25
				C2962.1,9100.73,2982.9,9088.95,2981.07,9088.08z"/>
			<path id="Path_158" class="st2" d="M2938.24,9172.75l43.9-30.11l117.95-81.14v-8.51l-161.85,112.55V9172.75z"/>
			<path id="Path_159" class="st2" d="M2932,9145.46l168.09-114.51v16.63L2932,9163.16V9145.46z"/>
			<path id="Path_160" class="st2" d="M3019.65,9128.03c-0.49,17.46-7.4,31.43-22.12,31.02c-14.72-0.41-21.74-14.78-21.24-32.24
				c0.49-17.46,8.3-31.41,23.02-31C3014.04,9096.23,3020.14,9110.57,3019.65,9128.03z"/>
			<path id="Path_161" class="st5" d="M3013.78,9127.9c-0.29,10.23-4.06,18.42-8.42,18.3c-4.37-0.12-6.76-8.49-6.49-18.72
				c0.29-10.23,3.15-18.44,7.52-18.32C3010.76,9109.28,3014.07,9117.69,3013.78,9127.9z"/>
			<path id="Path_162" class="st2" d="M3091.95,9083.75c-0.49,17.46-7.4,31.43-22.12,31.02c-14.72-0.41-21.74-14.78-21.24-32.24
				c0.49-17.46,8.3-31.41,23.02-31C3086.33,9051.94,3092.45,9066.28,3091.95,9083.75z"/>
			<path id="Path_163" class="st5" d="M3086.07,9083.62c-0.29,10.23-4.06,18.42-8.42,18.3c-4.37-0.12-6.76-8.49-6.49-18.72
				c0.29-10.23,3.15-18.44,7.52-18.32C3083.07,9065,3086.36,9073.39,3086.07,9083.62z"/>
			<path id="Path_164" class="st4" d="M2864.03,9071.93c-1.31-0.47-2.03-1.88-1.6-3.21c5.18-16.5,11.64-42.42,16.25-42.48
				c4.17-0.05,61.07,19.41,76.83,24.84c2.48,0.85,3.94,3.41,3.39,5.98c-2.34,10.6-10.45,30.14-12.65,40.1
				c-0.39,1.73-2.09,2.81-3.82,2.42c-0.13-0.03-0.27-0.07-0.39-0.11L2864.03,9071.93z"/>
			<path id="Path_165" class="st4" d="M2942.55,9118.78c0.14-1.16-0.68-2.22-1.84-2.35c-0.42-0.06-0.86,0.02-1.24,0.22
				c-6.07,3.08-12.54,5.28-19.21,6.56c-15.59,3.26-5.17,14.78,1.53,13.82C2928.48,9136.07,2940.22,9137.91,2942.55,9118.78z"/>
			<g id="Group_64">
				<path id="Path_166" class="st4" d="M2846.8,9105.67c4.41,4.12,18.53-0.27,8.82-10.72c-3.25-3.44-6.12-7.23-8.57-11.29
					c0,0-4.84,6.75-5.97,8.59C2842.89,9096.19,2844.53,9103.55,2846.8,9105.67z"/>
			</g>
			<path id="Path_167" class="st6" d="M2906.06,9012.4c0,0,4.44-14.31,14.81-21.03c10.37-6.72,89.9-60.72,89.9-60.72"/>
			<path id="Path_168" class="st6" d="M2929.35,9021.48c0,0,4.43-14.31,14.81-21.03c10.39-6.72,89.9-60.72,89.9-60.72"/>
			<path id="Path_169" class="st6" d="M2953.19,9033.28c0,0,4.43-14.31,14.81-21.03c10.39-6.72,89.9-60.72,89.9-60.72"/>
			<path id="Path_170" class="st2" d="M2858.97,9119.41l-2.23-4.82c-0.47-1.01-0.4-2.18,0.19-3.14l6.7-10.91
				c0.84-1.37,2.54-1.94,4.03-1.36l43.32,16.78c1.72,0.66,2.56,2.58,1.91,4.3c-0.04,0.11-0.1,0.23-0.16,0.33l-5.54,10.64
				c-0.39,0.76-1.07,1.34-1.87,1.62l-8.08,2.77c-0.78,0.27-1.62,0.23-2.37-0.09l-34.19-14.46
				C2859.93,9120.76,2859.33,9120.16,2858.97,9119.41z"/>
			<path id="Path_171" class="st4" d="M3004.43,9026.85l2.52,32.27c0.14,1.79,1.72,3.14,3.51,3c0.5-0.03,0.98-0.19,1.4-0.45
				l78.05-47.06c0.99-0.59,1.6-1.66,1.6-2.81v-34.69c0-1.81-1.46-3.26-3.26-3.26c-0.6,0-1.19,0.17-1.7,0.48l-80.58,49.49
				C3004.93,9024.45,3004.33,9025.62,3004.43,9026.85z"/>
			
				<ellipse id="Ellipse_35" transform="matrix(0.29 -0.957 0.957 0.29 -6679.5376 9231.1904)" class="st4" cx="2881.76" cy="9117.39" rx="2.52" ry="5.04"/>
			<path id="Path_172" class="st2" d="M2886.2,9004.2l43.06-63.37c0.04-0.08,0.12-0.13,0.2-0.17l0.79-0.38l-40.65,63.23
				c-0.14,0.23-0.08,0.54,0.14,0.68c0.01,0.01,0.02,0.01,0.03,0.02l1.42,0.77h-4.58c-0.27,0-0.49-0.22-0.49-0.49
				C2886.11,9004.37,2886.15,9004.28,2886.2,9004.2z"/>
		</g>
	</g>
	<path id="Path_173" class="st7" d="M502.46,130.22c-8.72,0-16.47-3.64-22.77-9.43c-6.32-5.81-9.06-14.44-9.43-22.77
		c-0.36-8.02,3.84-17.18,9.43-22.77c2.07-2.05,4.41-3.8,6.96-5.2c-21.23,0.55-37.99,18.2-37.44,39.42s18.2,37.99,39.42,37.44
		c15.51-0.4,29.26-10.08,34.86-24.56C517.62,127.33,510.19,130.12,502.46,130.22z"/>
	<text transform="matrix(1 0 0 1 -5.1035 337.884)" class="st8 st9 st10">04</text>
	<text transform="matrix(1 0 0 1 580.5801 126.8879)" class="st4 st9 st11">:(</text>
</g>
</svg>
