<?xml version="1.0" encoding="utf-8"?>
<!-- Generator: Adobe Illustrator 25.2.0, SVG Export Plug-In . SVG Version: 6.00 Build 0)  -->
<svg version="1.1" id="Layer_1" xmlns="http://www.w3.org/2000/svg" xmlns:xlink="http://www.w3.org/1999/xlink" x="0px" y="0px"
	 viewBox="0 0 662.42 478.92" style="enable-background:new 0 0 662.42 478.92;" xml:space="preserve">
<style type="text/css">
	.st0{fill:#FFD41F;}
	.st1{font-family:'CircularStd-Bold';}
	.st2{font-size:346.8039px;}
	.st3{fill:#333333;}
	.st4{fill:#4D4D4D;}
	.st5{fill:none;stroke:#FCDA3B;stroke-width:2.465;stroke-miterlimit:10;}
	.st6{fill:#FCDA3B;}
	.st7{fill:#F2F2F2;}
	.st8{clip-path:url(#SVGID_2_);}
	.st9{clip-path:url(#SVGID_4_);}
	.st10{fill:#FFFFFF;}
	.st11{fill:#29ABE2;}
	.st12{fill:none;stroke:#231F20;stroke-width:2.6429;stroke-miterlimit:10.0035;}
	.st13{fill:none;stroke:#231F20;stroke-width:2.642;stroke-miterlimit:10;}
	.st14{opacity:0.53;fill:#1B1464;enable-background:new    ;}
</style>
<g>
	<g transform="translate(-4553.093 -6156.74)">
		<path d="M5064.75,6247.25c8.31,24.95,9.7,151.05-12.47,162.14c-22.17,11.09-77.61,12.47-94.24-5.54
			c-16.63-18.02-15.24-180.16,13.86-178.77C5001,6226.46,5056.44,6222.31,5064.75,6247.25z"/>
		<path d="M4957.99,6378.52c0,0-65.08-9.32-77.55,17.02c-12.48,26.33,66.52,83.15,131.66,65.13c65.13-18.02,40.19-60.98,40.19-60.98
			L4957.99,6378.52z"/>
	</g>
	<g>
		<text transform="matrix(1 0 0 1 -4.1875 307.6963)" class="st0 st1 st2">02</text>
		<g transform="translate(-4553.093 -6156.74)">
			<path class="st3" d="M4966.08,6256.42c0.34,0.51,0.55,1.1,0.61,1.7c0.94,10.74-16.32,38.47-18.53,34.27
				c-1.87-3.56-25.86-56.92-33.79-74.62c-1.89-4.2-1.69-9.05,0.52-13.08c0.15-0.27,0.31-0.56,0.46-0.83
				c2.36-4.21,7.02-6.18,11.84-5.81c20.31,1.6,49.35,1.5,51.33,2.91l4.3,12.11l0.06,0.05c3,2.19,1.42,6.98-2.29,7.1l-30.04,1.05
				c-2.2,0.07-3.93,1.93-3.85,4.13c0.02,0.73,0.24,1.43,0.64,2.03L4966.08,6256.42z"/>
			<path d="M5052.37,6296.86l1.69,0.2c2.57,0.3,4.41,2.63,4.11,5.2l-7.13,60.88c-0.3,2.57-2.63,4.41-5.2,4.11l-1.69-0.2
				c-2.57-0.3-4.41-2.63-4.11-5.2l7.13-60.88C5047.47,6298.4,5049.8,6296.56,5052.37,6296.86z"/>
			<path class="st4" d="M5006.8,6259.56l22.05,2.58c15.63,1.83,26.82,15.99,24.99,31.62l-7.9,67.51
				c-1.83,15.63-15.98,26.82-31.62,24.99l-22.05-2.58c-15.63-1.83-26.82-15.99-24.99-31.62l7.9-67.51
				C4977.01,6268.93,4991.17,6257.73,5006.8,6259.56z"/>
			<path class="st5" d="M5037.55,6264.43c0,0,9.97,6.1,11.45,14.49"/>
			<path d="M4990.93,6249.92l24.78,2.9c17.57,2.06,30.14,17.97,28.08,35.54l-8.89,75.86c-2.06,17.57-17.97,30.14-35.54,28.08
				l-24.78-2.9c-17.57-2.06-30.14-17.97-28.08-35.54l8.89-75.86C4957.45,6260.44,4973.36,6247.87,4990.93,6249.92z"/>
			
				<ellipse transform="matrix(0.1163 -0.9932 0.9932 0.1163 -1775.2826 10563.7646)" class="st6" cx="5048.82" cy="6279.53" rx="1.05" ry="0.21"/>
			<path class="st6" d="M5049.02,6280.11l-0.39-0.05l-0.91,3.06l1.51,0.18L5049.02,6280.11z M5048.1,6282.93l0.05-0.42l0.76,0.09
				l-0.05,0.42L5048.1,6282.93z"/>
			<path class="st7" d="M4860.81,6492.59l-29.09,3.83c0,0-9.7,11.53-9.71,16.86c-0.01,5.32,59.48,12.32,59.48,12.32
				s7.39-16.15,5.57-23.61C4885.26,6494.52,4860.82,6492.59,4860.81,6492.59L4860.81,6492.59z"/>
			<path class="st7" d="M4821.82,6401.02c0,0-15.25-28.2-21.14-28.57c-5.89-0.37-21.74-4.97-17.49,19.62
				c4.26,24.59,17.03,36,17.03,36l10.44,2.42L4821.82,6401.02z"/>
			<g>
				<defs>
					<path id="SVGID_1_" d="M4821.82,6401.02c0,0-15.25-28.2-21.14-28.57c-5.89-0.37-21.74-4.97-17.49,19.62
						c4.26,24.59,17.03,36,17.03,36l10.44,2.42L4821.82,6401.02z"/>
				</defs>
				<clipPath id="SVGID_2_">
					<use xlink:href="#SVGID_1_"  style="overflow:visible;"/>
				</clipPath>
				<g class="st8">
					<path class="st3" d="M4787.1,6389.87c0.11-6.85,10.04-7.99,11.21-11.65c0.46-1.44-0.37-2.71-1.55-3.73
						c-1.18-1.02-0.23-2.74,1.77-3.59c2-0.85-6.23,1.03-6.23,1.03c-9.86-1.06-9.79,11.82-9.79,11.82
						c-4.67,27.43,17.74,44.33,17.74,44.33l2.9,0.67C4803.14,6428.76,4786.99,6396.73,4787.1,6389.87L4787.1,6389.87z"/>
					<path class="st7" d="M4804.33,6383.1c2.92-1.82,6.76-0.93,8.58,1.99l12.13,19.45l-6.71,11.52l-15.98-24.37
						C4800.53,6388.77,4801.42,6384.93,4804.33,6383.1L4804.33,6383.1z"/>
				</g>
			</g>
			<g>
				<defs>
					<path id="SVGID_3_" d="M4860.81,6492.59l-29.09,3.83c0,0-9.7,11.53-9.71,16.86c-0.01,5.32,59.48,12.32,59.48,12.32
						s7.39-16.15,5.57-23.61C4885.26,6494.52,4860.82,6492.59,4860.81,6492.59L4860.81,6492.59z"/>
				</defs>
				<clipPath id="SVGID_4_">
					<use xlink:href="#SVGID_3_"  style="overflow:visible;"/>
				</clipPath>
				<g class="st9">
					<path class="st3" d="M4820.45,6514.84c0,0,3.03-10.39,6.41-10.44c3.38-0.04,7.15,9.29,15.16,11.48
						c8.02,2.19,41.25,5.44,41.25,5.44l-0.84,4.6c0,0-48.92-3.72-59.99-9.13L4820.45,6514.84z"/>
					<path class="st7" d="M4834.25,6499.65c-0.35-3.42,2.15-6.48,5.57-6.82l22.81-2.31l10.97,8.95l-32.52,5.75
						C4837.65,6505.57,4834.6,6503.07,4834.25,6499.65z"/>
				</g>
			</g>
			<g>
				<path class="st3" d="M4960.04,6359.36c0,0-88.31,21.17-91.14,32.65c-2.82,11.48-14.8,75.59-13.85,97.84
					c0.52,12.16,33.74,19.22,33.74,19.22l11.57-91.56l62.3-20.3L4960.04,6359.36z"/>
				<path class="st3" d="M5021.8,6396.93c0,0-114.22-40.19-125.86-38.12c-11.64,2.06-65.38,24.27-77.31,37.62
					c-8.11,9.08-7.56,32.92-7.56,32.92l74.27-31.45l97.54,36.02c7.2,2.66,18.49,1.95,26.83-1.75c7.09-3.27,10.92-11.05,9.19-18.65
					L5021.8,6396.93z"/>
				<path class="st3" d="M4953.83,6249.26l-20.96,115.7c0,0,23.77,52.46,88.92,49.98l9.19-138.81
					C5030.98,6276.14,5006.67,6223.78,4953.83,6249.26L4953.83,6249.26z"/>
			</g>
			<path class="st10" d="M4964.35,6256.55l0.36,20.61l11.37-9.91L4964.35,6256.55z"/>
			<path class="st10" d="M5005.12,6267.22l-3.56,17.23l-14.69-15.21L5005.12,6267.22z"/>
			<path class="st7" d="M4989.75,6271.16c-14.27-1.67-26.73-9.73-27.86-22.83c-0.21-2.71,0.38-5.42,1.69-7.8
				c2.28-4.23,3.43-8.99,3.31-13.81l-0.2-8.57c1.87-15.95,16.31-27.37,32.26-25.49c15.95,1.87,27.37,16.32,25.49,32.26l-2.43,20.74
				C5020.15,6261.61,5005.71,6273.02,4989.75,6271.16z"/>
			<path class="st11" d="M4972.32,6247.45c0.4,3.17,2.59,13.26,13.88,4.88c0.26-0.19,0.31-0.54,0.12-0.8
				c-0.06-0.1-0.16-0.16-0.27-0.2l-12.98-4.48c-0.3-0.1-0.62,0.05-0.73,0.35C4972.32,6247.27,4972.31,6247.36,4972.32,6247.45
				L4972.32,6247.45z"/>
			
				<ellipse transform="matrix(0.2599 -0.9656 0.9656 0.2599 -2340.1978 9411.332)" class="st12" cx="4969.61" cy="6232.35" rx="7.69" ry="8.07"/>
			
				<ellipse transform="matrix(0.2599 -0.9656 0.9656 0.2599 -2329.3865 9437.5645)" class="st12" cx="4992.13" cy="6238.41" rx="7.69" ry="8.07"/>
			<path class="st13" d="M4987.12,6236.88l-2.6-0.7c-2.57-4.23-6.93-1.86-6.93-1.86l-2.6-0.7"/>
			<path class="st3" d="M5079.99,6231.85c-0.04-0.31-0.08-0.63-0.12-0.94c-0.62-4.78-4.22-8.35-8.82-9.8
				c-16.76-5.24-45.96-18.99-55.21-22.33c6.73,6.77,8.59,18.51,8.22,27.79l16.65,7.37c2.02,0.9,2.93,3.25,2.03,5.27
				c-0.29,0.66-0.76,1.23-1.35,1.65l-28.2,19.93c-0.51,0.35-0.92,0.81-1.2,1.35c-4.87,9.62,0.81,41.79,4.43,38.71
				c3.06-2.6,45.21-43.19,59.17-56.65C5078.91,6240.99,5080.54,6236.42,5079.99,6231.85L5079.99,6231.85z"/>
			<circle class="st10" cx="4981.28" cy="6275.83" r="1.98"/>
			<circle class="st10" cx="4979.29" cy="6288.42" r="1.98"/>
			<circle class="st10" cx="4977.31" cy="6301" r="1.98"/>
		</g>
	</g>
	<ellipse class="st14" cx="435.44" cy="364.91" rx="60.98" ry="13.86"/>
</g>
</svg>
